%TF.GenerationSoftware,KiCad,Pcbnew,9.0.5*%
%TF.CreationDate,2025-10-24T16:15:44+02:00*%
%TF.ProjectId,poe4pi,706f6534-7069-42e6-9b69-6361645f7063,rev?*%
%TF.SameCoordinates,Original*%
%TF.FileFunction,Copper,L4,Bot*%
%TF.FilePolarity,Positive*%
%FSLAX46Y46*%
G04 Gerber Fmt 4.6, Leading zero omitted, Abs format (unit mm)*
G04 Created by KiCad (PCBNEW 9.0.5) date 2025-10-24 16:15:44*
%MOMM*%
%LPD*%
G01*
G04 APERTURE LIST*
%TA.AperFunction,ComponentPad*%
%ADD10R,1.700000X1.700000*%
%TD*%
%TA.AperFunction,ComponentPad*%
%ADD11C,1.700000*%
%TD*%
%TA.AperFunction,ViaPad*%
%ADD12C,0.600000*%
%TD*%
%TA.AperFunction,ViaPad*%
%ADD13C,0.400000*%
%TD*%
%TA.AperFunction,ViaPad*%
%ADD14C,0.500000*%
%TD*%
%TA.AperFunction,Conductor*%
%ADD15C,1.000000*%
%TD*%
%TA.AperFunction,Conductor*%
%ADD16C,0.600000*%
%TD*%
%TA.AperFunction,Conductor*%
%ADD17C,0.200000*%
%TD*%
%TA.AperFunction,Conductor*%
%ADD18C,0.400000*%
%TD*%
G04 APERTURE END LIST*
D10*
%TO.P,J2,1,Pin_1*%
%TO.N,POE_PAIR_1-*%
X88250000Y-78060000D03*
D11*
%TO.P,J2,2,Pin_2*%
%TO.N,POE_PAIR_1+*%
X88250000Y-80600000D03*
%TO.P,J2,3,Pin_3*%
%TO.N,POE_PAIR_2-*%
X90790000Y-78060000D03*
%TO.P,J2,4,Pin_4*%
%TO.N,POE_PAIR_2+*%
X90790000Y-80600000D03*
%TD*%
D10*
%TO.P,J1,1,Pin_1*%
%TO.N,POE_PAIR_1-*%
X88250000Y-41360000D03*
D11*
%TO.P,J1,2,Pin_2*%
%TO.N,POE_PAIR_1+*%
X88250000Y-43900000D03*
%TO.P,J1,3,Pin_3*%
%TO.N,POE_PAIR_2-*%
X90790000Y-41360000D03*
%TO.P,J1,4,Pin_4*%
%TO.N,POE_PAIR_2+*%
X90790000Y-43900000D03*
%TD*%
%TO.P,J3,40,Pin_40*%
%TO.N,unconnected-(J3-Pin_40-Pad40)*%
X84760000Y-35210000D03*
%TO.P,J3,39,Pin_39*%
%TO.N,GND*%
X84760000Y-37750000D03*
%TO.P,J3,38,Pin_38*%
%TO.N,unconnected-(J3-Pin_38-Pad38)*%
X82220000Y-35210000D03*
%TO.P,J3,37,Pin_37*%
%TO.N,unconnected-(J3-Pin_37-Pad37)*%
X82220000Y-37750000D03*
%TO.P,J3,36,Pin_36*%
%TO.N,unconnected-(J3-Pin_36-Pad36)*%
X79680000Y-35210000D03*
%TO.P,J3,35,Pin_35*%
%TO.N,unconnected-(J3-Pin_35-Pad35)*%
X79680000Y-37750000D03*
%TO.P,J3,34,Pin_34*%
%TO.N,GND*%
X77140000Y-35210000D03*
%TO.P,J3,33,Pin_33*%
%TO.N,unconnected-(J3-Pin_33-Pad33)*%
X77140000Y-37750000D03*
%TO.P,J3,32,Pin_32*%
%TO.N,unconnected-(J3-Pin_32-Pad32)*%
X74600000Y-35210000D03*
%TO.P,J3,31,Pin_31*%
%TO.N,unconnected-(J3-Pin_31-Pad31)*%
X74600000Y-37750000D03*
%TO.P,J3,30,Pin_30*%
%TO.N,GND*%
X72060000Y-35210000D03*
%TO.P,J3,29,Pin_29*%
%TO.N,unconnected-(J3-Pin_29-Pad29)*%
X72060000Y-37750000D03*
%TO.P,J3,28,Pin_28*%
%TO.N,unconnected-(J3-Pin_28-Pad28)*%
X69520000Y-35210000D03*
%TO.P,J3,27,Pin_27*%
%TO.N,unconnected-(J3-Pin_27-Pad27)*%
X69520000Y-37750000D03*
%TO.P,J3,26,Pin_26*%
%TO.N,unconnected-(J3-Pin_26-Pad26)*%
X66980000Y-35210000D03*
%TO.P,J3,25,Pin_25*%
%TO.N,GND*%
X66980000Y-37750000D03*
%TO.P,J3,24,Pin_24*%
%TO.N,unconnected-(J3-Pin_24-Pad24)*%
X64440000Y-35210000D03*
%TO.P,J3,23,Pin_23*%
%TO.N,unconnected-(J3-Pin_23-Pad23)*%
X64440000Y-37750000D03*
%TO.P,J3,22,Pin_22*%
%TO.N,unconnected-(J3-Pin_22-Pad22)*%
X61900000Y-35210000D03*
%TO.P,J3,21,Pin_21*%
%TO.N,unconnected-(J3-Pin_21-Pad21)*%
X61900000Y-37750000D03*
%TO.P,J3,20,Pin_20*%
%TO.N,GND*%
X59360000Y-35210000D03*
%TO.P,J3,19,Pin_19*%
%TO.N,unconnected-(J3-Pin_19-Pad19)*%
X59360000Y-37750000D03*
%TO.P,J3,18,Pin_18*%
%TO.N,unconnected-(J3-Pin_18-Pad18)*%
X56820000Y-35210000D03*
%TO.P,J3,17,Pin_17*%
%TO.N,unconnected-(J3-Pin_17-Pad17)*%
X56820000Y-37750000D03*
%TO.P,J3,16,Pin_16*%
%TO.N,unconnected-(J3-Pin_16-Pad16)*%
X54280000Y-35210000D03*
%TO.P,J3,15,Pin_15*%
%TO.N,unconnected-(J3-Pin_15-Pad15)*%
X54280000Y-37750000D03*
%TO.P,J3,14,Pin_14*%
%TO.N,GND*%
X51740000Y-35210000D03*
%TO.P,J3,13,Pin_13*%
%TO.N,unconnected-(J3-Pin_13-Pad13)*%
X51740000Y-37750000D03*
%TO.P,J3,12,Pin_12*%
%TO.N,unconnected-(J3-Pin_12-Pad12)*%
X49200000Y-35210000D03*
%TO.P,J3,11,Pin_11*%
%TO.N,unconnected-(J3-Pin_11-Pad11)*%
X49200000Y-37750000D03*
%TO.P,J3,10,Pin_10*%
%TO.N,unconnected-(J3-Pin_10-Pad10)*%
X46660000Y-35210000D03*
%TO.P,J3,9,Pin_9*%
%TO.N,GND*%
X46660000Y-37750000D03*
%TO.P,J3,8,Pin_8*%
%TO.N,unconnected-(J3-Pin_8-Pad8)*%
X44120000Y-35210000D03*
%TO.P,J3,7,Pin_7*%
%TO.N,unconnected-(J3-Pin_7-Pad7)*%
X44120000Y-37750000D03*
%TO.P,J3,6,Pin_6*%
%TO.N,GND*%
X41580000Y-35210000D03*
%TO.P,J3,5,Pin_5*%
%TO.N,unconnected-(J3-Pin_5-Pad5)*%
X41580000Y-37750000D03*
%TO.P,J3,4,Pin_4*%
%TO.N,+5V*%
X39040000Y-35210000D03*
%TO.P,J3,3,Pin_3*%
%TO.N,unconnected-(J3-Pin_3-Pad3)*%
X39040000Y-37750000D03*
%TO.P,J3,2,Pin_2*%
%TO.N,+5V*%
X36500000Y-35210000D03*
D10*
%TO.P,J3,1,Pin_1*%
%TO.N,unconnected-(J3-Pin_1-Pad1)*%
X36500000Y-37750000D03*
%TD*%
D12*
%TO.N,GND*%
X35750000Y-50500000D03*
X78600000Y-60000000D03*
X35750000Y-74750000D03*
X30500000Y-66000000D03*
X78000000Y-58800000D03*
X30750000Y-41750000D03*
X79800000Y-59400000D03*
%TO.N,+5V*%
X31750000Y-50500000D03*
X32250000Y-53750000D03*
D13*
X31750000Y-59250000D03*
D12*
X31750000Y-74750000D03*
X32250000Y-74750000D03*
X31250000Y-74750000D03*
X31775000Y-71250000D03*
X31250000Y-78000000D03*
D13*
X31250000Y-59250000D03*
D12*
X32250000Y-47000000D03*
X31750000Y-78000000D03*
X31250000Y-50500000D03*
D13*
X31250000Y-58750000D03*
D12*
X32250000Y-71250000D03*
D13*
X31250000Y-59750000D03*
X31500000Y-59500000D03*
D12*
X31250000Y-53750000D03*
X31750000Y-53750000D03*
D13*
X31500000Y-59000000D03*
D12*
X31250000Y-47000000D03*
X32250000Y-50500000D03*
X32250000Y-78000000D03*
X31250000Y-71250000D03*
X31750000Y-47000000D03*
%TO.N,POE_V+*%
X81000000Y-60000000D03*
X60200000Y-70000000D03*
X60200000Y-51000000D03*
X60200000Y-45000000D03*
X60200000Y-47000000D03*
X81000000Y-54000000D03*
X60167024Y-64000000D03*
X60200000Y-49000000D03*
X60200000Y-66000000D03*
X60200000Y-68000000D03*
X60167024Y-72000000D03*
X60167024Y-53000000D03*
D14*
%TO.N,POE_V-*%
X75000000Y-60510000D03*
X76750000Y-58750000D03*
D12*
%TO.N,POE_PAIR_2-*%
X88000000Y-63000000D03*
%TO.N,POE_PAIR_1-*%
X88000000Y-54000000D03*
%TO.N,POE_PAIR_1+*%
X88000000Y-56000000D03*
D13*
%TO.N,Net-(U3-PG)*%
X71250000Y-57250000D03*
D14*
X75500000Y-51000000D03*
%TD*%
D15*
%TO.N,POE_V+*%
X81000000Y-56250000D02*
X80350000Y-55600000D01*
X60167024Y-54001469D02*
X60167024Y-53000000D01*
D16*
X60167024Y-45032976D02*
X60200000Y-45000000D01*
D15*
X62415555Y-56250000D02*
X60167024Y-54001469D01*
X80350000Y-55600000D02*
X63065555Y-55600000D01*
X63065555Y-55600000D02*
X62415555Y-56250000D01*
D16*
X81000000Y-56250000D02*
X81000000Y-54000000D01*
D15*
X60167024Y-64000000D02*
X60167024Y-73001469D01*
X62415555Y-60752938D02*
X62415555Y-56250000D01*
D16*
X60167024Y-64000000D02*
X60167024Y-63200000D01*
D15*
X60167024Y-53000000D02*
X60167024Y-45032976D01*
D16*
X81000000Y-60000000D02*
X81000000Y-56250000D01*
D15*
X60167024Y-64000000D02*
X60167024Y-63001469D01*
X60167024Y-63001469D02*
X62415555Y-60752938D01*
D17*
%TO.N,POE_V-*%
X76750000Y-58750000D02*
X76750000Y-58760000D01*
X76750000Y-58760000D02*
X75000000Y-60510000D01*
D18*
%TO.N,POE_PAIR_2-*%
X89000000Y-62000000D02*
X88000000Y-63000000D01*
X90790000Y-41360000D02*
X92041000Y-42611000D01*
X92041000Y-42611000D02*
X92041000Y-62000000D01*
X92041000Y-62000000D02*
X92041000Y-76809000D01*
X92041000Y-62000000D02*
X89000000Y-62000000D01*
X92041000Y-76809000D02*
X90790000Y-78060000D01*
%TD*%
%TA.AperFunction,Conductor*%
%TO.N,GND*%
G36*
X89912791Y-33521821D02*
G01*
X89974935Y-33521820D01*
X89982419Y-33522045D01*
X90272482Y-33539589D01*
X90287340Y-33541393D01*
X90569475Y-33593095D01*
X90584008Y-33596677D01*
X90584030Y-33596684D01*
X90857859Y-33682011D01*
X90871860Y-33687321D01*
X91133422Y-33805039D01*
X91146680Y-33811997D01*
X91392150Y-33960389D01*
X91404461Y-33968887D01*
X91623479Y-34140476D01*
X91630259Y-34145788D01*
X91641467Y-34155718D01*
X91844281Y-34358532D01*
X91854211Y-34369740D01*
X92031108Y-34595532D01*
X92039614Y-34607855D01*
X92188001Y-34853318D01*
X92194960Y-34866577D01*
X92312678Y-35128139D01*
X92317988Y-35142140D01*
X92403321Y-35415988D01*
X92406904Y-35430527D01*
X92458605Y-35712655D01*
X92460410Y-35727520D01*
X92477953Y-36017579D01*
X92478179Y-36025009D01*
X92478179Y-36027022D01*
X92478179Y-36087209D01*
X92478207Y-36087314D01*
X92478211Y-36095542D01*
X92478211Y-36095545D01*
X92480688Y-41902038D01*
X92461032Y-41969086D01*
X92408248Y-42014863D01*
X92339093Y-42024836D01*
X92275525Y-41995839D01*
X92269007Y-41989772D01*
X92043768Y-41764533D01*
X92010283Y-41703210D01*
X92008976Y-41657454D01*
X92040500Y-41458422D01*
X92040500Y-41261577D01*
X92009709Y-41067173D01*
X91948882Y-40879970D01*
X91859523Y-40704594D01*
X91855183Y-40698620D01*
X91743828Y-40545354D01*
X91604646Y-40406172D01*
X91445405Y-40290476D01*
X91270029Y-40201117D01*
X91082826Y-40140290D01*
X90888422Y-40109500D01*
X90888417Y-40109500D01*
X90691583Y-40109500D01*
X90691578Y-40109500D01*
X90497173Y-40140290D01*
X90309970Y-40201117D01*
X90134594Y-40290476D01*
X90043741Y-40356485D01*
X89975354Y-40406172D01*
X89975352Y-40406174D01*
X89975351Y-40406174D01*
X89836173Y-40545352D01*
X89724817Y-40698620D01*
X89669486Y-40741285D01*
X89599873Y-40747264D01*
X89538078Y-40714658D01*
X89503721Y-40653819D01*
X89500499Y-40625734D01*
X89500499Y-40478482D01*
X89489047Y-40406174D01*
X89485646Y-40384696D01*
X89428050Y-40271658D01*
X89428046Y-40271654D01*
X89428045Y-40271652D01*
X89338347Y-40181954D01*
X89338344Y-40181952D01*
X89338342Y-40181950D01*
X89256580Y-40140290D01*
X89225301Y-40124352D01*
X89131524Y-40109500D01*
X87368482Y-40109500D01*
X87287519Y-40122323D01*
X87274696Y-40124354D01*
X87161658Y-40181950D01*
X87161657Y-40181951D01*
X87161652Y-40181954D01*
X87071954Y-40271652D01*
X87071951Y-40271657D01*
X87014352Y-40384698D01*
X86999500Y-40478475D01*
X86999500Y-42241517D01*
X87010292Y-42309657D01*
X87014354Y-42335304D01*
X87071950Y-42448342D01*
X87071952Y-42448344D01*
X87071954Y-42448347D01*
X87161652Y-42538045D01*
X87161654Y-42538046D01*
X87161658Y-42538050D01*
X87274694Y-42595645D01*
X87274698Y-42595647D01*
X87368475Y-42610499D01*
X87368481Y-42610500D01*
X87515735Y-42610499D01*
X87582772Y-42630183D01*
X87628527Y-42682987D01*
X87638471Y-42752145D01*
X87609446Y-42815701D01*
X87588619Y-42834816D01*
X87435360Y-42946167D01*
X87435351Y-42946174D01*
X87296174Y-43085351D01*
X87296174Y-43085352D01*
X87296172Y-43085354D01*
X87246485Y-43153741D01*
X87180476Y-43244594D01*
X87091117Y-43419970D01*
X87030290Y-43607173D01*
X86999500Y-43801577D01*
X86999500Y-43998422D01*
X87030290Y-44192826D01*
X87091117Y-44380029D01*
X87131323Y-44458937D01*
X87180476Y-44555405D01*
X87296172Y-44714646D01*
X87435354Y-44853828D01*
X87594595Y-44969524D01*
X87677455Y-45011743D01*
X87769970Y-45058882D01*
X87769972Y-45058882D01*
X87769975Y-45058884D01*
X87844507Y-45083101D01*
X87957173Y-45119709D01*
X88151578Y-45150500D01*
X88151583Y-45150500D01*
X88348422Y-45150500D01*
X88542826Y-45119709D01*
X88730025Y-45058884D01*
X88905405Y-44969524D01*
X89064646Y-44853828D01*
X89203828Y-44714646D01*
X89319524Y-44555405D01*
X89408884Y-44380025D01*
X89409515Y-44378787D01*
X89457489Y-44327990D01*
X89525310Y-44311195D01*
X89591445Y-44333732D01*
X89630485Y-44378787D01*
X89720474Y-44555403D01*
X89755234Y-44603246D01*
X89836172Y-44714646D01*
X89975354Y-44853828D01*
X90134595Y-44969524D01*
X90217455Y-45011743D01*
X90309970Y-45058882D01*
X90309972Y-45058882D01*
X90309975Y-45058884D01*
X90384507Y-45083101D01*
X90497173Y-45119709D01*
X90691578Y-45150500D01*
X90691583Y-45150500D01*
X90888422Y-45150500D01*
X91082826Y-45119709D01*
X91270025Y-45058884D01*
X91270028Y-45058882D01*
X91274658Y-45057378D01*
X91275068Y-45058639D01*
X91338525Y-45051822D01*
X91401002Y-45083101D01*
X91436650Y-45143192D01*
X91440500Y-45173850D01*
X91440500Y-61275500D01*
X91420815Y-61342539D01*
X91368011Y-61388294D01*
X91316500Y-61399500D01*
X89086670Y-61399500D01*
X89086654Y-61399499D01*
X89079058Y-61399499D01*
X88920943Y-61399499D01*
X88844579Y-61419961D01*
X88768214Y-61440423D01*
X88768209Y-61440426D01*
X88631290Y-61519475D01*
X88631282Y-61519481D01*
X87858061Y-62292702D01*
X87801228Y-62323735D01*
X87801506Y-62324650D01*
X87797110Y-62325983D01*
X87796738Y-62326187D01*
X87795787Y-62326385D01*
X87795669Y-62326420D01*
X87668195Y-62379221D01*
X87668182Y-62379228D01*
X87553458Y-62455885D01*
X87553454Y-62455888D01*
X87455888Y-62553454D01*
X87455885Y-62553458D01*
X87379228Y-62668182D01*
X87379221Y-62668195D01*
X87326421Y-62795667D01*
X87326418Y-62795677D01*
X87299500Y-62931004D01*
X87299500Y-62931007D01*
X87299500Y-63068993D01*
X87299500Y-63068995D01*
X87299499Y-63068995D01*
X87326418Y-63204322D01*
X87326421Y-63204332D01*
X87379221Y-63331804D01*
X87379228Y-63331817D01*
X87455885Y-63446541D01*
X87455888Y-63446545D01*
X87553454Y-63544111D01*
X87553458Y-63544114D01*
X87668182Y-63620771D01*
X87668195Y-63620778D01*
X87795667Y-63673578D01*
X87795672Y-63673580D01*
X87795676Y-63673580D01*
X87795677Y-63673581D01*
X87931004Y-63700500D01*
X87931007Y-63700500D01*
X88068995Y-63700500D01*
X88160041Y-63682389D01*
X88204328Y-63673580D01*
X88331811Y-63620775D01*
X88446542Y-63544114D01*
X88544114Y-63446542D01*
X88620775Y-63331811D01*
X88673580Y-63204328D01*
X88673580Y-63204325D01*
X88675346Y-63198506D01*
X88676760Y-63198934D01*
X88705734Y-63143527D01*
X88707184Y-63142049D01*
X89212418Y-62636816D01*
X89273740Y-62603334D01*
X89300098Y-62600500D01*
X91316500Y-62600500D01*
X91383539Y-62620185D01*
X91429294Y-62672989D01*
X91440500Y-62724500D01*
X91440500Y-76508902D01*
X91420815Y-76575941D01*
X91404181Y-76596583D01*
X91194532Y-76806231D01*
X91133209Y-76839716D01*
X91087453Y-76841023D01*
X90888422Y-76809500D01*
X90888417Y-76809500D01*
X90691583Y-76809500D01*
X90691578Y-76809500D01*
X90497173Y-76840290D01*
X90309970Y-76901117D01*
X90134594Y-76990476D01*
X90043741Y-77056485D01*
X89975354Y-77106172D01*
X89975352Y-77106174D01*
X89975351Y-77106174D01*
X89836173Y-77245352D01*
X89724817Y-77398620D01*
X89669486Y-77441285D01*
X89599873Y-77447264D01*
X89538078Y-77414658D01*
X89503721Y-77353819D01*
X89500499Y-77325734D01*
X89500499Y-77178482D01*
X89489047Y-77106174D01*
X89485646Y-77084696D01*
X89428050Y-76971658D01*
X89428046Y-76971654D01*
X89428045Y-76971652D01*
X89338347Y-76881954D01*
X89338344Y-76881952D01*
X89338342Y-76881950D01*
X89256580Y-76840290D01*
X89225301Y-76824352D01*
X89131524Y-76809500D01*
X87368482Y-76809500D01*
X87287519Y-76822323D01*
X87274696Y-76824354D01*
X87161658Y-76881950D01*
X87161657Y-76881951D01*
X87161652Y-76881954D01*
X87071954Y-76971652D01*
X87071951Y-76971657D01*
X87014352Y-77084698D01*
X86999500Y-77178475D01*
X86999500Y-78941517D01*
X87010292Y-79009657D01*
X87014354Y-79035304D01*
X87071950Y-79148342D01*
X87071952Y-79148344D01*
X87071954Y-79148347D01*
X87161652Y-79238045D01*
X87161654Y-79238046D01*
X87161658Y-79238050D01*
X87274694Y-79295645D01*
X87274698Y-79295647D01*
X87368475Y-79310499D01*
X87368481Y-79310500D01*
X87515735Y-79310499D01*
X87582772Y-79330183D01*
X87628527Y-79382987D01*
X87638471Y-79452145D01*
X87609446Y-79515701D01*
X87588619Y-79534816D01*
X87435360Y-79646167D01*
X87435351Y-79646174D01*
X87296174Y-79785351D01*
X87296174Y-79785352D01*
X87296172Y-79785354D01*
X87246485Y-79853741D01*
X87180476Y-79944594D01*
X87091117Y-80119970D01*
X87030290Y-80307173D01*
X86999500Y-80501577D01*
X86999500Y-80698422D01*
X87030290Y-80892826D01*
X87091117Y-81080029D01*
X87180475Y-81255403D01*
X87180476Y-81255405D01*
X87296172Y-81414646D01*
X87435354Y-81553828D01*
X87594595Y-81669524D01*
X87677455Y-81711743D01*
X87769970Y-81758882D01*
X87769972Y-81758882D01*
X87769975Y-81758884D01*
X87870317Y-81791487D01*
X87957173Y-81819709D01*
X88151578Y-81850500D01*
X88151583Y-81850500D01*
X88348422Y-81850500D01*
X88542826Y-81819709D01*
X88730025Y-81758884D01*
X88905405Y-81669524D01*
X89064646Y-81553828D01*
X89203828Y-81414646D01*
X89319524Y-81255405D01*
X89408884Y-81080025D01*
X89409515Y-81078787D01*
X89457489Y-81027990D01*
X89525310Y-81011195D01*
X89591445Y-81033732D01*
X89630485Y-81078787D01*
X89720474Y-81255403D01*
X89755234Y-81303246D01*
X89836172Y-81414646D01*
X89975354Y-81553828D01*
X90134595Y-81669524D01*
X90217455Y-81711743D01*
X90309970Y-81758882D01*
X90309972Y-81758882D01*
X90309975Y-81758884D01*
X90410317Y-81791487D01*
X90497173Y-81819709D01*
X90691578Y-81850500D01*
X90691583Y-81850500D01*
X90888422Y-81850500D01*
X91082826Y-81819709D01*
X91270025Y-81758884D01*
X91445405Y-81669524D01*
X91604646Y-81553828D01*
X91743828Y-81414646D01*
X91859524Y-81255405D01*
X91948884Y-81080025D01*
X92009709Y-80892826D01*
X92040500Y-80698422D01*
X92040500Y-80501577D01*
X92009709Y-80307173D01*
X91948882Y-80119970D01*
X91859523Y-79944594D01*
X91743828Y-79785354D01*
X91604646Y-79646172D01*
X91525025Y-79588324D01*
X91445403Y-79530474D01*
X91268787Y-79440485D01*
X91217990Y-79392511D01*
X91201195Y-79324690D01*
X91223732Y-79258555D01*
X91268787Y-79219515D01*
X91445403Y-79129525D01*
X91445402Y-79129525D01*
X91445405Y-79129524D01*
X91604646Y-79013828D01*
X91743828Y-78874646D01*
X91859524Y-78715405D01*
X91948884Y-78540025D01*
X92009709Y-78352826D01*
X92040500Y-78158422D01*
X92040500Y-77961578D01*
X92014223Y-77795677D01*
X92009709Y-77767174D01*
X92009707Y-77767168D01*
X92008975Y-77762546D01*
X92017929Y-77693252D01*
X92043764Y-77655469D01*
X92284195Y-77415038D01*
X92345516Y-77381555D01*
X92415208Y-77386539D01*
X92471141Y-77428411D01*
X92495558Y-77493875D01*
X92495874Y-77502668D01*
X92499498Y-85996222D01*
X92499272Y-86003762D01*
X92481728Y-86293794D01*
X92479923Y-86308659D01*
X92428219Y-86590798D01*
X92424635Y-86605336D01*
X92339306Y-86879167D01*
X92333997Y-86893168D01*
X92216275Y-87154736D01*
X92209316Y-87167995D01*
X92060928Y-87413459D01*
X92052422Y-87425782D01*
X91875526Y-87651573D01*
X91865596Y-87662781D01*
X91662781Y-87865596D01*
X91651573Y-87875526D01*
X91425782Y-88052422D01*
X91413459Y-88060928D01*
X91167995Y-88209316D01*
X91154736Y-88216275D01*
X90893168Y-88333997D01*
X90879167Y-88339306D01*
X90605336Y-88424635D01*
X90590798Y-88428219D01*
X90308659Y-88479923D01*
X90293794Y-88481728D01*
X90003756Y-88499272D01*
X89996224Y-88499498D01*
X31095376Y-88478205D01*
X31095375Y-88478205D01*
X31087296Y-88478202D01*
X31087209Y-88478179D01*
X31025016Y-88478179D01*
X31025010Y-88478177D01*
X31017576Y-88477953D01*
X30727520Y-88460410D01*
X30712655Y-88458605D01*
X30430527Y-88406904D01*
X30415988Y-88403321D01*
X30142140Y-88317988D01*
X30128139Y-88312678D01*
X29866577Y-88194960D01*
X29853318Y-88188001D01*
X29643113Y-88060928D01*
X29607852Y-88039612D01*
X29595532Y-88031108D01*
X29369740Y-87854211D01*
X29358532Y-87844281D01*
X29155718Y-87641467D01*
X29145788Y-87630259D01*
X28968887Y-87404461D01*
X28960389Y-87392150D01*
X28811997Y-87146680D01*
X28805039Y-87133422D01*
X28687321Y-86871860D01*
X28682011Y-86857859D01*
X28596678Y-86584011D01*
X28593095Y-86569472D01*
X28541393Y-86287340D01*
X28539589Y-86272479D01*
X28532220Y-86150646D01*
X28522045Y-85982419D01*
X28521820Y-85974934D01*
X28521821Y-85912791D01*
X28521820Y-85912787D01*
X28521820Y-85381902D01*
X29999500Y-85381902D01*
X29999500Y-85618097D01*
X30036446Y-85851368D01*
X30109433Y-86075996D01*
X30209547Y-86272479D01*
X30216657Y-86286433D01*
X30355483Y-86477510D01*
X30522490Y-86644517D01*
X30713567Y-86783343D01*
X30805643Y-86830258D01*
X30924003Y-86890566D01*
X30924005Y-86890566D01*
X30924008Y-86890568D01*
X31044412Y-86929689D01*
X31148631Y-86963553D01*
X31381903Y-87000500D01*
X31381908Y-87000500D01*
X31618097Y-87000500D01*
X31851368Y-86963553D01*
X32075992Y-86890568D01*
X32286433Y-86783343D01*
X32477510Y-86644517D01*
X32644517Y-86477510D01*
X32783343Y-86286433D01*
X32890568Y-86075992D01*
X32963553Y-85851368D01*
X33000500Y-85618097D01*
X33000500Y-85381902D01*
X87999500Y-85381902D01*
X87999500Y-85618097D01*
X88036446Y-85851368D01*
X88109433Y-86075996D01*
X88209547Y-86272479D01*
X88216657Y-86286433D01*
X88355483Y-86477510D01*
X88522490Y-86644517D01*
X88713567Y-86783343D01*
X88805643Y-86830258D01*
X88924003Y-86890566D01*
X88924005Y-86890566D01*
X88924008Y-86890568D01*
X89044412Y-86929689D01*
X89148631Y-86963553D01*
X89381903Y-87000500D01*
X89381908Y-87000500D01*
X89618097Y-87000500D01*
X89851368Y-86963553D01*
X90075992Y-86890568D01*
X90286433Y-86783343D01*
X90477510Y-86644517D01*
X90644517Y-86477510D01*
X90783343Y-86286433D01*
X90890568Y-86075992D01*
X90963553Y-85851368D01*
X91000500Y-85618097D01*
X91000500Y-85381902D01*
X90963553Y-85148631D01*
X90890566Y-84924003D01*
X90783342Y-84713566D01*
X90644517Y-84522490D01*
X90477510Y-84355483D01*
X90286433Y-84216657D01*
X90075996Y-84109433D01*
X89851368Y-84036446D01*
X89618097Y-83999500D01*
X89618092Y-83999500D01*
X89381908Y-83999500D01*
X89381903Y-83999500D01*
X89148631Y-84036446D01*
X88924003Y-84109433D01*
X88713566Y-84216657D01*
X88604550Y-84295862D01*
X88522490Y-84355483D01*
X88522488Y-84355485D01*
X88522487Y-84355485D01*
X88355485Y-84522487D01*
X88355485Y-84522488D01*
X88355483Y-84522490D01*
X88295862Y-84604550D01*
X88216657Y-84713566D01*
X88109433Y-84924003D01*
X88036446Y-85148631D01*
X87999500Y-85381902D01*
X33000500Y-85381902D01*
X32963553Y-85148631D01*
X32890566Y-84924003D01*
X32783342Y-84713566D01*
X32644517Y-84522490D01*
X32477510Y-84355483D01*
X32286433Y-84216657D01*
X32075996Y-84109433D01*
X31851368Y-84036446D01*
X31618097Y-83999500D01*
X31618092Y-83999500D01*
X31381908Y-83999500D01*
X31381903Y-83999500D01*
X31148631Y-84036446D01*
X30924003Y-84109433D01*
X30713566Y-84216657D01*
X30604550Y-84295862D01*
X30522490Y-84355483D01*
X30522488Y-84355485D01*
X30522487Y-84355485D01*
X30355485Y-84522487D01*
X30355485Y-84522488D01*
X30355483Y-84522490D01*
X30295862Y-84604550D01*
X30216657Y-84713566D01*
X30109433Y-84924003D01*
X30036446Y-85148631D01*
X29999500Y-85381902D01*
X28521820Y-85381902D01*
X28521820Y-78068995D01*
X30549499Y-78068995D01*
X30576418Y-78204322D01*
X30576421Y-78204332D01*
X30629221Y-78331804D01*
X30629228Y-78331817D01*
X30705885Y-78446541D01*
X30705888Y-78446545D01*
X30803454Y-78544111D01*
X30803458Y-78544114D01*
X30918182Y-78620771D01*
X30918195Y-78620778D01*
X31042007Y-78672062D01*
X31045672Y-78673580D01*
X31045676Y-78673580D01*
X31045677Y-78673581D01*
X31181004Y-78700500D01*
X31181007Y-78700500D01*
X31318995Y-78700500D01*
X31410041Y-78682389D01*
X31454328Y-78673580D01*
X31454335Y-78673576D01*
X31460155Y-78671812D01*
X31460651Y-78673448D01*
X31522003Y-78666846D01*
X31539769Y-78672062D01*
X31539845Y-78671812D01*
X31545667Y-78673578D01*
X31545672Y-78673580D01*
X31545676Y-78673580D01*
X31545677Y-78673581D01*
X31681004Y-78700500D01*
X31681007Y-78700500D01*
X31818995Y-78700500D01*
X31910041Y-78682389D01*
X31954328Y-78673580D01*
X31954335Y-78673576D01*
X31960155Y-78671812D01*
X31960651Y-78673448D01*
X32022003Y-78666846D01*
X32039769Y-78672062D01*
X32039845Y-78671812D01*
X32045667Y-78673578D01*
X32045672Y-78673580D01*
X32045676Y-78673580D01*
X32045677Y-78673581D01*
X32181004Y-78700500D01*
X32181007Y-78700500D01*
X32318995Y-78700500D01*
X32410041Y-78682389D01*
X32454328Y-78673580D01*
X32581811Y-78620775D01*
X32696542Y-78544114D01*
X32794114Y-78446542D01*
X32870775Y-78331811D01*
X32923580Y-78204328D01*
X32950500Y-78068993D01*
X32950500Y-77931007D01*
X32950500Y-77931004D01*
X32923581Y-77795677D01*
X32923580Y-77795676D01*
X32923580Y-77795672D01*
X32909859Y-77762546D01*
X32870778Y-77668195D01*
X32870771Y-77668182D01*
X32794114Y-77553458D01*
X32794111Y-77553454D01*
X32696545Y-77455888D01*
X32696541Y-77455885D01*
X32581817Y-77379228D01*
X32581804Y-77379221D01*
X32454332Y-77326421D01*
X32454322Y-77326418D01*
X32318995Y-77299500D01*
X32318993Y-77299500D01*
X32181007Y-77299500D01*
X32181005Y-77299500D01*
X32045674Y-77326419D01*
X32039840Y-77328189D01*
X32039344Y-77326555D01*
X31977975Y-77333149D01*
X31960235Y-77327940D01*
X31960160Y-77328189D01*
X31954325Y-77326419D01*
X31818995Y-77299500D01*
X31818993Y-77299500D01*
X31681007Y-77299500D01*
X31681005Y-77299500D01*
X31545674Y-77326419D01*
X31539840Y-77328189D01*
X31539344Y-77326555D01*
X31477975Y-77333149D01*
X31460235Y-77327940D01*
X31460160Y-77328189D01*
X31454325Y-77326419D01*
X31318995Y-77299500D01*
X31318993Y-77299500D01*
X31181007Y-77299500D01*
X31181005Y-77299500D01*
X31045677Y-77326418D01*
X31045667Y-77326421D01*
X30918195Y-77379221D01*
X30918182Y-77379228D01*
X30803458Y-77455885D01*
X30803454Y-77455888D01*
X30705888Y-77553454D01*
X30705885Y-77553458D01*
X30629228Y-77668182D01*
X30629221Y-77668195D01*
X30576421Y-77795667D01*
X30576418Y-77795677D01*
X30549500Y-77931004D01*
X30549500Y-77931007D01*
X30549500Y-78068993D01*
X30549500Y-78068995D01*
X30549499Y-78068995D01*
X28521820Y-78068995D01*
X28521820Y-74818995D01*
X30549499Y-74818995D01*
X30576418Y-74954322D01*
X30576421Y-74954332D01*
X30629221Y-75081804D01*
X30629228Y-75081817D01*
X30705885Y-75196541D01*
X30705888Y-75196545D01*
X30803454Y-75294111D01*
X30803458Y-75294114D01*
X30918182Y-75370771D01*
X30918195Y-75370778D01*
X31042007Y-75422062D01*
X31045672Y-75423580D01*
X31045676Y-75423580D01*
X31045677Y-75423581D01*
X31181004Y-75450500D01*
X31181007Y-75450500D01*
X31318995Y-75450500D01*
X31410041Y-75432389D01*
X31454328Y-75423580D01*
X31454335Y-75423576D01*
X31460155Y-75421812D01*
X31460651Y-75423448D01*
X31522003Y-75416846D01*
X31539769Y-75422062D01*
X31539845Y-75421812D01*
X31545667Y-75423578D01*
X31545672Y-75423580D01*
X31545676Y-75423580D01*
X31545677Y-75423581D01*
X31681004Y-75450500D01*
X31681007Y-75450500D01*
X31818995Y-75450500D01*
X31910041Y-75432389D01*
X31954328Y-75423580D01*
X31954335Y-75423576D01*
X31960155Y-75421812D01*
X31960651Y-75423448D01*
X32022003Y-75416846D01*
X32039769Y-75422062D01*
X32039845Y-75421812D01*
X32045667Y-75423578D01*
X32045672Y-75423580D01*
X32045676Y-75423580D01*
X32045677Y-75423581D01*
X32181004Y-75450500D01*
X32181007Y-75450500D01*
X32318995Y-75450500D01*
X32410041Y-75432389D01*
X32454328Y-75423580D01*
X32581811Y-75370775D01*
X32696542Y-75294114D01*
X32794114Y-75196542D01*
X32870775Y-75081811D01*
X32923580Y-74954328D01*
X32950500Y-74818993D01*
X32950500Y-74681007D01*
X32950500Y-74681004D01*
X32923581Y-74545677D01*
X32923580Y-74545676D01*
X32923580Y-74545672D01*
X32923578Y-74545667D01*
X32870778Y-74418195D01*
X32870771Y-74418182D01*
X32794114Y-74303458D01*
X32794111Y-74303454D01*
X32696545Y-74205888D01*
X32696541Y-74205885D01*
X32581817Y-74129228D01*
X32581804Y-74129221D01*
X32454332Y-74076421D01*
X32454322Y-74076418D01*
X32318995Y-74049500D01*
X32318993Y-74049500D01*
X32181007Y-74049500D01*
X32181005Y-74049500D01*
X32045674Y-74076419D01*
X32039840Y-74078189D01*
X32039344Y-74076555D01*
X31977975Y-74083149D01*
X31960235Y-74077940D01*
X31960160Y-74078189D01*
X31954325Y-74076419D01*
X31818995Y-74049500D01*
X31818993Y-74049500D01*
X31681007Y-74049500D01*
X31681005Y-74049500D01*
X31545674Y-74076419D01*
X31539840Y-74078189D01*
X31539344Y-74076555D01*
X31477975Y-74083149D01*
X31460235Y-74077940D01*
X31460160Y-74078189D01*
X31454325Y-74076419D01*
X31318995Y-74049500D01*
X31318993Y-74049500D01*
X31181007Y-74049500D01*
X31181005Y-74049500D01*
X31045677Y-74076418D01*
X31045667Y-74076421D01*
X30918195Y-74129221D01*
X30918182Y-74129228D01*
X30803458Y-74205885D01*
X30803454Y-74205888D01*
X30705888Y-74303454D01*
X30705885Y-74303458D01*
X30629228Y-74418182D01*
X30629221Y-74418195D01*
X30576421Y-74545667D01*
X30576418Y-74545677D01*
X30549500Y-74681004D01*
X30549500Y-74681007D01*
X30549500Y-74818993D01*
X30549500Y-74818995D01*
X30549499Y-74818995D01*
X28521820Y-74818995D01*
X28521820Y-71318995D01*
X30549499Y-71318995D01*
X30576418Y-71454322D01*
X30576421Y-71454332D01*
X30629221Y-71581804D01*
X30629228Y-71581817D01*
X30705885Y-71696541D01*
X30705888Y-71696545D01*
X30803454Y-71794111D01*
X30803458Y-71794114D01*
X30918182Y-71870771D01*
X30918195Y-71870778D01*
X31012498Y-71909839D01*
X31045672Y-71923580D01*
X31045676Y-71923580D01*
X31045677Y-71923581D01*
X31181004Y-71950500D01*
X31181007Y-71950500D01*
X31318995Y-71950500D01*
X31410041Y-71932389D01*
X31454328Y-71923580D01*
X31465045Y-71919140D01*
X31534511Y-71911669D01*
X31559949Y-71919138D01*
X31570672Y-71923580D01*
X31570676Y-71923580D01*
X31570677Y-71923581D01*
X31706004Y-71950500D01*
X31706007Y-71950500D01*
X31843995Y-71950500D01*
X31843996Y-71950499D01*
X31875615Y-71944209D01*
X31985304Y-71922392D01*
X31985694Y-71924357D01*
X32039401Y-71923870D01*
X32039696Y-71922392D01*
X32181002Y-71950499D01*
X32181005Y-71950500D01*
X32181007Y-71950500D01*
X32318995Y-71950500D01*
X32410041Y-71932389D01*
X32454328Y-71923580D01*
X32581811Y-71870775D01*
X32696542Y-71794114D01*
X32794114Y-71696542D01*
X32870775Y-71581811D01*
X32923580Y-71454328D01*
X32950500Y-71318993D01*
X32950500Y-71181007D01*
X32950500Y-71181004D01*
X32923581Y-71045677D01*
X32923580Y-71045676D01*
X32923580Y-71045672D01*
X32923578Y-71045667D01*
X32870778Y-70918195D01*
X32870771Y-70918182D01*
X32794114Y-70803458D01*
X32794111Y-70803454D01*
X32696545Y-70705888D01*
X32696541Y-70705885D01*
X32581817Y-70629228D01*
X32581804Y-70629221D01*
X32454332Y-70576421D01*
X32454322Y-70576418D01*
X32318995Y-70549500D01*
X32318993Y-70549500D01*
X32181007Y-70549500D01*
X32181005Y-70549500D01*
X32039698Y-70577608D01*
X32039307Y-70575644D01*
X31985596Y-70576126D01*
X31985302Y-70577608D01*
X31843995Y-70549500D01*
X31843993Y-70549500D01*
X31706007Y-70549500D01*
X31706005Y-70549500D01*
X31570673Y-70576419D01*
X31570662Y-70576422D01*
X31559949Y-70580860D01*
X31490480Y-70588327D01*
X31465051Y-70580860D01*
X31454337Y-70576422D01*
X31454326Y-70576419D01*
X31318995Y-70549500D01*
X31318993Y-70549500D01*
X31181007Y-70549500D01*
X31181005Y-70549500D01*
X31045677Y-70576418D01*
X31045667Y-70576421D01*
X30918195Y-70629221D01*
X30918182Y-70629228D01*
X30803458Y-70705885D01*
X30803454Y-70705888D01*
X30705888Y-70803454D01*
X30705885Y-70803458D01*
X30629228Y-70918182D01*
X30629221Y-70918195D01*
X30576421Y-71045667D01*
X30576418Y-71045677D01*
X30549500Y-71181004D01*
X30549500Y-71181007D01*
X30549500Y-71318993D01*
X30549500Y-71318995D01*
X30549499Y-71318995D01*
X28521820Y-71318995D01*
X28521820Y-58670943D01*
X30649500Y-58670943D01*
X30649500Y-58829056D01*
X30686704Y-58967907D01*
X30686704Y-59032093D01*
X30649500Y-59170943D01*
X30649500Y-59329056D01*
X30686704Y-59467907D01*
X30686704Y-59532093D01*
X30663496Y-59618709D01*
X30649500Y-59670943D01*
X30649500Y-59829057D01*
X30690085Y-59980520D01*
X30690423Y-59981783D01*
X30690426Y-59981790D01*
X30769475Y-60118709D01*
X30769479Y-60118714D01*
X30769480Y-60118716D01*
X30881284Y-60230520D01*
X30881286Y-60230521D01*
X30881290Y-60230524D01*
X31018209Y-60309573D01*
X31018216Y-60309577D01*
X31170943Y-60350500D01*
X31170945Y-60350500D01*
X31329055Y-60350500D01*
X31329057Y-60350500D01*
X31481784Y-60309577D01*
X31618716Y-60230520D01*
X31730520Y-60118716D01*
X31764489Y-60059876D01*
X31809876Y-60014489D01*
X31868716Y-59980520D01*
X31980520Y-59868716D01*
X32014489Y-59809876D01*
X32059876Y-59764489D01*
X32118716Y-59730520D01*
X32230520Y-59618716D01*
X32309577Y-59481784D01*
X32350500Y-59329057D01*
X32350500Y-59170943D01*
X32309577Y-59018216D01*
X32288543Y-58981784D01*
X32230524Y-58881290D01*
X32230518Y-58881282D01*
X32118717Y-58769481D01*
X32118716Y-58769480D01*
X32059876Y-58735509D01*
X32014488Y-58690120D01*
X31980522Y-58631287D01*
X31980518Y-58631282D01*
X31868717Y-58519481D01*
X31868716Y-58519480D01*
X31809876Y-58485509D01*
X31764488Y-58440120D01*
X31730522Y-58381287D01*
X31730518Y-58381282D01*
X31618717Y-58269481D01*
X31618709Y-58269475D01*
X31481790Y-58190426D01*
X31481786Y-58190424D01*
X31481784Y-58190423D01*
X31329057Y-58149500D01*
X31170943Y-58149500D01*
X31018216Y-58190423D01*
X31018209Y-58190426D01*
X30881290Y-58269475D01*
X30881282Y-58269481D01*
X30769481Y-58381282D01*
X30769475Y-58381290D01*
X30690426Y-58518209D01*
X30690423Y-58518216D01*
X30649500Y-58670943D01*
X28521820Y-58670943D01*
X28521820Y-53818995D01*
X30549499Y-53818995D01*
X30576418Y-53954322D01*
X30576421Y-53954332D01*
X30629221Y-54081804D01*
X30629228Y-54081817D01*
X30705885Y-54196541D01*
X30705888Y-54196545D01*
X30803454Y-54294111D01*
X30803458Y-54294114D01*
X30918182Y-54370771D01*
X30918195Y-54370778D01*
X31042007Y-54422062D01*
X31045672Y-54423580D01*
X31045676Y-54423580D01*
X31045677Y-54423581D01*
X31181004Y-54450500D01*
X31181007Y-54450500D01*
X31318995Y-54450500D01*
X31410041Y-54432389D01*
X31454328Y-54423580D01*
X31454335Y-54423576D01*
X31460155Y-54421812D01*
X31460651Y-54423448D01*
X31522003Y-54416846D01*
X31539769Y-54422062D01*
X31539845Y-54421812D01*
X31545667Y-54423578D01*
X31545672Y-54423580D01*
X31545676Y-54423580D01*
X31545677Y-54423581D01*
X31681004Y-54450500D01*
X31681007Y-54450500D01*
X31818995Y-54450500D01*
X31910041Y-54432389D01*
X31954328Y-54423580D01*
X31954335Y-54423576D01*
X31960155Y-54421812D01*
X31960651Y-54423448D01*
X32022003Y-54416846D01*
X32039769Y-54422062D01*
X32039845Y-54421812D01*
X32045667Y-54423578D01*
X32045672Y-54423580D01*
X32045676Y-54423580D01*
X32045677Y-54423581D01*
X32181004Y-54450500D01*
X32181007Y-54450500D01*
X32318995Y-54450500D01*
X32410041Y-54432389D01*
X32454328Y-54423580D01*
X32581811Y-54370775D01*
X32696542Y-54294114D01*
X32794114Y-54196542D01*
X32870775Y-54081811D01*
X32923580Y-53954328D01*
X32950500Y-53818993D01*
X32950500Y-53681007D01*
X32950500Y-53681004D01*
X32923581Y-53545677D01*
X32923580Y-53545676D01*
X32923580Y-53545672D01*
X32923578Y-53545667D01*
X32870778Y-53418195D01*
X32870771Y-53418182D01*
X32794114Y-53303458D01*
X32794111Y-53303454D01*
X32696545Y-53205888D01*
X32696541Y-53205885D01*
X32581817Y-53129228D01*
X32581804Y-53129221D01*
X32454332Y-53076421D01*
X32454322Y-53076418D01*
X32318995Y-53049500D01*
X32318993Y-53049500D01*
X32181007Y-53049500D01*
X32181005Y-53049500D01*
X32045674Y-53076419D01*
X32039840Y-53078189D01*
X32039344Y-53076555D01*
X31977975Y-53083149D01*
X31960235Y-53077940D01*
X31960160Y-53078189D01*
X31954325Y-53076419D01*
X31818995Y-53049500D01*
X31818993Y-53049500D01*
X31681007Y-53049500D01*
X31681005Y-53049500D01*
X31545674Y-53076419D01*
X31539840Y-53078189D01*
X31539344Y-53076555D01*
X31477975Y-53083149D01*
X31460235Y-53077940D01*
X31460160Y-53078189D01*
X31454325Y-53076419D01*
X31318995Y-53049500D01*
X31318993Y-53049500D01*
X31181007Y-53049500D01*
X31181005Y-53049500D01*
X31045677Y-53076418D01*
X31045667Y-53076421D01*
X30918195Y-53129221D01*
X30918182Y-53129228D01*
X30803458Y-53205885D01*
X30803454Y-53205888D01*
X30705888Y-53303454D01*
X30705885Y-53303458D01*
X30629228Y-53418182D01*
X30629221Y-53418195D01*
X30576421Y-53545667D01*
X30576418Y-53545677D01*
X30549500Y-53681004D01*
X30549500Y-53681007D01*
X30549500Y-53818993D01*
X30549500Y-53818995D01*
X30549499Y-53818995D01*
X28521820Y-53818995D01*
X28521820Y-50568995D01*
X30549499Y-50568995D01*
X30576418Y-50704322D01*
X30576421Y-50704332D01*
X30629221Y-50831804D01*
X30629228Y-50831817D01*
X30705885Y-50946541D01*
X30705888Y-50946545D01*
X30803454Y-51044111D01*
X30803458Y-51044114D01*
X30918182Y-51120771D01*
X30918195Y-51120778D01*
X31042007Y-51172062D01*
X31045672Y-51173580D01*
X31045676Y-51173580D01*
X31045677Y-51173581D01*
X31181004Y-51200500D01*
X31181007Y-51200500D01*
X31318995Y-51200500D01*
X31410041Y-51182389D01*
X31454328Y-51173580D01*
X31454335Y-51173576D01*
X31460155Y-51171812D01*
X31460651Y-51173448D01*
X31522003Y-51166846D01*
X31539769Y-51172062D01*
X31539845Y-51171812D01*
X31545667Y-51173578D01*
X31545672Y-51173580D01*
X31545676Y-51173580D01*
X31545677Y-51173581D01*
X31681004Y-51200500D01*
X31681007Y-51200500D01*
X31818995Y-51200500D01*
X31910041Y-51182389D01*
X31954328Y-51173580D01*
X31954335Y-51173576D01*
X31960155Y-51171812D01*
X31960651Y-51173448D01*
X32022003Y-51166846D01*
X32039769Y-51172062D01*
X32039845Y-51171812D01*
X32045667Y-51173578D01*
X32045672Y-51173580D01*
X32045676Y-51173580D01*
X32045677Y-51173581D01*
X32181004Y-51200500D01*
X32181007Y-51200500D01*
X32318995Y-51200500D01*
X32410041Y-51182389D01*
X32454328Y-51173580D01*
X32581811Y-51120775D01*
X32696542Y-51044114D01*
X32794114Y-50946542D01*
X32870775Y-50831811D01*
X32923580Y-50704328D01*
X32950500Y-50568993D01*
X32950500Y-50431007D01*
X32950500Y-50431004D01*
X32923581Y-50295677D01*
X32923580Y-50295676D01*
X32923580Y-50295672D01*
X32923578Y-50295667D01*
X32870778Y-50168195D01*
X32870771Y-50168182D01*
X32794114Y-50053458D01*
X32794111Y-50053454D01*
X32696545Y-49955888D01*
X32696541Y-49955885D01*
X32581817Y-49879228D01*
X32581804Y-49879221D01*
X32454332Y-49826421D01*
X32454322Y-49826418D01*
X32318995Y-49799500D01*
X32318993Y-49799500D01*
X32181007Y-49799500D01*
X32181005Y-49799500D01*
X32045674Y-49826419D01*
X32039840Y-49828189D01*
X32039344Y-49826555D01*
X31977975Y-49833149D01*
X31960235Y-49827940D01*
X31960160Y-49828189D01*
X31954325Y-49826419D01*
X31818995Y-49799500D01*
X31818993Y-49799500D01*
X31681007Y-49799500D01*
X31681005Y-49799500D01*
X31545674Y-49826419D01*
X31539840Y-49828189D01*
X31539344Y-49826555D01*
X31477975Y-49833149D01*
X31460235Y-49827940D01*
X31460160Y-49828189D01*
X31454325Y-49826419D01*
X31318995Y-49799500D01*
X31318993Y-49799500D01*
X31181007Y-49799500D01*
X31181005Y-49799500D01*
X31045677Y-49826418D01*
X31045667Y-49826421D01*
X30918195Y-49879221D01*
X30918182Y-49879228D01*
X30803458Y-49955885D01*
X30803454Y-49955888D01*
X30705888Y-50053454D01*
X30705885Y-50053458D01*
X30629228Y-50168182D01*
X30629221Y-50168195D01*
X30576421Y-50295667D01*
X30576418Y-50295677D01*
X30549500Y-50431004D01*
X30549500Y-50431007D01*
X30549500Y-50568993D01*
X30549500Y-50568995D01*
X30549499Y-50568995D01*
X28521820Y-50568995D01*
X28521820Y-47068995D01*
X30549499Y-47068995D01*
X30576418Y-47204322D01*
X30576421Y-47204332D01*
X30629221Y-47331804D01*
X30629228Y-47331817D01*
X30705885Y-47446541D01*
X30705888Y-47446545D01*
X30803454Y-47544111D01*
X30803458Y-47544114D01*
X30918182Y-47620771D01*
X30918195Y-47620778D01*
X31042007Y-47672062D01*
X31045672Y-47673580D01*
X31045676Y-47673580D01*
X31045677Y-47673581D01*
X31181004Y-47700500D01*
X31181007Y-47700500D01*
X31318995Y-47700500D01*
X31410041Y-47682389D01*
X31454328Y-47673580D01*
X31454335Y-47673576D01*
X31460155Y-47671812D01*
X31460651Y-47673448D01*
X31522003Y-47666846D01*
X31539769Y-47672062D01*
X31539845Y-47671812D01*
X31545667Y-47673578D01*
X31545672Y-47673580D01*
X31545676Y-47673580D01*
X31545677Y-47673581D01*
X31681004Y-47700500D01*
X31681007Y-47700500D01*
X31818995Y-47700500D01*
X31910041Y-47682389D01*
X31954328Y-47673580D01*
X31954335Y-47673576D01*
X31960155Y-47671812D01*
X31960651Y-47673448D01*
X32022003Y-47666846D01*
X32039769Y-47672062D01*
X32039845Y-47671812D01*
X32045667Y-47673578D01*
X32045672Y-47673580D01*
X32045676Y-47673580D01*
X32045677Y-47673581D01*
X32181004Y-47700500D01*
X32181007Y-47700500D01*
X32318995Y-47700500D01*
X32410041Y-47682389D01*
X32454328Y-47673580D01*
X32581811Y-47620775D01*
X32696542Y-47544114D01*
X32794114Y-47446542D01*
X32870775Y-47331811D01*
X32923580Y-47204328D01*
X32950500Y-47068993D01*
X32950500Y-46931007D01*
X32950500Y-46931004D01*
X32923581Y-46795677D01*
X32923580Y-46795676D01*
X32923580Y-46795672D01*
X32923578Y-46795667D01*
X32870778Y-46668195D01*
X32870771Y-46668182D01*
X32794114Y-46553458D01*
X32794111Y-46553454D01*
X32696545Y-46455888D01*
X32696541Y-46455885D01*
X32581817Y-46379228D01*
X32581804Y-46379221D01*
X32454332Y-46326421D01*
X32454322Y-46326418D01*
X32318995Y-46299500D01*
X32318993Y-46299500D01*
X32181007Y-46299500D01*
X32181005Y-46299500D01*
X32045674Y-46326419D01*
X32039840Y-46328189D01*
X32039344Y-46326555D01*
X31977975Y-46333149D01*
X31960235Y-46327940D01*
X31960160Y-46328189D01*
X31954325Y-46326419D01*
X31818995Y-46299500D01*
X31818993Y-46299500D01*
X31681007Y-46299500D01*
X31681005Y-46299500D01*
X31545674Y-46326419D01*
X31539840Y-46328189D01*
X31539344Y-46326555D01*
X31477975Y-46333149D01*
X31460235Y-46327940D01*
X31460160Y-46328189D01*
X31454325Y-46326419D01*
X31318995Y-46299500D01*
X31318993Y-46299500D01*
X31181007Y-46299500D01*
X31181005Y-46299500D01*
X31045677Y-46326418D01*
X31045667Y-46326421D01*
X30918195Y-46379221D01*
X30918182Y-46379228D01*
X30803458Y-46455885D01*
X30803454Y-46455888D01*
X30705888Y-46553454D01*
X30705885Y-46553458D01*
X30629228Y-46668182D01*
X30629221Y-46668195D01*
X30576421Y-46795667D01*
X30576418Y-46795677D01*
X30549500Y-46931004D01*
X30549500Y-46931007D01*
X30549500Y-47068993D01*
X30549500Y-47068995D01*
X30549499Y-47068995D01*
X28521820Y-47068995D01*
X28521820Y-44944280D01*
X59266524Y-44944280D01*
X59266524Y-54090165D01*
X59301127Y-54264127D01*
X59301129Y-54264135D01*
X59326846Y-54326222D01*
X59326850Y-54326229D01*
X59329162Y-54331811D01*
X59369011Y-54428016D01*
X59425785Y-54512984D01*
X59429199Y-54518093D01*
X59429202Y-54518099D01*
X59467556Y-54575500D01*
X59467562Y-54575508D01*
X61478736Y-56586681D01*
X61512221Y-56648004D01*
X61515055Y-56674362D01*
X61515055Y-60328576D01*
X61495370Y-60395615D01*
X61478736Y-60416257D01*
X59467559Y-62427433D01*
X59467557Y-62427435D01*
X59448551Y-62455883D01*
X59448549Y-62455886D01*
X59369009Y-62574924D01*
X59338206Y-62649290D01*
X59338203Y-62649298D01*
X59335475Y-62655886D01*
X59301129Y-62738803D01*
X59275393Y-62868189D01*
X59274410Y-62873129D01*
X59274409Y-62873134D01*
X59266524Y-62912776D01*
X59266524Y-73090164D01*
X59301127Y-73264127D01*
X59301130Y-73264136D01*
X59369007Y-73428009D01*
X59369014Y-73428022D01*
X59467559Y-73575503D01*
X59467562Y-73575507D01*
X59592985Y-73700930D01*
X59592989Y-73700933D01*
X59740470Y-73799478D01*
X59740483Y-73799485D01*
X59863387Y-73850392D01*
X59904358Y-73867363D01*
X59904360Y-73867363D01*
X59904365Y-73867365D01*
X60078328Y-73901968D01*
X60078331Y-73901969D01*
X60078333Y-73901969D01*
X60255717Y-73901969D01*
X60255718Y-73901968D01*
X60313706Y-73890433D01*
X60429682Y-73867365D01*
X60429685Y-73867363D01*
X60429690Y-73867363D01*
X60593571Y-73799482D01*
X60741059Y-73700933D01*
X60866488Y-73575504D01*
X60965037Y-73428016D01*
X61032918Y-73264135D01*
X61067524Y-73090160D01*
X61067524Y-63911309D01*
X61067524Y-63425831D01*
X61087209Y-63358792D01*
X61103843Y-63338150D01*
X62062772Y-62379221D01*
X63115019Y-61326974D01*
X63154491Y-61267897D01*
X63213568Y-61179485D01*
X63252098Y-61086465D01*
X63281450Y-61015604D01*
X63316055Y-60841630D01*
X63316055Y-60664246D01*
X63316055Y-60574071D01*
X74349499Y-60574071D01*
X74374497Y-60699738D01*
X74374499Y-60699744D01*
X74423533Y-60818124D01*
X74423538Y-60818133D01*
X74494723Y-60924668D01*
X74494726Y-60924672D01*
X74585327Y-61015273D01*
X74585331Y-61015276D01*
X74691866Y-61086461D01*
X74691873Y-61086465D01*
X74810256Y-61135501D01*
X74810260Y-61135501D01*
X74810261Y-61135502D01*
X74935928Y-61160500D01*
X74935931Y-61160500D01*
X75064071Y-61160500D01*
X75148615Y-61143682D01*
X75189744Y-61135501D01*
X75308127Y-61086465D01*
X75414669Y-61015276D01*
X75505276Y-60924669D01*
X75576465Y-60818127D01*
X75625501Y-60699744D01*
X75644839Y-60602528D01*
X75677224Y-60540617D01*
X75678720Y-60539093D01*
X76791523Y-59426289D01*
X76852844Y-59392806D01*
X76854861Y-59392385D01*
X76939744Y-59375501D01*
X77058127Y-59326465D01*
X77164669Y-59255276D01*
X77255276Y-59164669D01*
X77326465Y-59058127D01*
X77375501Y-58939744D01*
X77400500Y-58814069D01*
X77400500Y-58685931D01*
X77400500Y-58685928D01*
X77375502Y-58560261D01*
X77375501Y-58560260D01*
X77375501Y-58560256D01*
X77326465Y-58441873D01*
X77326464Y-58441872D01*
X77326461Y-58441866D01*
X77255276Y-58335331D01*
X77255273Y-58335327D01*
X77164672Y-58244726D01*
X77164668Y-58244723D01*
X77058133Y-58173538D01*
X77058124Y-58173533D01*
X76939744Y-58124499D01*
X76939738Y-58124497D01*
X76814071Y-58099500D01*
X76814069Y-58099500D01*
X76685931Y-58099500D01*
X76685929Y-58099500D01*
X76560261Y-58124497D01*
X76560255Y-58124499D01*
X76441875Y-58173533D01*
X76441866Y-58173538D01*
X76335331Y-58244723D01*
X76335327Y-58244726D01*
X76244726Y-58335327D01*
X76244723Y-58335331D01*
X76173538Y-58441866D01*
X76173533Y-58441875D01*
X76124499Y-58560255D01*
X76124497Y-58560261D01*
X76102677Y-58669955D01*
X76070291Y-58731866D01*
X76068741Y-58733444D01*
X74970961Y-59831224D01*
X74909638Y-59864709D01*
X74907473Y-59865160D01*
X74810260Y-59884497D01*
X74810255Y-59884499D01*
X74691875Y-59933533D01*
X74691866Y-59933538D01*
X74585331Y-60004723D01*
X74585327Y-60004726D01*
X74494726Y-60095327D01*
X74494723Y-60095331D01*
X74423538Y-60201866D01*
X74423533Y-60201875D01*
X74374499Y-60320255D01*
X74374497Y-60320261D01*
X74349500Y-60445928D01*
X74349500Y-60445931D01*
X74349500Y-60574069D01*
X74349500Y-60574071D01*
X74349499Y-60574071D01*
X63316055Y-60574071D01*
X63316055Y-56674362D01*
X63324699Y-56644921D01*
X63331223Y-56614935D01*
X63334977Y-56609919D01*
X63335740Y-56607323D01*
X63352374Y-56586681D01*
X63402236Y-56536819D01*
X63463559Y-56503334D01*
X63489917Y-56500500D01*
X70884397Y-56500500D01*
X70951436Y-56520185D01*
X70997191Y-56572989D01*
X71007135Y-56642147D01*
X70978110Y-56705703D01*
X70946397Y-56731887D01*
X70881287Y-56769477D01*
X70881282Y-56769481D01*
X70769481Y-56881282D01*
X70769475Y-56881290D01*
X70690426Y-57018209D01*
X70690423Y-57018216D01*
X70649500Y-57170943D01*
X70649500Y-57329056D01*
X70690423Y-57481783D01*
X70690426Y-57481790D01*
X70769475Y-57618709D01*
X70769479Y-57618714D01*
X70769480Y-57618716D01*
X70881284Y-57730520D01*
X70881286Y-57730521D01*
X70881290Y-57730524D01*
X71018209Y-57809573D01*
X71018216Y-57809577D01*
X71170943Y-57850500D01*
X71170945Y-57850500D01*
X71329055Y-57850500D01*
X71329057Y-57850500D01*
X71481784Y-57809577D01*
X71618716Y-57730520D01*
X71730520Y-57618716D01*
X71809577Y-57481784D01*
X71850500Y-57329057D01*
X71850500Y-57170943D01*
X71809577Y-57018216D01*
X71809573Y-57018209D01*
X71730524Y-56881290D01*
X71730518Y-56881282D01*
X71618717Y-56769481D01*
X71618712Y-56769477D01*
X71553603Y-56731887D01*
X71505388Y-56681321D01*
X71492164Y-56612714D01*
X71518132Y-56547849D01*
X71575046Y-56507320D01*
X71615603Y-56500500D01*
X79925638Y-56500500D01*
X79992677Y-56520185D01*
X80013319Y-56536819D01*
X80263181Y-56786681D01*
X80296666Y-56848004D01*
X80299500Y-56874362D01*
X80299500Y-60068993D01*
X80299500Y-60068995D01*
X80299499Y-60068995D01*
X80326418Y-60204322D01*
X80326421Y-60204332D01*
X80379221Y-60331804D01*
X80379228Y-60331817D01*
X80455885Y-60446541D01*
X80455888Y-60446545D01*
X80553454Y-60544111D01*
X80553458Y-60544114D01*
X80668182Y-60620771D01*
X80668195Y-60620778D01*
X80795667Y-60673578D01*
X80795672Y-60673580D01*
X80795676Y-60673580D01*
X80795677Y-60673581D01*
X80931004Y-60700500D01*
X80931007Y-60700500D01*
X81068995Y-60700500D01*
X81160041Y-60682389D01*
X81204328Y-60673580D01*
X81331811Y-60620775D01*
X81446542Y-60544114D01*
X81544114Y-60446542D01*
X81620775Y-60331811D01*
X81673580Y-60204328D01*
X81690609Y-60118717D01*
X81700500Y-60068995D01*
X81700500Y-56860100D01*
X81720185Y-56793061D01*
X81721398Y-56791209D01*
X81798013Y-56676547D01*
X81865895Y-56512666D01*
X81900500Y-56338692D01*
X81900500Y-56161308D01*
X81882138Y-56068995D01*
X87299499Y-56068995D01*
X87326418Y-56204322D01*
X87326421Y-56204332D01*
X87379221Y-56331804D01*
X87379228Y-56331817D01*
X87455885Y-56446541D01*
X87455888Y-56446545D01*
X87553454Y-56544111D01*
X87553458Y-56544114D01*
X87668182Y-56620771D01*
X87668195Y-56620778D01*
X87795667Y-56673578D01*
X87795672Y-56673580D01*
X87795676Y-56673580D01*
X87795677Y-56673581D01*
X87931004Y-56700500D01*
X87931007Y-56700500D01*
X88068995Y-56700500D01*
X88165412Y-56681321D01*
X88204328Y-56673580D01*
X88302924Y-56632740D01*
X88331804Y-56620778D01*
X88331804Y-56620777D01*
X88331811Y-56620775D01*
X88446542Y-56544114D01*
X88544114Y-56446542D01*
X88620775Y-56331811D01*
X88673580Y-56204328D01*
X88700500Y-56068993D01*
X88700500Y-55931007D01*
X88700500Y-55931004D01*
X88673581Y-55795677D01*
X88673580Y-55795676D01*
X88673580Y-55795672D01*
X88624638Y-55677514D01*
X88620778Y-55668195D01*
X88620771Y-55668182D01*
X88544114Y-55553458D01*
X88544111Y-55553454D01*
X88446545Y-55455888D01*
X88446541Y-55455885D01*
X88331817Y-55379228D01*
X88331804Y-55379221D01*
X88204332Y-55326421D01*
X88204322Y-55326418D01*
X88068995Y-55299500D01*
X88068993Y-55299500D01*
X87931007Y-55299500D01*
X87931005Y-55299500D01*
X87795677Y-55326418D01*
X87795667Y-55326421D01*
X87668195Y-55379221D01*
X87668182Y-55379228D01*
X87553458Y-55455885D01*
X87553454Y-55455888D01*
X87455888Y-55553454D01*
X87455885Y-55553458D01*
X87379228Y-55668182D01*
X87379221Y-55668195D01*
X87326421Y-55795667D01*
X87326418Y-55795677D01*
X87299500Y-55931004D01*
X87299500Y-55931007D01*
X87299500Y-56068993D01*
X87299500Y-56068995D01*
X87299499Y-56068995D01*
X81882138Y-56068995D01*
X81865895Y-55987334D01*
X81798013Y-55823454D01*
X81757438Y-55762729D01*
X81721397Y-55708788D01*
X81700520Y-55642110D01*
X81700500Y-55639898D01*
X81700500Y-54068995D01*
X87299499Y-54068995D01*
X87326418Y-54204322D01*
X87326421Y-54204332D01*
X87379221Y-54331804D01*
X87379228Y-54331817D01*
X87455885Y-54446541D01*
X87455888Y-54446545D01*
X87553454Y-54544111D01*
X87553458Y-54544114D01*
X87668182Y-54620771D01*
X87668195Y-54620778D01*
X87795667Y-54673578D01*
X87795672Y-54673580D01*
X87795676Y-54673580D01*
X87795677Y-54673581D01*
X87931004Y-54700500D01*
X87931007Y-54700500D01*
X88068995Y-54700500D01*
X88160041Y-54682389D01*
X88204328Y-54673580D01*
X88331811Y-54620775D01*
X88446542Y-54544114D01*
X88544114Y-54446542D01*
X88620775Y-54331811D01*
X88673580Y-54204328D01*
X88696289Y-54090165D01*
X88700500Y-54068995D01*
X88700500Y-53931004D01*
X88673581Y-53795677D01*
X88673580Y-53795676D01*
X88673580Y-53795672D01*
X88673578Y-53795667D01*
X88620778Y-53668195D01*
X88620771Y-53668182D01*
X88544114Y-53553458D01*
X88544111Y-53553454D01*
X88446545Y-53455888D01*
X88446541Y-53455885D01*
X88331817Y-53379228D01*
X88331804Y-53379221D01*
X88204332Y-53326421D01*
X88204322Y-53326418D01*
X88068995Y-53299500D01*
X88068993Y-53299500D01*
X87931007Y-53299500D01*
X87931005Y-53299500D01*
X87795677Y-53326418D01*
X87795667Y-53326421D01*
X87668195Y-53379221D01*
X87668182Y-53379228D01*
X87553458Y-53455885D01*
X87553454Y-53455888D01*
X87455888Y-53553454D01*
X87455885Y-53553458D01*
X87379228Y-53668182D01*
X87379221Y-53668195D01*
X87326421Y-53795667D01*
X87326418Y-53795677D01*
X87299500Y-53931004D01*
X87299500Y-53931007D01*
X87299500Y-54068993D01*
X87299500Y-54068995D01*
X87299499Y-54068995D01*
X81700500Y-54068995D01*
X81700500Y-53931004D01*
X81673581Y-53795677D01*
X81673580Y-53795676D01*
X81673580Y-53795672D01*
X81673578Y-53795667D01*
X81620778Y-53668195D01*
X81620771Y-53668182D01*
X81544114Y-53553458D01*
X81544111Y-53553454D01*
X81446545Y-53455888D01*
X81446541Y-53455885D01*
X81331817Y-53379228D01*
X81331804Y-53379221D01*
X81204332Y-53326421D01*
X81204322Y-53326418D01*
X81068995Y-53299500D01*
X81068993Y-53299500D01*
X80931007Y-53299500D01*
X80931005Y-53299500D01*
X80795677Y-53326418D01*
X80795667Y-53326421D01*
X80668195Y-53379221D01*
X80668182Y-53379228D01*
X80553458Y-53455885D01*
X80553454Y-53455888D01*
X80455888Y-53553454D01*
X80455885Y-53553458D01*
X80379228Y-53668182D01*
X80379221Y-53668195D01*
X80326421Y-53795667D01*
X80326418Y-53795677D01*
X80299500Y-53931004D01*
X80299500Y-54575500D01*
X80279815Y-54642539D01*
X80227011Y-54688294D01*
X80175500Y-54699500D01*
X62976858Y-54699500D01*
X62802894Y-54734103D01*
X62802878Y-54734108D01*
X62687008Y-54782102D01*
X62687009Y-54782103D01*
X62639008Y-54801987D01*
X62565263Y-54851262D01*
X62486454Y-54903920D01*
X62485109Y-54901907D01*
X62430602Y-54925038D01*
X62361738Y-54913225D01*
X62328603Y-54889548D01*
X61103843Y-53664788D01*
X61070358Y-53603465D01*
X61067524Y-53577107D01*
X61067524Y-51064071D01*
X74849499Y-51064071D01*
X74874497Y-51189738D01*
X74874499Y-51189744D01*
X74923533Y-51308124D01*
X74923538Y-51308133D01*
X74994723Y-51414668D01*
X74994726Y-51414672D01*
X75085327Y-51505273D01*
X75085331Y-51505276D01*
X75191866Y-51576461D01*
X75191872Y-51576464D01*
X75191873Y-51576465D01*
X75310256Y-51625501D01*
X75310260Y-51625501D01*
X75310261Y-51625502D01*
X75435928Y-51650500D01*
X75435931Y-51650500D01*
X75564071Y-51650500D01*
X75648615Y-51633682D01*
X75689744Y-51625501D01*
X75808127Y-51576465D01*
X75914669Y-51505276D01*
X76005276Y-51414669D01*
X76076465Y-51308127D01*
X76125501Y-51189744D01*
X76150500Y-51064069D01*
X76150500Y-50935931D01*
X76150500Y-50935928D01*
X76125502Y-50810261D01*
X76125501Y-50810260D01*
X76125501Y-50810256D01*
X76076465Y-50691873D01*
X76076464Y-50691872D01*
X76076461Y-50691866D01*
X76005276Y-50585331D01*
X76005273Y-50585327D01*
X75914672Y-50494726D01*
X75914668Y-50494723D01*
X75808133Y-50423538D01*
X75808124Y-50423533D01*
X75689744Y-50374499D01*
X75689738Y-50374497D01*
X75564071Y-50349500D01*
X75564069Y-50349500D01*
X75435931Y-50349500D01*
X75435929Y-50349500D01*
X75310261Y-50374497D01*
X75310255Y-50374499D01*
X75191875Y-50423533D01*
X75191866Y-50423538D01*
X75085331Y-50494723D01*
X75085327Y-50494726D01*
X74994726Y-50585327D01*
X74994723Y-50585331D01*
X74923538Y-50691866D01*
X74923533Y-50691875D01*
X74874499Y-50810255D01*
X74874497Y-50810261D01*
X74849500Y-50935928D01*
X74849500Y-50935931D01*
X74849500Y-51064069D01*
X74849500Y-51064071D01*
X74849499Y-51064071D01*
X61067524Y-51064071D01*
X61067524Y-44944282D01*
X61067523Y-44944280D01*
X61032920Y-44770317D01*
X61032917Y-44770308D01*
X60965040Y-44606435D01*
X60965033Y-44606422D01*
X60866488Y-44458941D01*
X60866485Y-44458937D01*
X60741062Y-44333514D01*
X60741058Y-44333511D01*
X60593577Y-44234966D01*
X60593564Y-44234959D01*
X60429691Y-44167082D01*
X60429682Y-44167079D01*
X60255718Y-44132476D01*
X60255715Y-44132476D01*
X60078333Y-44132476D01*
X60078330Y-44132476D01*
X59904365Y-44167079D01*
X59904356Y-44167082D01*
X59740483Y-44234959D01*
X59740470Y-44234966D01*
X59592989Y-44333511D01*
X59592985Y-44333514D01*
X59467562Y-44458937D01*
X59467559Y-44458941D01*
X59369014Y-44606422D01*
X59369007Y-44606435D01*
X59301130Y-44770308D01*
X59301127Y-44770317D01*
X59266524Y-44944280D01*
X28521820Y-44944280D01*
X28521820Y-36381902D01*
X29999500Y-36381902D01*
X29999500Y-36618097D01*
X30036446Y-36851368D01*
X30109433Y-37075996D01*
X30208269Y-37269970D01*
X30216657Y-37286433D01*
X30355483Y-37477510D01*
X30522490Y-37644517D01*
X30713567Y-37783343D01*
X30812991Y-37834002D01*
X30924003Y-37890566D01*
X30924005Y-37890566D01*
X30924008Y-37890568D01*
X31044412Y-37929689D01*
X31148631Y-37963553D01*
X31381903Y-38000500D01*
X31381908Y-38000500D01*
X31618097Y-38000500D01*
X31851368Y-37963553D01*
X32075992Y-37890568D01*
X32286433Y-37783343D01*
X32477510Y-37644517D01*
X32644517Y-37477510D01*
X32783343Y-37286433D01*
X32890568Y-37075992D01*
X32963553Y-36851368D01*
X32972295Y-36796172D01*
X33000500Y-36618097D01*
X33000500Y-36381902D01*
X32963553Y-36148631D01*
X32890566Y-35924003D01*
X32790452Y-35727520D01*
X32783343Y-35713567D01*
X32644517Y-35522490D01*
X32477510Y-35355483D01*
X32286433Y-35216657D01*
X32286434Y-35216657D01*
X32286432Y-35216656D01*
X32080204Y-35111577D01*
X35249500Y-35111577D01*
X35249500Y-35308422D01*
X35280290Y-35502826D01*
X35341117Y-35690029D01*
X35422296Y-35849351D01*
X35430476Y-35865405D01*
X35546172Y-36024646D01*
X35685354Y-36163828D01*
X35838621Y-36275184D01*
X35881285Y-36330512D01*
X35887264Y-36400125D01*
X35854658Y-36461920D01*
X35793819Y-36496278D01*
X35765735Y-36499500D01*
X35618482Y-36499500D01*
X35537519Y-36512323D01*
X35524696Y-36514354D01*
X35411658Y-36571950D01*
X35411657Y-36571951D01*
X35411652Y-36571954D01*
X35321954Y-36661652D01*
X35321951Y-36661657D01*
X35264352Y-36774698D01*
X35249500Y-36868475D01*
X35249500Y-38631517D01*
X35260292Y-38699657D01*
X35264354Y-38725304D01*
X35321950Y-38838342D01*
X35321952Y-38838344D01*
X35321954Y-38838347D01*
X35411652Y-38928045D01*
X35411654Y-38928046D01*
X35411658Y-38928050D01*
X35524694Y-38985645D01*
X35524698Y-38985647D01*
X35618475Y-39000499D01*
X35618481Y-39000500D01*
X37381518Y-39000499D01*
X37475304Y-38985646D01*
X37588342Y-38928050D01*
X37678050Y-38838342D01*
X37735646Y-38725304D01*
X37735646Y-38725302D01*
X37735647Y-38725301D01*
X37750499Y-38631524D01*
X37750500Y-38631519D01*
X37750499Y-38484263D01*
X37770183Y-38417227D01*
X37822987Y-38371472D01*
X37892145Y-38361528D01*
X37955701Y-38390553D01*
X37974817Y-38411380D01*
X38086172Y-38564646D01*
X38225354Y-38703828D01*
X38384595Y-38819524D01*
X38467455Y-38861743D01*
X38559970Y-38908882D01*
X38559972Y-38908882D01*
X38559975Y-38908884D01*
X38618962Y-38928050D01*
X38747173Y-38969709D01*
X38941578Y-39000500D01*
X38941583Y-39000500D01*
X39138422Y-39000500D01*
X39332826Y-38969709D01*
X39520025Y-38908884D01*
X39695405Y-38819524D01*
X39854646Y-38703828D01*
X39993828Y-38564646D01*
X40109524Y-38405405D01*
X40198884Y-38230025D01*
X40199515Y-38228787D01*
X40247489Y-38177990D01*
X40315310Y-38161195D01*
X40381445Y-38183732D01*
X40420485Y-38228787D01*
X40510474Y-38405403D01*
X40514817Y-38411380D01*
X40626172Y-38564646D01*
X40765354Y-38703828D01*
X40924595Y-38819524D01*
X41007455Y-38861743D01*
X41099970Y-38908882D01*
X41099972Y-38908882D01*
X41099975Y-38908884D01*
X41158962Y-38928050D01*
X41287173Y-38969709D01*
X41481578Y-39000500D01*
X41481583Y-39000500D01*
X41678422Y-39000500D01*
X41872826Y-38969709D01*
X42060025Y-38908884D01*
X42235405Y-38819524D01*
X42394646Y-38703828D01*
X42533828Y-38564646D01*
X42649524Y-38405405D01*
X42738884Y-38230025D01*
X42739515Y-38228787D01*
X42787489Y-38177990D01*
X42855310Y-38161195D01*
X42921445Y-38183732D01*
X42960485Y-38228787D01*
X43050474Y-38405403D01*
X43054817Y-38411380D01*
X43166172Y-38564646D01*
X43305354Y-38703828D01*
X43464595Y-38819524D01*
X43547455Y-38861743D01*
X43639970Y-38908882D01*
X43639972Y-38908882D01*
X43639975Y-38908884D01*
X43698962Y-38928050D01*
X43827173Y-38969709D01*
X44021578Y-39000500D01*
X44021583Y-39000500D01*
X44218422Y-39000500D01*
X44412826Y-38969709D01*
X44600025Y-38908884D01*
X44775405Y-38819524D01*
X44934646Y-38703828D01*
X45073828Y-38564646D01*
X45189524Y-38405405D01*
X45278884Y-38230025D01*
X45339709Y-38042826D01*
X45346413Y-38000500D01*
X45370500Y-37848422D01*
X45370500Y-37651577D01*
X45339709Y-37457173D01*
X45293925Y-37316267D01*
X45278884Y-37269975D01*
X45278882Y-37269972D01*
X45278882Y-37269970D01*
X45189523Y-37094594D01*
X45176008Y-37075992D01*
X45073828Y-36935354D01*
X44934646Y-36796172D01*
X44855025Y-36738324D01*
X44775403Y-36680474D01*
X44598787Y-36590485D01*
X44547990Y-36542511D01*
X44531195Y-36474690D01*
X44553732Y-36408555D01*
X44598787Y-36369515D01*
X44775403Y-36279525D01*
X44775402Y-36279525D01*
X44775405Y-36279524D01*
X44934646Y-36163828D01*
X45073828Y-36024646D01*
X45189524Y-35865405D01*
X45259777Y-35727525D01*
X45279515Y-35688787D01*
X45327489Y-35637990D01*
X45395310Y-35621195D01*
X45461445Y-35643732D01*
X45500485Y-35688787D01*
X45590474Y-35865403D01*
X45625234Y-35913246D01*
X45706172Y-36024646D01*
X45845354Y-36163828D01*
X46004595Y-36279524D01*
X46033589Y-36294297D01*
X46179970Y-36368882D01*
X46179972Y-36368882D01*
X46179975Y-36368884D01*
X46220059Y-36381908D01*
X46367173Y-36429709D01*
X46561578Y-36460500D01*
X46561583Y-36460500D01*
X46758422Y-36460500D01*
X46952826Y-36429709D01*
X47140025Y-36368884D01*
X47315405Y-36279524D01*
X47474646Y-36163828D01*
X47613828Y-36024646D01*
X47729524Y-35865405D01*
X47799777Y-35727525D01*
X47819515Y-35688787D01*
X47867489Y-35637990D01*
X47935310Y-35621195D01*
X48001445Y-35643732D01*
X48040485Y-35688787D01*
X48130474Y-35865403D01*
X48165234Y-35913246D01*
X48246172Y-36024646D01*
X48385354Y-36163828D01*
X48544595Y-36279524D01*
X48644665Y-36330512D01*
X48721213Y-36369515D01*
X48772009Y-36417489D01*
X48788804Y-36485310D01*
X48766267Y-36551445D01*
X48721213Y-36590485D01*
X48544594Y-36680476D01*
X48453741Y-36746485D01*
X48385354Y-36796172D01*
X48385352Y-36796174D01*
X48385351Y-36796174D01*
X48246174Y-36935351D01*
X48246174Y-36935352D01*
X48246172Y-36935354D01*
X48196485Y-37003741D01*
X48130476Y-37094594D01*
X48041117Y-37269970D01*
X47980290Y-37457173D01*
X47949500Y-37651577D01*
X47949500Y-37848422D01*
X47980290Y-38042826D01*
X48041117Y-38230029D01*
X48130475Y-38405403D01*
X48130476Y-38405405D01*
X48246172Y-38564646D01*
X48385354Y-38703828D01*
X48544595Y-38819524D01*
X48627455Y-38861743D01*
X48719970Y-38908882D01*
X48719972Y-38908882D01*
X48719975Y-38908884D01*
X48778962Y-38928050D01*
X48907173Y-38969709D01*
X49101578Y-39000500D01*
X49101583Y-39000500D01*
X49298422Y-39000500D01*
X49492826Y-38969709D01*
X49680025Y-38908884D01*
X49855405Y-38819524D01*
X50014646Y-38703828D01*
X50153828Y-38564646D01*
X50269524Y-38405405D01*
X50358884Y-38230025D01*
X50359515Y-38228787D01*
X50407489Y-38177990D01*
X50475310Y-38161195D01*
X50541445Y-38183732D01*
X50580485Y-38228787D01*
X50670474Y-38405403D01*
X50674817Y-38411380D01*
X50786172Y-38564646D01*
X50925354Y-38703828D01*
X51084595Y-38819524D01*
X51167455Y-38861743D01*
X51259970Y-38908882D01*
X51259972Y-38908882D01*
X51259975Y-38908884D01*
X51318962Y-38928050D01*
X51447173Y-38969709D01*
X51641578Y-39000500D01*
X51641583Y-39000500D01*
X51838422Y-39000500D01*
X52032826Y-38969709D01*
X52220025Y-38908884D01*
X52395405Y-38819524D01*
X52554646Y-38703828D01*
X52693828Y-38564646D01*
X52809524Y-38405405D01*
X52898884Y-38230025D01*
X52899515Y-38228787D01*
X52947489Y-38177990D01*
X53015310Y-38161195D01*
X53081445Y-38183732D01*
X53120485Y-38228787D01*
X53210474Y-38405403D01*
X53214817Y-38411380D01*
X53326172Y-38564646D01*
X53465354Y-38703828D01*
X53624595Y-38819524D01*
X53707455Y-38861743D01*
X53799970Y-38908882D01*
X53799972Y-38908882D01*
X53799975Y-38908884D01*
X53858962Y-38928050D01*
X53987173Y-38969709D01*
X54181578Y-39000500D01*
X54181583Y-39000500D01*
X54378422Y-39000500D01*
X54572826Y-38969709D01*
X54760025Y-38908884D01*
X54935405Y-38819524D01*
X55094646Y-38703828D01*
X55233828Y-38564646D01*
X55349524Y-38405405D01*
X55438884Y-38230025D01*
X55439515Y-38228787D01*
X55487489Y-38177990D01*
X55555310Y-38161195D01*
X55621445Y-38183732D01*
X55660485Y-38228787D01*
X55750474Y-38405403D01*
X55754817Y-38411380D01*
X55866172Y-38564646D01*
X56005354Y-38703828D01*
X56164595Y-38819524D01*
X56247455Y-38861743D01*
X56339970Y-38908882D01*
X56339972Y-38908882D01*
X56339975Y-38908884D01*
X56398962Y-38928050D01*
X56527173Y-38969709D01*
X56721578Y-39000500D01*
X56721583Y-39000500D01*
X56918422Y-39000500D01*
X57112826Y-38969709D01*
X57300025Y-38908884D01*
X57475405Y-38819524D01*
X57634646Y-38703828D01*
X57773828Y-38564646D01*
X57889524Y-38405405D01*
X57978884Y-38230025D01*
X57979515Y-38228787D01*
X58027489Y-38177990D01*
X58095310Y-38161195D01*
X58161445Y-38183732D01*
X58200485Y-38228787D01*
X58290474Y-38405403D01*
X58294817Y-38411380D01*
X58406172Y-38564646D01*
X58545354Y-38703828D01*
X58704595Y-38819524D01*
X58787455Y-38861743D01*
X58879970Y-38908882D01*
X58879972Y-38908882D01*
X58879975Y-38908884D01*
X58938962Y-38928050D01*
X59067173Y-38969709D01*
X59261578Y-39000500D01*
X59261583Y-39000500D01*
X59458422Y-39000500D01*
X59652826Y-38969709D01*
X59840025Y-38908884D01*
X60015405Y-38819524D01*
X60174646Y-38703828D01*
X60313828Y-38564646D01*
X60429524Y-38405405D01*
X60518884Y-38230025D01*
X60519515Y-38228787D01*
X60567489Y-38177990D01*
X60635310Y-38161195D01*
X60701445Y-38183732D01*
X60740485Y-38228787D01*
X60830474Y-38405403D01*
X60834817Y-38411380D01*
X60946172Y-38564646D01*
X61085354Y-38703828D01*
X61244595Y-38819524D01*
X61327455Y-38861743D01*
X61419970Y-38908882D01*
X61419972Y-38908882D01*
X61419975Y-38908884D01*
X61478962Y-38928050D01*
X61607173Y-38969709D01*
X61801578Y-39000500D01*
X61801583Y-39000500D01*
X61998422Y-39000500D01*
X62192826Y-38969709D01*
X62380025Y-38908884D01*
X62555405Y-38819524D01*
X62714646Y-38703828D01*
X62853828Y-38564646D01*
X62969524Y-38405405D01*
X63058884Y-38230025D01*
X63059515Y-38228787D01*
X63107489Y-38177990D01*
X63175310Y-38161195D01*
X63241445Y-38183732D01*
X63280485Y-38228787D01*
X63370474Y-38405403D01*
X63374817Y-38411380D01*
X63486172Y-38564646D01*
X63625354Y-38703828D01*
X63784595Y-38819524D01*
X63867455Y-38861743D01*
X63959970Y-38908882D01*
X63959972Y-38908882D01*
X63959975Y-38908884D01*
X64018962Y-38928050D01*
X64147173Y-38969709D01*
X64341578Y-39000500D01*
X64341583Y-39000500D01*
X64538422Y-39000500D01*
X64732826Y-38969709D01*
X64920025Y-38908884D01*
X65095405Y-38819524D01*
X65254646Y-38703828D01*
X65393828Y-38564646D01*
X65509524Y-38405405D01*
X65598884Y-38230025D01*
X65659709Y-38042826D01*
X65666413Y-38000500D01*
X65690500Y-37848422D01*
X65690500Y-37651577D01*
X65659709Y-37457173D01*
X65613925Y-37316267D01*
X65598884Y-37269975D01*
X65598882Y-37269972D01*
X65598882Y-37269970D01*
X65509523Y-37094594D01*
X65496008Y-37075992D01*
X65393828Y-36935354D01*
X65254646Y-36796172D01*
X65175025Y-36738324D01*
X65095403Y-36680474D01*
X64918787Y-36590485D01*
X64867990Y-36542511D01*
X64851195Y-36474690D01*
X64873732Y-36408555D01*
X64918787Y-36369515D01*
X65095403Y-36279525D01*
X65095402Y-36279525D01*
X65095405Y-36279524D01*
X65254646Y-36163828D01*
X65393828Y-36024646D01*
X65509524Y-35865405D01*
X65579777Y-35727525D01*
X65599515Y-35688787D01*
X65647489Y-35637990D01*
X65715310Y-35621195D01*
X65781445Y-35643732D01*
X65820485Y-35688787D01*
X65910474Y-35865403D01*
X65945234Y-35913246D01*
X66026172Y-36024646D01*
X66165354Y-36163828D01*
X66324595Y-36279524D01*
X66353589Y-36294297D01*
X66499970Y-36368882D01*
X66499972Y-36368882D01*
X66499975Y-36368884D01*
X66540059Y-36381908D01*
X66687173Y-36429709D01*
X66881578Y-36460500D01*
X66881583Y-36460500D01*
X67078422Y-36460500D01*
X67272826Y-36429709D01*
X67460025Y-36368884D01*
X67635405Y-36279524D01*
X67794646Y-36163828D01*
X67933828Y-36024646D01*
X68049524Y-35865405D01*
X68119777Y-35727525D01*
X68139515Y-35688787D01*
X68187489Y-35637990D01*
X68255310Y-35621195D01*
X68321445Y-35643732D01*
X68360485Y-35688787D01*
X68450474Y-35865403D01*
X68485234Y-35913246D01*
X68566172Y-36024646D01*
X68705354Y-36163828D01*
X68864595Y-36279524D01*
X68964665Y-36330512D01*
X69041213Y-36369515D01*
X69092009Y-36417489D01*
X69108804Y-36485310D01*
X69086267Y-36551445D01*
X69041213Y-36590485D01*
X68864594Y-36680476D01*
X68773741Y-36746485D01*
X68705354Y-36796172D01*
X68705352Y-36796174D01*
X68705351Y-36796174D01*
X68566174Y-36935351D01*
X68566174Y-36935352D01*
X68566172Y-36935354D01*
X68516485Y-37003741D01*
X68450476Y-37094594D01*
X68361117Y-37269970D01*
X68300290Y-37457173D01*
X68269500Y-37651577D01*
X68269500Y-37848422D01*
X68300290Y-38042826D01*
X68361117Y-38230029D01*
X68450475Y-38405403D01*
X68450476Y-38405405D01*
X68566172Y-38564646D01*
X68705354Y-38703828D01*
X68864595Y-38819524D01*
X68947455Y-38861743D01*
X69039970Y-38908882D01*
X69039972Y-38908882D01*
X69039975Y-38908884D01*
X69098962Y-38928050D01*
X69227173Y-38969709D01*
X69421578Y-39000500D01*
X69421583Y-39000500D01*
X69618422Y-39000500D01*
X69812826Y-38969709D01*
X70000025Y-38908884D01*
X70175405Y-38819524D01*
X70334646Y-38703828D01*
X70473828Y-38564646D01*
X70589524Y-38405405D01*
X70678884Y-38230025D01*
X70679515Y-38228787D01*
X70727489Y-38177990D01*
X70795310Y-38161195D01*
X70861445Y-38183732D01*
X70900485Y-38228787D01*
X70990474Y-38405403D01*
X70994817Y-38411380D01*
X71106172Y-38564646D01*
X71245354Y-38703828D01*
X71404595Y-38819524D01*
X71487455Y-38861743D01*
X71579970Y-38908882D01*
X71579972Y-38908882D01*
X71579975Y-38908884D01*
X71638962Y-38928050D01*
X71767173Y-38969709D01*
X71961578Y-39000500D01*
X71961583Y-39000500D01*
X72158422Y-39000500D01*
X72352826Y-38969709D01*
X72540025Y-38908884D01*
X72715405Y-38819524D01*
X72874646Y-38703828D01*
X73013828Y-38564646D01*
X73129524Y-38405405D01*
X73218884Y-38230025D01*
X73219515Y-38228787D01*
X73267489Y-38177990D01*
X73335310Y-38161195D01*
X73401445Y-38183732D01*
X73440485Y-38228787D01*
X73530474Y-38405403D01*
X73534817Y-38411380D01*
X73646172Y-38564646D01*
X73785354Y-38703828D01*
X73944595Y-38819524D01*
X74027455Y-38861743D01*
X74119970Y-38908882D01*
X74119972Y-38908882D01*
X74119975Y-38908884D01*
X74178962Y-38928050D01*
X74307173Y-38969709D01*
X74501578Y-39000500D01*
X74501583Y-39000500D01*
X74698422Y-39000500D01*
X74892826Y-38969709D01*
X75080025Y-38908884D01*
X75255405Y-38819524D01*
X75414646Y-38703828D01*
X75553828Y-38564646D01*
X75669524Y-38405405D01*
X75758884Y-38230025D01*
X75759515Y-38228787D01*
X75807489Y-38177990D01*
X75875310Y-38161195D01*
X75941445Y-38183732D01*
X75980485Y-38228787D01*
X76070474Y-38405403D01*
X76074817Y-38411380D01*
X76186172Y-38564646D01*
X76325354Y-38703828D01*
X76484595Y-38819524D01*
X76567455Y-38861743D01*
X76659970Y-38908882D01*
X76659972Y-38908882D01*
X76659975Y-38908884D01*
X76718962Y-38928050D01*
X76847173Y-38969709D01*
X77041578Y-39000500D01*
X77041583Y-39000500D01*
X77238422Y-39000500D01*
X77432826Y-38969709D01*
X77620025Y-38908884D01*
X77795405Y-38819524D01*
X77954646Y-38703828D01*
X78093828Y-38564646D01*
X78209524Y-38405405D01*
X78298884Y-38230025D01*
X78299515Y-38228787D01*
X78347489Y-38177990D01*
X78415310Y-38161195D01*
X78481445Y-38183732D01*
X78520485Y-38228787D01*
X78610474Y-38405403D01*
X78614817Y-38411380D01*
X78726172Y-38564646D01*
X78865354Y-38703828D01*
X79024595Y-38819524D01*
X79107455Y-38861743D01*
X79199970Y-38908882D01*
X79199972Y-38908882D01*
X79199975Y-38908884D01*
X79258962Y-38928050D01*
X79387173Y-38969709D01*
X79581578Y-39000500D01*
X79581583Y-39000500D01*
X79778422Y-39000500D01*
X79972826Y-38969709D01*
X80160025Y-38908884D01*
X80335405Y-38819524D01*
X80494646Y-38703828D01*
X80633828Y-38564646D01*
X80749524Y-38405405D01*
X80838884Y-38230025D01*
X80839515Y-38228787D01*
X80887489Y-38177990D01*
X80955310Y-38161195D01*
X81021445Y-38183732D01*
X81060485Y-38228787D01*
X81150474Y-38405403D01*
X81154817Y-38411380D01*
X81266172Y-38564646D01*
X81405354Y-38703828D01*
X81564595Y-38819524D01*
X81647455Y-38861743D01*
X81739970Y-38908882D01*
X81739972Y-38908882D01*
X81739975Y-38908884D01*
X81798962Y-38928050D01*
X81927173Y-38969709D01*
X82121578Y-39000500D01*
X82121583Y-39000500D01*
X82318422Y-39000500D01*
X82512826Y-38969709D01*
X82700025Y-38908884D01*
X82875405Y-38819524D01*
X83034646Y-38703828D01*
X83173828Y-38564646D01*
X83289524Y-38405405D01*
X83378884Y-38230025D01*
X83439709Y-38042826D01*
X83446413Y-38000500D01*
X83470500Y-37848422D01*
X83470500Y-37651577D01*
X83439709Y-37457173D01*
X83393925Y-37316267D01*
X83378884Y-37269975D01*
X83378882Y-37269972D01*
X83378882Y-37269970D01*
X83289523Y-37094594D01*
X83276008Y-37075992D01*
X83173828Y-36935354D01*
X83034646Y-36796172D01*
X82955025Y-36738324D01*
X82875403Y-36680474D01*
X82698787Y-36590485D01*
X82647990Y-36542511D01*
X82631195Y-36474690D01*
X82653732Y-36408555D01*
X82698787Y-36369515D01*
X82875403Y-36279525D01*
X82875402Y-36279525D01*
X82875405Y-36279524D01*
X83034646Y-36163828D01*
X83173828Y-36024646D01*
X83289524Y-35865405D01*
X83359777Y-35727525D01*
X83379515Y-35688787D01*
X83427489Y-35637990D01*
X83495310Y-35621195D01*
X83561445Y-35643732D01*
X83600485Y-35688787D01*
X83690474Y-35865403D01*
X83725234Y-35913246D01*
X83806172Y-36024646D01*
X83945354Y-36163828D01*
X84104595Y-36279524D01*
X84133589Y-36294297D01*
X84279970Y-36368882D01*
X84279972Y-36368882D01*
X84279975Y-36368884D01*
X84320059Y-36381908D01*
X84467173Y-36429709D01*
X84661578Y-36460500D01*
X84661583Y-36460500D01*
X84858422Y-36460500D01*
X85052826Y-36429709D01*
X85199960Y-36381902D01*
X87999500Y-36381902D01*
X87999500Y-36618097D01*
X88036446Y-36851368D01*
X88109433Y-37075996D01*
X88208269Y-37269970D01*
X88216657Y-37286433D01*
X88355483Y-37477510D01*
X88522490Y-37644517D01*
X88713567Y-37783343D01*
X88812991Y-37834002D01*
X88924003Y-37890566D01*
X88924005Y-37890566D01*
X88924008Y-37890568D01*
X89044412Y-37929689D01*
X89148631Y-37963553D01*
X89381903Y-38000500D01*
X89381908Y-38000500D01*
X89618097Y-38000500D01*
X89851368Y-37963553D01*
X90075992Y-37890568D01*
X90286433Y-37783343D01*
X90477510Y-37644517D01*
X90644517Y-37477510D01*
X90783343Y-37286433D01*
X90890568Y-37075992D01*
X90963553Y-36851368D01*
X90972295Y-36796172D01*
X91000500Y-36618097D01*
X91000500Y-36381902D01*
X90963553Y-36148631D01*
X90890566Y-35924003D01*
X90790452Y-35727520D01*
X90783343Y-35713567D01*
X90644517Y-35522490D01*
X90477510Y-35355483D01*
X90286433Y-35216657D01*
X90286431Y-35216656D01*
X90075996Y-35109433D01*
X89851368Y-35036446D01*
X89618097Y-34999500D01*
X89618092Y-34999500D01*
X89381908Y-34999500D01*
X89381903Y-34999500D01*
X89148631Y-35036446D01*
X88924003Y-35109433D01*
X88713566Y-35216657D01*
X88604550Y-35295862D01*
X88522490Y-35355483D01*
X88522488Y-35355485D01*
X88522487Y-35355485D01*
X88355485Y-35522487D01*
X88355485Y-35522488D01*
X88355483Y-35522490D01*
X88295862Y-35604550D01*
X88216657Y-35713566D01*
X88109433Y-35924003D01*
X88036446Y-36148631D01*
X87999500Y-36381902D01*
X85199960Y-36381902D01*
X85240025Y-36368884D01*
X85415405Y-36279524D01*
X85574646Y-36163828D01*
X85713828Y-36024646D01*
X85829524Y-35865405D01*
X85918884Y-35690025D01*
X85979709Y-35502826D01*
X85991161Y-35430521D01*
X86010500Y-35308422D01*
X86010500Y-35111577D01*
X85979709Y-34917173D01*
X85918882Y-34729970D01*
X85856661Y-34607855D01*
X85829524Y-34554595D01*
X85713828Y-34395354D01*
X85574646Y-34256172D01*
X85415405Y-34140476D01*
X85240029Y-34051117D01*
X85052826Y-33990290D01*
X84858422Y-33959500D01*
X84858417Y-33959500D01*
X84661583Y-33959500D01*
X84661578Y-33959500D01*
X84467173Y-33990290D01*
X84279970Y-34051117D01*
X84104594Y-34140476D01*
X84090912Y-34150417D01*
X83945354Y-34256172D01*
X83945352Y-34256174D01*
X83945351Y-34256174D01*
X83806174Y-34395351D01*
X83806174Y-34395352D01*
X83806172Y-34395354D01*
X83756485Y-34463741D01*
X83690476Y-34554594D01*
X83600485Y-34731213D01*
X83552511Y-34782009D01*
X83484690Y-34798804D01*
X83418555Y-34776267D01*
X83379515Y-34731213D01*
X83352397Y-34677992D01*
X83289524Y-34554595D01*
X83173828Y-34395354D01*
X83034646Y-34256172D01*
X82875405Y-34140476D01*
X82700029Y-34051117D01*
X82512826Y-33990290D01*
X82318422Y-33959500D01*
X82318417Y-33959500D01*
X82121583Y-33959500D01*
X82121578Y-33959500D01*
X81927173Y-33990290D01*
X81739970Y-34051117D01*
X81564594Y-34140476D01*
X81550912Y-34150417D01*
X81405354Y-34256172D01*
X81405352Y-34256174D01*
X81405351Y-34256174D01*
X81266174Y-34395351D01*
X81266174Y-34395352D01*
X81266172Y-34395354D01*
X81216485Y-34463741D01*
X81150476Y-34554594D01*
X81060485Y-34731213D01*
X81012511Y-34782009D01*
X80944690Y-34798804D01*
X80878555Y-34776267D01*
X80839515Y-34731213D01*
X80812397Y-34677992D01*
X80749524Y-34554595D01*
X80633828Y-34395354D01*
X80494646Y-34256172D01*
X80335405Y-34140476D01*
X80160029Y-34051117D01*
X79972826Y-33990290D01*
X79778422Y-33959500D01*
X79778417Y-33959500D01*
X79581583Y-33959500D01*
X79581578Y-33959500D01*
X79387173Y-33990290D01*
X79199970Y-34051117D01*
X79024594Y-34140476D01*
X79010912Y-34150417D01*
X78865354Y-34256172D01*
X78865352Y-34256174D01*
X78865351Y-34256174D01*
X78726174Y-34395351D01*
X78726174Y-34395352D01*
X78726172Y-34395354D01*
X78676485Y-34463741D01*
X78610476Y-34554594D01*
X78521117Y-34729970D01*
X78460290Y-34917173D01*
X78429500Y-35111577D01*
X78429500Y-35308422D01*
X78460290Y-35502826D01*
X78521117Y-35690029D01*
X78602296Y-35849351D01*
X78610476Y-35865405D01*
X78726172Y-36024646D01*
X78865354Y-36163828D01*
X79024595Y-36279524D01*
X79124665Y-36330512D01*
X79201213Y-36369515D01*
X79252009Y-36417489D01*
X79268804Y-36485310D01*
X79246267Y-36551445D01*
X79201213Y-36590485D01*
X79024594Y-36680476D01*
X78933741Y-36746485D01*
X78865354Y-36796172D01*
X78865352Y-36796174D01*
X78865351Y-36796174D01*
X78726174Y-36935351D01*
X78726174Y-36935352D01*
X78726172Y-36935354D01*
X78676485Y-37003741D01*
X78610476Y-37094594D01*
X78520485Y-37271213D01*
X78472511Y-37322009D01*
X78404690Y-37338804D01*
X78338555Y-37316267D01*
X78299515Y-37271213D01*
X78272397Y-37217992D01*
X78209524Y-37094595D01*
X78093828Y-36935354D01*
X77954646Y-36796172D01*
X77795405Y-36680476D01*
X77795401Y-36680474D01*
X77620029Y-36591117D01*
X77432826Y-36530290D01*
X77238422Y-36499500D01*
X77238417Y-36499500D01*
X77041583Y-36499500D01*
X77041578Y-36499500D01*
X76847173Y-36530290D01*
X76659970Y-36591117D01*
X76484594Y-36680476D01*
X76393741Y-36746485D01*
X76325354Y-36796172D01*
X76325352Y-36796174D01*
X76325351Y-36796174D01*
X76186174Y-36935351D01*
X76186174Y-36935352D01*
X76186172Y-36935354D01*
X76136485Y-37003741D01*
X76070476Y-37094594D01*
X75980485Y-37271213D01*
X75932511Y-37322009D01*
X75864690Y-37338804D01*
X75798555Y-37316267D01*
X75759515Y-37271213D01*
X75732397Y-37217992D01*
X75669524Y-37094595D01*
X75553828Y-36935354D01*
X75414646Y-36796172D01*
X75335025Y-36738324D01*
X75255403Y-36680474D01*
X75078787Y-36590485D01*
X75027990Y-36542511D01*
X75011195Y-36474690D01*
X75033732Y-36408555D01*
X75078787Y-36369515D01*
X75255403Y-36279525D01*
X75255402Y-36279525D01*
X75255405Y-36279524D01*
X75414646Y-36163828D01*
X75553828Y-36024646D01*
X75669524Y-35865405D01*
X75758884Y-35690025D01*
X75819709Y-35502826D01*
X75831161Y-35430521D01*
X75850500Y-35308422D01*
X75850500Y-35111577D01*
X75819709Y-34917173D01*
X75758882Y-34729970D01*
X75696661Y-34607855D01*
X75669524Y-34554595D01*
X75553828Y-34395354D01*
X75414646Y-34256172D01*
X75255405Y-34140476D01*
X75080029Y-34051117D01*
X74892826Y-33990290D01*
X74698422Y-33959500D01*
X74698417Y-33959500D01*
X74501583Y-33959500D01*
X74501578Y-33959500D01*
X74307173Y-33990290D01*
X74119970Y-34051117D01*
X73944594Y-34140476D01*
X73930912Y-34150417D01*
X73785354Y-34256172D01*
X73785352Y-34256174D01*
X73785351Y-34256174D01*
X73646174Y-34395351D01*
X73646174Y-34395352D01*
X73646172Y-34395354D01*
X73596485Y-34463741D01*
X73530476Y-34554594D01*
X73441117Y-34729970D01*
X73380290Y-34917173D01*
X73349500Y-35111577D01*
X73349500Y-35308422D01*
X73380290Y-35502826D01*
X73441117Y-35690029D01*
X73522296Y-35849351D01*
X73530476Y-35865405D01*
X73646172Y-36024646D01*
X73785354Y-36163828D01*
X73944595Y-36279524D01*
X74044665Y-36330512D01*
X74121213Y-36369515D01*
X74172009Y-36417489D01*
X74188804Y-36485310D01*
X74166267Y-36551445D01*
X74121213Y-36590485D01*
X73944594Y-36680476D01*
X73853741Y-36746485D01*
X73785354Y-36796172D01*
X73785352Y-36796174D01*
X73785351Y-36796174D01*
X73646174Y-36935351D01*
X73646174Y-36935352D01*
X73646172Y-36935354D01*
X73596485Y-37003741D01*
X73530476Y-37094594D01*
X73440485Y-37271213D01*
X73392511Y-37322009D01*
X73324690Y-37338804D01*
X73258555Y-37316267D01*
X73219515Y-37271213D01*
X73192397Y-37217992D01*
X73129524Y-37094595D01*
X73013828Y-36935354D01*
X72874646Y-36796172D01*
X72715405Y-36680476D01*
X72715401Y-36680474D01*
X72540029Y-36591117D01*
X72352826Y-36530290D01*
X72158422Y-36499500D01*
X72158417Y-36499500D01*
X71961583Y-36499500D01*
X71961578Y-36499500D01*
X71767173Y-36530290D01*
X71579970Y-36591117D01*
X71404594Y-36680476D01*
X71313741Y-36746485D01*
X71245354Y-36796172D01*
X71245352Y-36796174D01*
X71245351Y-36796174D01*
X71106174Y-36935351D01*
X71106174Y-36935352D01*
X71106172Y-36935354D01*
X71056485Y-37003741D01*
X70990476Y-37094594D01*
X70900485Y-37271213D01*
X70852511Y-37322009D01*
X70784690Y-37338804D01*
X70718555Y-37316267D01*
X70679515Y-37271213D01*
X70652397Y-37217992D01*
X70589524Y-37094595D01*
X70473828Y-36935354D01*
X70334646Y-36796172D01*
X70255025Y-36738324D01*
X70175403Y-36680474D01*
X69998787Y-36590485D01*
X69947990Y-36542511D01*
X69931195Y-36474690D01*
X69953732Y-36408555D01*
X69998787Y-36369515D01*
X70175403Y-36279525D01*
X70175402Y-36279525D01*
X70175405Y-36279524D01*
X70334646Y-36163828D01*
X70473828Y-36024646D01*
X70589524Y-35865405D01*
X70678884Y-35690025D01*
X70739709Y-35502826D01*
X70751161Y-35430521D01*
X70770500Y-35308422D01*
X70770500Y-35111577D01*
X70739709Y-34917173D01*
X70678882Y-34729970D01*
X70616661Y-34607855D01*
X70589524Y-34554595D01*
X70473828Y-34395354D01*
X70334646Y-34256172D01*
X70175405Y-34140476D01*
X70000029Y-34051117D01*
X69812826Y-33990290D01*
X69618422Y-33959500D01*
X69618417Y-33959500D01*
X69421583Y-33959500D01*
X69421578Y-33959500D01*
X69227173Y-33990290D01*
X69039970Y-34051117D01*
X68864594Y-34140476D01*
X68850912Y-34150417D01*
X68705354Y-34256172D01*
X68705352Y-34256174D01*
X68705351Y-34256174D01*
X68566174Y-34395351D01*
X68566174Y-34395352D01*
X68566172Y-34395354D01*
X68516485Y-34463741D01*
X68450476Y-34554594D01*
X68360485Y-34731213D01*
X68312511Y-34782009D01*
X68244690Y-34798804D01*
X68178555Y-34776267D01*
X68139515Y-34731213D01*
X68112397Y-34677992D01*
X68049524Y-34554595D01*
X67933828Y-34395354D01*
X67794646Y-34256172D01*
X67635405Y-34140476D01*
X67460029Y-34051117D01*
X67272826Y-33990290D01*
X67078422Y-33959500D01*
X67078417Y-33959500D01*
X66881583Y-33959500D01*
X66881578Y-33959500D01*
X66687173Y-33990290D01*
X66499970Y-34051117D01*
X66324594Y-34140476D01*
X66310912Y-34150417D01*
X66165354Y-34256172D01*
X66165352Y-34256174D01*
X66165351Y-34256174D01*
X66026174Y-34395351D01*
X66026174Y-34395352D01*
X66026172Y-34395354D01*
X65976485Y-34463741D01*
X65910476Y-34554594D01*
X65820485Y-34731213D01*
X65772511Y-34782009D01*
X65704690Y-34798804D01*
X65638555Y-34776267D01*
X65599515Y-34731213D01*
X65572397Y-34677992D01*
X65509524Y-34554595D01*
X65393828Y-34395354D01*
X65254646Y-34256172D01*
X65095405Y-34140476D01*
X64920029Y-34051117D01*
X64732826Y-33990290D01*
X64538422Y-33959500D01*
X64538417Y-33959500D01*
X64341583Y-33959500D01*
X64341578Y-33959500D01*
X64147173Y-33990290D01*
X63959970Y-34051117D01*
X63784594Y-34140476D01*
X63770912Y-34150417D01*
X63625354Y-34256172D01*
X63625352Y-34256174D01*
X63625351Y-34256174D01*
X63486174Y-34395351D01*
X63486174Y-34395352D01*
X63486172Y-34395354D01*
X63436485Y-34463741D01*
X63370476Y-34554594D01*
X63280485Y-34731213D01*
X63232511Y-34782009D01*
X63164690Y-34798804D01*
X63098555Y-34776267D01*
X63059515Y-34731213D01*
X63032397Y-34677992D01*
X62969524Y-34554595D01*
X62853828Y-34395354D01*
X62714646Y-34256172D01*
X62555405Y-34140476D01*
X62380029Y-34051117D01*
X62192826Y-33990290D01*
X61998422Y-33959500D01*
X61998417Y-33959500D01*
X61801583Y-33959500D01*
X61801578Y-33959500D01*
X61607173Y-33990290D01*
X61419970Y-34051117D01*
X61244594Y-34140476D01*
X61230912Y-34150417D01*
X61085354Y-34256172D01*
X61085352Y-34256174D01*
X61085351Y-34256174D01*
X60946174Y-34395351D01*
X60946174Y-34395352D01*
X60946172Y-34395354D01*
X60896485Y-34463741D01*
X60830476Y-34554594D01*
X60741117Y-34729970D01*
X60680290Y-34917173D01*
X60649500Y-35111577D01*
X60649500Y-35308422D01*
X60680290Y-35502826D01*
X60741117Y-35690029D01*
X60822296Y-35849351D01*
X60830476Y-35865405D01*
X60946172Y-36024646D01*
X61085354Y-36163828D01*
X61244595Y-36279524D01*
X61344665Y-36330512D01*
X61421213Y-36369515D01*
X61472009Y-36417489D01*
X61488804Y-36485310D01*
X61466267Y-36551445D01*
X61421213Y-36590485D01*
X61244594Y-36680476D01*
X61153741Y-36746485D01*
X61085354Y-36796172D01*
X61085352Y-36796174D01*
X61085351Y-36796174D01*
X60946174Y-36935351D01*
X60946174Y-36935352D01*
X60946172Y-36935354D01*
X60896485Y-37003741D01*
X60830476Y-37094594D01*
X60740485Y-37271213D01*
X60692511Y-37322009D01*
X60624690Y-37338804D01*
X60558555Y-37316267D01*
X60519515Y-37271213D01*
X60492397Y-37217992D01*
X60429524Y-37094595D01*
X60313828Y-36935354D01*
X60174646Y-36796172D01*
X60015405Y-36680476D01*
X60015401Y-36680474D01*
X59840029Y-36591117D01*
X59652826Y-36530290D01*
X59458422Y-36499500D01*
X59458417Y-36499500D01*
X59261583Y-36499500D01*
X59261578Y-36499500D01*
X59067173Y-36530290D01*
X58879970Y-36591117D01*
X58704594Y-36680476D01*
X58613741Y-36746485D01*
X58545354Y-36796172D01*
X58545352Y-36796174D01*
X58545351Y-36796174D01*
X58406174Y-36935351D01*
X58406174Y-36935352D01*
X58406172Y-36935354D01*
X58356485Y-37003741D01*
X58290476Y-37094594D01*
X58200485Y-37271213D01*
X58152511Y-37322009D01*
X58084690Y-37338804D01*
X58018555Y-37316267D01*
X57979515Y-37271213D01*
X57952397Y-37217992D01*
X57889524Y-37094595D01*
X57773828Y-36935354D01*
X57634646Y-36796172D01*
X57555025Y-36738324D01*
X57475403Y-36680474D01*
X57298787Y-36590485D01*
X57247990Y-36542511D01*
X57231195Y-36474690D01*
X57253732Y-36408555D01*
X57298787Y-36369515D01*
X57475403Y-36279525D01*
X57475402Y-36279525D01*
X57475405Y-36279524D01*
X57634646Y-36163828D01*
X57773828Y-36024646D01*
X57889524Y-35865405D01*
X57978884Y-35690025D01*
X58039709Y-35502826D01*
X58051161Y-35430521D01*
X58070500Y-35308422D01*
X58070500Y-35111577D01*
X58039709Y-34917173D01*
X57978882Y-34729970D01*
X57916661Y-34607855D01*
X57889524Y-34554595D01*
X57773828Y-34395354D01*
X57634646Y-34256172D01*
X57475405Y-34140476D01*
X57300029Y-34051117D01*
X57112826Y-33990290D01*
X56918422Y-33959500D01*
X56918417Y-33959500D01*
X56721583Y-33959500D01*
X56721578Y-33959500D01*
X56527173Y-33990290D01*
X56339970Y-34051117D01*
X56164594Y-34140476D01*
X56150912Y-34150417D01*
X56005354Y-34256172D01*
X56005352Y-34256174D01*
X56005351Y-34256174D01*
X55866174Y-34395351D01*
X55866174Y-34395352D01*
X55866172Y-34395354D01*
X55816485Y-34463741D01*
X55750476Y-34554594D01*
X55660485Y-34731213D01*
X55612511Y-34782009D01*
X55544690Y-34798804D01*
X55478555Y-34776267D01*
X55439515Y-34731213D01*
X55412397Y-34677992D01*
X55349524Y-34554595D01*
X55233828Y-34395354D01*
X55094646Y-34256172D01*
X54935405Y-34140476D01*
X54760029Y-34051117D01*
X54572826Y-33990290D01*
X54378422Y-33959500D01*
X54378417Y-33959500D01*
X54181583Y-33959500D01*
X54181578Y-33959500D01*
X53987173Y-33990290D01*
X53799970Y-34051117D01*
X53624594Y-34140476D01*
X53610912Y-34150417D01*
X53465354Y-34256172D01*
X53465352Y-34256174D01*
X53465351Y-34256174D01*
X53326174Y-34395351D01*
X53326174Y-34395352D01*
X53326172Y-34395354D01*
X53276485Y-34463741D01*
X53210476Y-34554594D01*
X53121117Y-34729970D01*
X53060290Y-34917173D01*
X53029500Y-35111577D01*
X53029500Y-35308422D01*
X53060290Y-35502826D01*
X53121117Y-35690029D01*
X53202296Y-35849351D01*
X53210476Y-35865405D01*
X53326172Y-36024646D01*
X53465354Y-36163828D01*
X53624595Y-36279524D01*
X53724665Y-36330512D01*
X53801213Y-36369515D01*
X53852009Y-36417489D01*
X53868804Y-36485310D01*
X53846267Y-36551445D01*
X53801213Y-36590485D01*
X53624594Y-36680476D01*
X53533741Y-36746485D01*
X53465354Y-36796172D01*
X53465352Y-36796174D01*
X53465351Y-36796174D01*
X53326174Y-36935351D01*
X53326174Y-36935352D01*
X53326172Y-36935354D01*
X53276485Y-37003741D01*
X53210476Y-37094594D01*
X53120485Y-37271213D01*
X53072511Y-37322009D01*
X53004690Y-37338804D01*
X52938555Y-37316267D01*
X52899515Y-37271213D01*
X52872397Y-37217992D01*
X52809524Y-37094595D01*
X52693828Y-36935354D01*
X52554646Y-36796172D01*
X52395405Y-36680476D01*
X52395401Y-36680474D01*
X52220029Y-36591117D01*
X52032826Y-36530290D01*
X51838422Y-36499500D01*
X51838417Y-36499500D01*
X51641583Y-36499500D01*
X51641578Y-36499500D01*
X51447173Y-36530290D01*
X51259970Y-36591117D01*
X51084594Y-36680476D01*
X50993741Y-36746485D01*
X50925354Y-36796172D01*
X50925352Y-36796174D01*
X50925351Y-36796174D01*
X50786174Y-36935351D01*
X50786174Y-36935352D01*
X50786172Y-36935354D01*
X50736485Y-37003741D01*
X50670476Y-37094594D01*
X50580485Y-37271213D01*
X50532511Y-37322009D01*
X50464690Y-37338804D01*
X50398555Y-37316267D01*
X50359515Y-37271213D01*
X50332397Y-37217992D01*
X50269524Y-37094595D01*
X50153828Y-36935354D01*
X50014646Y-36796172D01*
X49935025Y-36738324D01*
X49855403Y-36680474D01*
X49678787Y-36590485D01*
X49627990Y-36542511D01*
X49611195Y-36474690D01*
X49633732Y-36408555D01*
X49678787Y-36369515D01*
X49855403Y-36279525D01*
X49855402Y-36279525D01*
X49855405Y-36279524D01*
X50014646Y-36163828D01*
X50153828Y-36024646D01*
X50269524Y-35865405D01*
X50358884Y-35690025D01*
X50419709Y-35502826D01*
X50431161Y-35430521D01*
X50450500Y-35308422D01*
X50450500Y-35111577D01*
X50419709Y-34917173D01*
X50358882Y-34729970D01*
X50296661Y-34607855D01*
X50269524Y-34554595D01*
X50153828Y-34395354D01*
X50014646Y-34256172D01*
X49855405Y-34140476D01*
X49680029Y-34051117D01*
X49492826Y-33990290D01*
X49298422Y-33959500D01*
X49298417Y-33959500D01*
X49101583Y-33959500D01*
X49101578Y-33959500D01*
X48907173Y-33990290D01*
X48719970Y-34051117D01*
X48544594Y-34140476D01*
X48530912Y-34150417D01*
X48385354Y-34256172D01*
X48385352Y-34256174D01*
X48385351Y-34256174D01*
X48246174Y-34395351D01*
X48246174Y-34395352D01*
X48246172Y-34395354D01*
X48196485Y-34463741D01*
X48130476Y-34554594D01*
X48040485Y-34731213D01*
X47992511Y-34782009D01*
X47924690Y-34798804D01*
X47858555Y-34776267D01*
X47819515Y-34731213D01*
X47792397Y-34677992D01*
X47729524Y-34554595D01*
X47613828Y-34395354D01*
X47474646Y-34256172D01*
X47315405Y-34140476D01*
X47140029Y-34051117D01*
X46952826Y-33990290D01*
X46758422Y-33959500D01*
X46758417Y-33959500D01*
X46561583Y-33959500D01*
X46561578Y-33959500D01*
X46367173Y-33990290D01*
X46179970Y-34051117D01*
X46004594Y-34140476D01*
X45990912Y-34150417D01*
X45845354Y-34256172D01*
X45845352Y-34256174D01*
X45845351Y-34256174D01*
X45706174Y-34395351D01*
X45706174Y-34395352D01*
X45706172Y-34395354D01*
X45656485Y-34463741D01*
X45590476Y-34554594D01*
X45500485Y-34731213D01*
X45452511Y-34782009D01*
X45384690Y-34798804D01*
X45318555Y-34776267D01*
X45279515Y-34731213D01*
X45252397Y-34677992D01*
X45189524Y-34554595D01*
X45073828Y-34395354D01*
X44934646Y-34256172D01*
X44775405Y-34140476D01*
X44600029Y-34051117D01*
X44412826Y-33990290D01*
X44218422Y-33959500D01*
X44218417Y-33959500D01*
X44021583Y-33959500D01*
X44021578Y-33959500D01*
X43827173Y-33990290D01*
X43639970Y-34051117D01*
X43464594Y-34140476D01*
X43450912Y-34150417D01*
X43305354Y-34256172D01*
X43305352Y-34256174D01*
X43305351Y-34256174D01*
X43166174Y-34395351D01*
X43166174Y-34395352D01*
X43166172Y-34395354D01*
X43116485Y-34463741D01*
X43050476Y-34554594D01*
X42961117Y-34729970D01*
X42900290Y-34917173D01*
X42869500Y-35111577D01*
X42869500Y-35308422D01*
X42900290Y-35502826D01*
X42961117Y-35690029D01*
X43042296Y-35849351D01*
X43050476Y-35865405D01*
X43166172Y-36024646D01*
X43305354Y-36163828D01*
X43464595Y-36279524D01*
X43564665Y-36330512D01*
X43641213Y-36369515D01*
X43692009Y-36417489D01*
X43708804Y-36485310D01*
X43686267Y-36551445D01*
X43641213Y-36590485D01*
X43464594Y-36680476D01*
X43373741Y-36746485D01*
X43305354Y-36796172D01*
X43305352Y-36796174D01*
X43305351Y-36796174D01*
X43166174Y-36935351D01*
X43166174Y-36935352D01*
X43166172Y-36935354D01*
X43116485Y-37003741D01*
X43050476Y-37094594D01*
X42960485Y-37271213D01*
X42912511Y-37322009D01*
X42844690Y-37338804D01*
X42778555Y-37316267D01*
X42739515Y-37271213D01*
X42712397Y-37217992D01*
X42649524Y-37094595D01*
X42533828Y-36935354D01*
X42394646Y-36796172D01*
X42235405Y-36680476D01*
X42235401Y-36680474D01*
X42060029Y-36591117D01*
X41872826Y-36530290D01*
X41678422Y-36499500D01*
X41678417Y-36499500D01*
X41481583Y-36499500D01*
X41481578Y-36499500D01*
X41287173Y-36530290D01*
X41099970Y-36591117D01*
X40924594Y-36680476D01*
X40833741Y-36746485D01*
X40765354Y-36796172D01*
X40765352Y-36796174D01*
X40765351Y-36796174D01*
X40626174Y-36935351D01*
X40626174Y-36935352D01*
X40626172Y-36935354D01*
X40576485Y-37003741D01*
X40510476Y-37094594D01*
X40420485Y-37271213D01*
X40372511Y-37322009D01*
X40304690Y-37338804D01*
X40238555Y-37316267D01*
X40199515Y-37271213D01*
X40172397Y-37217992D01*
X40109524Y-37094595D01*
X39993828Y-36935354D01*
X39854646Y-36796172D01*
X39775025Y-36738324D01*
X39695403Y-36680474D01*
X39518787Y-36590485D01*
X39467990Y-36542511D01*
X39451195Y-36474690D01*
X39473732Y-36408555D01*
X39518787Y-36369515D01*
X39695403Y-36279525D01*
X39695402Y-36279525D01*
X39695405Y-36279524D01*
X39854646Y-36163828D01*
X39993828Y-36024646D01*
X40109524Y-35865405D01*
X40198884Y-35690025D01*
X40259709Y-35502826D01*
X40271161Y-35430521D01*
X40290500Y-35308422D01*
X40290500Y-35111577D01*
X40259709Y-34917173D01*
X40198882Y-34729970D01*
X40136661Y-34607855D01*
X40109524Y-34554595D01*
X39993828Y-34395354D01*
X39854646Y-34256172D01*
X39695405Y-34140476D01*
X39520029Y-34051117D01*
X39332826Y-33990290D01*
X39138422Y-33959500D01*
X39138417Y-33959500D01*
X38941583Y-33959500D01*
X38941578Y-33959500D01*
X38747173Y-33990290D01*
X38559970Y-34051117D01*
X38384594Y-34140476D01*
X38370912Y-34150417D01*
X38225354Y-34256172D01*
X38225352Y-34256174D01*
X38225351Y-34256174D01*
X38086174Y-34395351D01*
X38086174Y-34395352D01*
X38086172Y-34395354D01*
X38036485Y-34463741D01*
X37970476Y-34554594D01*
X37880485Y-34731213D01*
X37832511Y-34782009D01*
X37764690Y-34798804D01*
X37698555Y-34776267D01*
X37659515Y-34731213D01*
X37632397Y-34677992D01*
X37569524Y-34554595D01*
X37453828Y-34395354D01*
X37314646Y-34256172D01*
X37155405Y-34140476D01*
X36980029Y-34051117D01*
X36792826Y-33990290D01*
X36598422Y-33959500D01*
X36598417Y-33959500D01*
X36401583Y-33959500D01*
X36401578Y-33959500D01*
X36207173Y-33990290D01*
X36019970Y-34051117D01*
X35844594Y-34140476D01*
X35830912Y-34150417D01*
X35685354Y-34256172D01*
X35685352Y-34256174D01*
X35685351Y-34256174D01*
X35546174Y-34395351D01*
X35546174Y-34395352D01*
X35546172Y-34395354D01*
X35496485Y-34463741D01*
X35430476Y-34554594D01*
X35341117Y-34729970D01*
X35280290Y-34917173D01*
X35249500Y-35111577D01*
X32080204Y-35111577D01*
X32075996Y-35109433D01*
X31851368Y-35036446D01*
X31618097Y-34999500D01*
X31618092Y-34999500D01*
X31381908Y-34999500D01*
X31381903Y-34999500D01*
X31148631Y-35036446D01*
X30924003Y-35109433D01*
X30713566Y-35216657D01*
X30604550Y-35295862D01*
X30522490Y-35355483D01*
X30522488Y-35355485D01*
X30522487Y-35355485D01*
X30355485Y-35522487D01*
X30355485Y-35522488D01*
X30355483Y-35522490D01*
X30295862Y-35604550D01*
X30216657Y-35713566D01*
X30109433Y-35924003D01*
X30036446Y-36148631D01*
X29999500Y-36381902D01*
X28521820Y-36381902D01*
X28521820Y-36025067D01*
X28522046Y-36017580D01*
X28522046Y-36017579D01*
X28539591Y-35727522D01*
X28541396Y-35712660D01*
X28545544Y-35690029D01*
X28593100Y-35430517D01*
X28596684Y-35415983D01*
X28615537Y-35355483D01*
X28682016Y-35142142D01*
X28687318Y-35128161D01*
X28805051Y-34866569D01*
X28811996Y-34853336D01*
X28960400Y-34607846D01*
X28968887Y-34595550D01*
X29145800Y-34369737D01*
X29155715Y-34358546D01*
X29358546Y-34155715D01*
X29369737Y-34145800D01*
X29595550Y-33968887D01*
X29607846Y-33960400D01*
X29853336Y-33811996D01*
X29866569Y-33805051D01*
X30128161Y-33687318D01*
X30142142Y-33682016D01*
X30415988Y-33596682D01*
X30430517Y-33593100D01*
X30712664Y-33541395D01*
X30727521Y-33539591D01*
X31017584Y-33522046D01*
X31025071Y-33521820D01*
X31087212Y-33521820D01*
X89912787Y-33521820D01*
X89912791Y-33521821D01*
G37*
%TD.AperFunction*%
%TD*%
M02*
