%TF.GenerationSoftware,KiCad,Pcbnew,9.0.5*%
%TF.CreationDate,2025-10-24T16:15:45+02:00*%
%TF.ProjectId,poe4pi,706f6534-7069-42e6-9b69-6361645f7063,rev?*%
%TF.SameCoordinates,Original*%
%TF.FileFunction,Paste,Top*%
%TF.FilePolarity,Positive*%
%FSLAX46Y46*%
G04 Gerber Fmt 4.6, Leading zero omitted, Abs format (unit mm)*
G04 Created by KiCad (PCBNEW 9.0.5) date 2025-10-24 16:15:45*
%MOMM*%
%LPD*%
G01*
G04 APERTURE LIST*
G04 Aperture macros list*
%AMRoundRect*
0 Rectangle with rounded corners*
0 $1 Rounding radius*
0 $2 $3 $4 $5 $6 $7 $8 $9 X,Y pos of 4 corners*
0 Add a 4 corners polygon primitive as box body*
4,1,4,$2,$3,$4,$5,$6,$7,$8,$9,$2,$3,0*
0 Add four circle primitives for the rounded corners*
1,1,$1+$1,$2,$3*
1,1,$1+$1,$4,$5*
1,1,$1+$1,$6,$7*
1,1,$1+$1,$8,$9*
0 Add four rect primitives between the rounded corners*
20,1,$1+$1,$2,$3,$4,$5,0*
20,1,$1+$1,$4,$5,$6,$7,0*
20,1,$1+$1,$6,$7,$8,$9,0*
20,1,$1+$1,$8,$9,$2,$3,0*%
G04 Aperture macros list end*
%ADD10RoundRect,0.067500X0.067500X-0.067500X0.067500X0.067500X-0.067500X0.067500X-0.067500X-0.067500X0*%
%ADD11RoundRect,0.067500X-0.067500X0.067500X-0.067500X-0.067500X0.067500X-0.067500X0.067500X0.067500X0*%
%ADD12R,0.812800X0.254000*%
%ADD13R,1.752600X2.489200*%
%ADD14R,2.580000X1.000000*%
%ADD15RoundRect,0.250000X0.312500X1.075000X-0.312500X1.075000X-0.312500X-1.075000X0.312500X-1.075000X0*%
%ADD16RoundRect,0.135000X0.135000X0.185000X-0.135000X0.185000X-0.135000X-0.185000X0.135000X-0.185000X0*%
%ADD17RoundRect,0.140000X0.170000X-0.140000X0.170000X0.140000X-0.170000X0.140000X-0.170000X-0.140000X0*%
%ADD18R,1.500000X1.300000*%
%ADD19RoundRect,0.135000X-0.185000X0.135000X-0.185000X-0.135000X0.185000X-0.135000X0.185000X0.135000X0*%
%ADD20RoundRect,0.250000X-0.325000X-1.100000X0.325000X-1.100000X0.325000X1.100000X-0.325000X1.100000X0*%
%ADD21RoundRect,0.250000X-0.650000X1.000000X-0.650000X-1.000000X0.650000X-1.000000X0.650000X1.000000X0*%
%ADD22RoundRect,0.100000X0.100000X-0.637500X0.100000X0.637500X-0.100000X0.637500X-0.100000X-0.637500X0*%
G04 APERTURE END LIST*
D10*
%TO.C,R2*%
X31750000Y-60275000D03*
X31750000Y-59725000D03*
%TD*%
D11*
%TO.C,R3*%
X31750000Y-58225000D03*
X31750000Y-58775000D03*
%TD*%
D12*
%TO.C,U1*%
X36000000Y-60250000D03*
X36000000Y-59749998D03*
X36000000Y-59249999D03*
X36000000Y-58750000D03*
X36000000Y-58249998D03*
X33104400Y-58249998D03*
X33104400Y-58750000D03*
X33104400Y-59249999D03*
X33104400Y-59749998D03*
X33104400Y-60250000D03*
D13*
X34552200Y-59249999D03*
%TD*%
D14*
%TO.C,LSI-U1*%
X64337024Y-73001469D03*
X64337024Y-71001469D03*
X64337024Y-69001469D03*
X64337024Y-67001469D03*
X64337024Y-65001469D03*
X64337024Y-63001469D03*
X60167024Y-73001469D03*
X60167024Y-71001469D03*
X60167024Y-69001469D03*
X60167024Y-67001469D03*
X60167024Y-65001469D03*
X60167024Y-63001469D03*
X45345015Y-72994762D03*
X45345015Y-70994762D03*
X45345015Y-68994762D03*
X45345015Y-66994762D03*
X45345015Y-64994762D03*
X45345015Y-62994762D03*
X41175015Y-72994762D03*
X41175015Y-70994762D03*
X41175015Y-68994762D03*
X41175015Y-66994762D03*
X41175015Y-64994762D03*
X41175015Y-62994762D03*
X64337024Y-75001469D03*
X60167024Y-75001469D03*
X45345015Y-74994762D03*
X41175015Y-74994762D03*
%TD*%
D15*
%TO.C,R5*%
X34712500Y-66000000D03*
X31787500Y-66000000D03*
%TD*%
D16*
%TO.C,R1*%
X70510000Y-57250000D03*
X69490000Y-57250000D03*
%TD*%
D17*
%TO.C,C15*%
X73750000Y-62480000D03*
X73750000Y-61520000D03*
%TD*%
D18*
%TO.C,D2*%
X79550000Y-52450000D03*
X79550000Y-57550000D03*
X88450000Y-57550000D03*
X88450000Y-52450000D03*
%TD*%
D16*
%TO.C,R12*%
X70510000Y-76250000D03*
X69490000Y-76250000D03*
%TD*%
D19*
%TO.C,R22*%
X76250000Y-59480000D03*
X76250000Y-60500000D03*
%TD*%
D20*
%TO.C,C2*%
X31775000Y-48750000D03*
X34725000Y-48750000D03*
%TD*%
D15*
%TO.C,R4*%
X34712500Y-41750000D03*
X31787500Y-41750000D03*
%TD*%
D14*
%TO.C,LSI-U2*%
X64337024Y-54001469D03*
X64337024Y-52001469D03*
X64337024Y-50001469D03*
X64337024Y-48001469D03*
X64337024Y-46001469D03*
X64337024Y-44001469D03*
X60167024Y-54001469D03*
X60167024Y-52001469D03*
X60167024Y-50001469D03*
X60167024Y-48001469D03*
X60167024Y-46001469D03*
X60167024Y-44001469D03*
X45345015Y-53994762D03*
X45345015Y-51994762D03*
X45345015Y-49994762D03*
X45345015Y-47994762D03*
X45345015Y-45994762D03*
X45345015Y-43994762D03*
X41175015Y-53994762D03*
X41175015Y-51994762D03*
X41175015Y-49994762D03*
X41175015Y-47994762D03*
X41175015Y-45994762D03*
X41175015Y-43994762D03*
X64337024Y-56001469D03*
X60167024Y-56001469D03*
X45345015Y-55994762D03*
X41175015Y-55994762D03*
%TD*%
D20*
%TO.C,C6*%
X31775000Y-76500000D03*
X34725000Y-76500000D03*
%TD*%
D18*
%TO.C,D1*%
X79550000Y-61450000D03*
X79550000Y-66550000D03*
X88450000Y-66550000D03*
X88450000Y-61450000D03*
%TD*%
D19*
%TO.C,R23*%
X73750000Y-59490000D03*
X73750000Y-60510000D03*
%TD*%
%TO.C,R24*%
X75000000Y-59490000D03*
X75000000Y-60510000D03*
%TD*%
D20*
%TO.C,C4*%
X31775000Y-69500000D03*
X34725000Y-69500000D03*
%TD*%
%TO.C,C3*%
X31775000Y-52250000D03*
X34725000Y-52250000D03*
%TD*%
D21*
%TO.C,D4*%
X76750000Y-62500000D03*
X76750000Y-66500000D03*
%TD*%
D20*
%TO.C,C1*%
X31775000Y-45250000D03*
X34725000Y-45250000D03*
%TD*%
%TO.C,C5*%
X31775000Y-73000000D03*
X34725000Y-73000000D03*
%TD*%
D22*
%TO.C,U3*%
X74025000Y-57862500D03*
X74675000Y-57862500D03*
X75325000Y-57862500D03*
X75975000Y-57862500D03*
X75975000Y-52137500D03*
X75325000Y-52137500D03*
X74675000Y-52137500D03*
X74025000Y-52137500D03*
%TD*%
M02*
