%TF.GenerationSoftware,KiCad,Pcbnew,9.0.5*%
%TF.CreationDate,2025-10-24T16:15:43+02:00*%
%TF.ProjectId,poe4pi,706f6534-7069-42e6-9b69-6361645f7063,rev?*%
%TF.SameCoordinates,Original*%
%TF.FileFunction,Copper,L1,Top*%
%TF.FilePolarity,Positive*%
%FSLAX46Y46*%
G04 Gerber Fmt 4.6, Leading zero omitted, Abs format (unit mm)*
G04 Created by KiCad (PCBNEW 9.0.5) date 2025-10-24 16:15:43*
%MOMM*%
%LPD*%
G01*
G04 APERTURE LIST*
G04 Aperture macros list*
%AMRoundRect*
0 Rectangle with rounded corners*
0 $1 Rounding radius*
0 $2 $3 $4 $5 $6 $7 $8 $9 X,Y pos of 4 corners*
0 Add a 4 corners polygon primitive as box body*
4,1,4,$2,$3,$4,$5,$6,$7,$8,$9,$2,$3,0*
0 Add four circle primitives for the rounded corners*
1,1,$1+$1,$2,$3*
1,1,$1+$1,$4,$5*
1,1,$1+$1,$6,$7*
1,1,$1+$1,$8,$9*
0 Add four rect primitives between the rounded corners*
20,1,$1+$1,$2,$3,$4,$5,0*
20,1,$1+$1,$4,$5,$6,$7,0*
20,1,$1+$1,$6,$7,$8,$9,0*
20,1,$1+$1,$8,$9,$2,$3,0*%
G04 Aperture macros list end*
%TA.AperFunction,SMDPad,CuDef*%
%ADD10RoundRect,0.075000X0.075000X-0.125000X0.075000X0.125000X-0.075000X0.125000X-0.075000X-0.125000X0*%
%TD*%
%TA.AperFunction,SMDPad,CuDef*%
%ADD11RoundRect,0.075000X-0.075000X0.125000X-0.075000X-0.125000X0.075000X-0.125000X0.075000X0.125000X0*%
%TD*%
%TA.AperFunction,SMDPad,CuDef*%
%ADD12R,0.812800X0.254000*%
%TD*%
%TA.AperFunction,SMDPad,CuDef*%
%ADD13R,1.752600X2.489200*%
%TD*%
%TA.AperFunction,SMDPad,CuDef*%
%ADD14R,2.580000X1.000000*%
%TD*%
%TA.AperFunction,SMDPad,CuDef*%
%ADD15RoundRect,0.250000X0.312500X1.075000X-0.312500X1.075000X-0.312500X-1.075000X0.312500X-1.075000X0*%
%TD*%
%TA.AperFunction,SMDPad,CuDef*%
%ADD16RoundRect,0.135000X0.135000X0.185000X-0.135000X0.185000X-0.135000X-0.185000X0.135000X-0.185000X0*%
%TD*%
%TA.AperFunction,SMDPad,CuDef*%
%ADD17RoundRect,0.140000X0.170000X-0.140000X0.170000X0.140000X-0.170000X0.140000X-0.170000X-0.140000X0*%
%TD*%
%TA.AperFunction,SMDPad,CuDef*%
%ADD18R,1.500000X1.300000*%
%TD*%
%TA.AperFunction,SMDPad,CuDef*%
%ADD19RoundRect,0.135000X-0.185000X0.135000X-0.185000X-0.135000X0.185000X-0.135000X0.185000X0.135000X0*%
%TD*%
%TA.AperFunction,SMDPad,CuDef*%
%ADD20RoundRect,0.250000X-0.325000X-1.100000X0.325000X-1.100000X0.325000X1.100000X-0.325000X1.100000X0*%
%TD*%
%TA.AperFunction,ComponentPad*%
%ADD21R,1.700000X1.700000*%
%TD*%
%TA.AperFunction,ComponentPad*%
%ADD22C,1.700000*%
%TD*%
%TA.AperFunction,SMDPad,CuDef*%
%ADD23RoundRect,0.250000X-0.650000X1.000000X-0.650000X-1.000000X0.650000X-1.000000X0.650000X1.000000X0*%
%TD*%
%TA.AperFunction,SMDPad,CuDef*%
%ADD24RoundRect,0.100000X0.100000X-0.637500X0.100000X0.637500X-0.100000X0.637500X-0.100000X-0.637500X0*%
%TD*%
%TA.AperFunction,ViaPad*%
%ADD25C,0.600000*%
%TD*%
%TA.AperFunction,ViaPad*%
%ADD26C,0.400000*%
%TD*%
%TA.AperFunction,ViaPad*%
%ADD27C,0.500000*%
%TD*%
%TA.AperFunction,Conductor*%
%ADD28C,0.800000*%
%TD*%
%TA.AperFunction,Conductor*%
%ADD29C,0.200000*%
%TD*%
%TA.AperFunction,Conductor*%
%ADD30C,0.600000*%
%TD*%
%TA.AperFunction,Conductor*%
%ADD31C,2.000000*%
%TD*%
%TA.AperFunction,Conductor*%
%ADD32C,0.400000*%
%TD*%
%TA.AperFunction,Conductor*%
%ADD33C,0.300000*%
%TD*%
G04 APERTURE END LIST*
D10*
%TO.P,R2,1*%
%TO.N,Net-(U1-OUTA)*%
X31750000Y-60250000D03*
%TO.P,R2,2*%
%TO.N,+5V*%
X31750000Y-59750000D03*
%TD*%
D11*
%TO.P,R3,1*%
%TO.N,Net-(U1-OUTB)*%
X31750000Y-58250000D03*
%TO.P,R3,2*%
%TO.N,+5V*%
X31750000Y-58750000D03*
%TD*%
D12*
%TO.P,U1,1,INA*%
%TO.N,Net-(LSI-U1-VPP_OUT)*%
X36000000Y-60250000D03*
%TO.P,U1,2,ENBA*%
%TO.N,GND*%
X36000000Y-59749998D03*
%TO.P,U1,3,GND*%
X36000000Y-59249999D03*
%TO.P,U1,4,ENBB*%
X36000000Y-58750000D03*
%TO.P,U1,5,INB*%
%TO.N,Net-(LSI-U2-VPP_OUT)*%
X36000000Y-58249998D03*
%TO.P,U1,6,OUTB*%
%TO.N,Net-(U1-OUTB)*%
X33104400Y-58249998D03*
%TO.P,U1,7,OVP*%
%TO.N,unconnected-(U1-OVP-Pad7)*%
X33104400Y-58750000D03*
%TO.P,U1,8,OVI*%
%TO.N,unconnected-(U1-OVI-Pad8)*%
X33104400Y-59249999D03*
%TO.P,U1,9,STAT*%
%TO.N,unconnected-(U1-STAT-Pad9)*%
X33104400Y-59749998D03*
%TO.P,U1,10,OUTA*%
%TO.N,Net-(U1-OUTA)*%
X33104400Y-60250000D03*
D13*
%TO.P,U1,11,EPAD*%
%TO.N,unconnected-(U1-EPAD-Pad11)*%
X34552200Y-59249999D03*
%TD*%
D14*
%TO.P,LSI-U1,1,GND*%
%TO.N,GND*%
X64337024Y-73001469D03*
X64337024Y-71001469D03*
X64337024Y-69001469D03*
X64337024Y-67001469D03*
X64337024Y-65001469D03*
X64337024Y-63001469D03*
%TO.P,LSI-U1,2,VPP_IN*%
%TO.N,POE_V+*%
X60167024Y-73001469D03*
X60167024Y-71001469D03*
X60167024Y-69001469D03*
X60167024Y-67001469D03*
X60167024Y-65001469D03*
X60167024Y-63001469D03*
%TO.P,LSI-U1,3,VPP_OUT*%
%TO.N,Net-(LSI-U1-VPP_OUT)*%
X45345015Y-72994762D03*
X45345015Y-70994762D03*
X45345015Y-68994762D03*
X45345015Y-66994762D03*
X45345015Y-64994762D03*
X45345015Y-62994762D03*
%TO.P,LSI-U1,4,GND*%
%TO.N,GND*%
X41175015Y-72994762D03*
X41175015Y-70994762D03*
X41175015Y-68994762D03*
X41175015Y-66994762D03*
X41175015Y-64994762D03*
X41175015Y-62994762D03*
%TO.P,LSI-U1,5,S1*%
%TO.N,unconnected-(LSI-U1-S1-Pad5)*%
X64337024Y-75001469D03*
%TO.P,LSI-U1,6,S2*%
%TO.N,Net-(LSI-U1-S2)*%
X60167024Y-75001469D03*
%TO.P,LSI-U1,7,S3*%
%TO.N,unconnected-(LSI-U1-S3-Pad7)*%
X45345015Y-74994762D03*
%TO.P,LSI-U1,8,S4*%
%TO.N,unconnected-(LSI-U1-S4-Pad8)*%
X41175015Y-74994762D03*
%TD*%
D15*
%TO.P,R5,1*%
%TO.N,Net-(C4-Pad2)*%
X34712500Y-66000000D03*
%TO.P,R5,2*%
%TO.N,GND*%
X31787500Y-66000000D03*
%TD*%
D16*
%TO.P,R1,1*%
%TO.N,Net-(U3-PG)*%
X70510000Y-57250000D03*
%TO.P,R1,2*%
%TO.N,Net-(LSI-U2-S2)*%
X69490000Y-57250000D03*
%TD*%
D17*
%TO.P,C15,1*%
%TO.N,POE_V+*%
X73750000Y-62480000D03*
%TO.P,C15,2*%
%TO.N,POE_V-*%
X73750000Y-61520000D03*
%TD*%
D18*
%TO.P,D2,1,+*%
%TO.N,POE_V+*%
X79550000Y-52450000D03*
%TO.P,D2,2,-*%
%TO.N,POE_V-*%
X79550000Y-57550000D03*
%TO.P,D2,3*%
%TO.N,POE_PAIR_1+*%
X88450000Y-57550000D03*
%TO.P,D2,4*%
%TO.N,POE_PAIR_1-*%
X88450000Y-52450000D03*
%TD*%
D16*
%TO.P,R12,1*%
%TO.N,Net-(U3-PG)*%
X70510000Y-76250000D03*
%TO.P,R12,2*%
%TO.N,Net-(LSI-U1-S2)*%
X69490000Y-76250000D03*
%TD*%
D19*
%TO.P,R22,1*%
%TO.N,Net-(U3-DET)*%
X76250000Y-59480000D03*
%TO.P,R22,2*%
%TO.N,POE_V+*%
X76250000Y-60500000D03*
%TD*%
D20*
%TO.P,C2,1*%
%TO.N,+5V*%
X31775000Y-48750000D03*
%TO.P,C2,2*%
%TO.N,GND*%
X34725000Y-48750000D03*
%TD*%
D15*
%TO.P,R4,1*%
%TO.N,Net-(C1-Pad2)*%
X34712500Y-41750000D03*
%TO.P,R4,2*%
%TO.N,GND*%
X31787500Y-41750000D03*
%TD*%
D14*
%TO.P,LSI-U2,1,GND*%
%TO.N,GND*%
X64337024Y-54001469D03*
X64337024Y-52001469D03*
X64337024Y-50001469D03*
X64337024Y-48001469D03*
X64337024Y-46001469D03*
X64337024Y-44001469D03*
%TO.P,LSI-U2,2,VPP_IN*%
%TO.N,POE_V+*%
X60167024Y-54001469D03*
X60167024Y-52001469D03*
X60167024Y-50001469D03*
X60167024Y-48001469D03*
X60167024Y-46001469D03*
X60167024Y-44001469D03*
%TO.P,LSI-U2,3,VPP_OUT*%
%TO.N,Net-(LSI-U2-VPP_OUT)*%
X45345015Y-53994762D03*
X45345015Y-51994762D03*
X45345015Y-49994762D03*
X45345015Y-47994762D03*
X45345015Y-45994762D03*
X45345015Y-43994762D03*
%TO.P,LSI-U2,4,GND*%
%TO.N,GND*%
X41175015Y-53994762D03*
X41175015Y-51994762D03*
X41175015Y-49994762D03*
X41175015Y-47994762D03*
X41175015Y-45994762D03*
X41175015Y-43994762D03*
%TO.P,LSI-U2,5,S1*%
%TO.N,unconnected-(LSI-U2-S1-Pad5)*%
X64337024Y-56001469D03*
%TO.P,LSI-U2,6,S2*%
%TO.N,Net-(LSI-U2-S2)*%
X60167024Y-56001469D03*
%TO.P,LSI-U2,7,S3*%
%TO.N,unconnected-(LSI-U2-S3-Pad7)*%
X45345015Y-55994762D03*
%TO.P,LSI-U2,8,S4*%
%TO.N,unconnected-(LSI-U2-S4-Pad8)*%
X41175015Y-55994762D03*
%TD*%
D20*
%TO.P,C6,1*%
%TO.N,+5V*%
X31775000Y-76500000D03*
%TO.P,C6,2*%
%TO.N,GND*%
X34725000Y-76500000D03*
%TD*%
D18*
%TO.P,D1,1,+*%
%TO.N,POE_V+*%
X79550000Y-61450000D03*
%TO.P,D1,2,-*%
%TO.N,POE_V-*%
X79550000Y-66550000D03*
%TO.P,D1,3*%
%TO.N,POE_PAIR_2+*%
X88450000Y-66550000D03*
%TO.P,D1,4*%
%TO.N,POE_PAIR_2-*%
X88450000Y-61450000D03*
%TD*%
D21*
%TO.P,J2,1,Pin_1*%
%TO.N,POE_PAIR_1-*%
X88250000Y-78060000D03*
D22*
%TO.P,J2,2,Pin_2*%
%TO.N,POE_PAIR_1+*%
X88250000Y-80600000D03*
%TO.P,J2,3,Pin_3*%
%TO.N,POE_PAIR_2-*%
X90790000Y-78060000D03*
%TO.P,J2,4,Pin_4*%
%TO.N,POE_PAIR_2+*%
X90790000Y-80600000D03*
%TD*%
D19*
%TO.P,R23,1*%
%TO.N,Net-(U3-ILIM)*%
X73750000Y-59490000D03*
%TO.P,R23,2*%
%TO.N,POE_V-*%
X73750000Y-60510000D03*
%TD*%
%TO.P,R24,1*%
%TO.N,Net-(U3-CLASS)*%
X75000000Y-59490000D03*
%TO.P,R24,2*%
%TO.N,POE_V-*%
X75000000Y-60510000D03*
%TD*%
D20*
%TO.P,C4,1*%
%TO.N,+5V*%
X31775000Y-69500000D03*
%TO.P,C4,2*%
%TO.N,Net-(C4-Pad2)*%
X34725000Y-69500000D03*
%TD*%
%TO.P,C3,1*%
%TO.N,+5V*%
X31775000Y-52250000D03*
%TO.P,C3,2*%
%TO.N,GND*%
X34725000Y-52250000D03*
%TD*%
D23*
%TO.P,D4,1,A1*%
%TO.N,POE_V+*%
X76750000Y-62500000D03*
%TO.P,D4,2,A2*%
%TO.N,POE_V-*%
X76750000Y-66500000D03*
%TD*%
D20*
%TO.P,C1,1*%
%TO.N,+5V*%
X31775000Y-45250000D03*
%TO.P,C1,2*%
%TO.N,Net-(C1-Pad2)*%
X34725000Y-45250000D03*
%TD*%
%TO.P,C5,1*%
%TO.N,+5V*%
X31775000Y-73000000D03*
%TO.P,C5,2*%
%TO.N,GND*%
X34725000Y-73000000D03*
%TD*%
D24*
%TO.P,U3,1,ILIM*%
%TO.N,Net-(U3-ILIM)*%
X74025000Y-57862500D03*
%TO.P,U3,2,CLASS*%
%TO.N,Net-(U3-CLASS)*%
X74675000Y-57862500D03*
%TO.P,U3,3,DET*%
%TO.N,Net-(U3-DET)*%
X75325000Y-57862500D03*
%TO.P,U3,4,VSS*%
%TO.N,POE_V-*%
X75975000Y-57862500D03*
%TO.P,U3,5,RTN*%
%TO.N,GND*%
X75975000Y-52137500D03*
%TO.P,U3,6,PG*%
%TO.N,Net-(U3-PG)*%
X75325000Y-52137500D03*
%TO.P,U3,7,NC*%
%TO.N,unconnected-(U3-NC-Pad7)*%
X74675000Y-52137500D03*
%TO.P,U3,8,VDD*%
%TO.N,POE_V+*%
X74025000Y-52137500D03*
%TD*%
D21*
%TO.P,J1,1,Pin_1*%
%TO.N,POE_PAIR_1-*%
X88250000Y-41360000D03*
D22*
%TO.P,J1,2,Pin_2*%
%TO.N,POE_PAIR_1+*%
X88250000Y-43900000D03*
%TO.P,J1,3,Pin_3*%
%TO.N,POE_PAIR_2-*%
X90790000Y-41360000D03*
%TO.P,J1,4,Pin_4*%
%TO.N,POE_PAIR_2+*%
X90790000Y-43900000D03*
%TD*%
%TO.P,J3,40,Pin_40*%
%TO.N,unconnected-(J3-Pin_40-Pad40)*%
X84760000Y-35210000D03*
%TO.P,J3,39,Pin_39*%
%TO.N,GND*%
X84760000Y-37750000D03*
%TO.P,J3,38,Pin_38*%
%TO.N,unconnected-(J3-Pin_38-Pad38)*%
X82220000Y-35210000D03*
%TO.P,J3,37,Pin_37*%
%TO.N,unconnected-(J3-Pin_37-Pad37)*%
X82220000Y-37750000D03*
%TO.P,J3,36,Pin_36*%
%TO.N,unconnected-(J3-Pin_36-Pad36)*%
X79680000Y-35210000D03*
%TO.P,J3,35,Pin_35*%
%TO.N,unconnected-(J3-Pin_35-Pad35)*%
X79680000Y-37750000D03*
%TO.P,J3,34,Pin_34*%
%TO.N,GND*%
X77140000Y-35210000D03*
%TO.P,J3,33,Pin_33*%
%TO.N,unconnected-(J3-Pin_33-Pad33)*%
X77140000Y-37750000D03*
%TO.P,J3,32,Pin_32*%
%TO.N,unconnected-(J3-Pin_32-Pad32)*%
X74600000Y-35210000D03*
%TO.P,J3,31,Pin_31*%
%TO.N,unconnected-(J3-Pin_31-Pad31)*%
X74600000Y-37750000D03*
%TO.P,J3,30,Pin_30*%
%TO.N,GND*%
X72060000Y-35210000D03*
%TO.P,J3,29,Pin_29*%
%TO.N,unconnected-(J3-Pin_29-Pad29)*%
X72060000Y-37750000D03*
%TO.P,J3,28,Pin_28*%
%TO.N,unconnected-(J3-Pin_28-Pad28)*%
X69520000Y-35210000D03*
%TO.P,J3,27,Pin_27*%
%TO.N,unconnected-(J3-Pin_27-Pad27)*%
X69520000Y-37750000D03*
%TO.P,J3,26,Pin_26*%
%TO.N,unconnected-(J3-Pin_26-Pad26)*%
X66980000Y-35210000D03*
%TO.P,J3,25,Pin_25*%
%TO.N,GND*%
X66980000Y-37750000D03*
%TO.P,J3,24,Pin_24*%
%TO.N,unconnected-(J3-Pin_24-Pad24)*%
X64440000Y-35210000D03*
%TO.P,J3,23,Pin_23*%
%TO.N,unconnected-(J3-Pin_23-Pad23)*%
X64440000Y-37750000D03*
%TO.P,J3,22,Pin_22*%
%TO.N,unconnected-(J3-Pin_22-Pad22)*%
X61900000Y-35210000D03*
%TO.P,J3,21,Pin_21*%
%TO.N,unconnected-(J3-Pin_21-Pad21)*%
X61900000Y-37750000D03*
%TO.P,J3,20,Pin_20*%
%TO.N,GND*%
X59360000Y-35210000D03*
%TO.P,J3,19,Pin_19*%
%TO.N,unconnected-(J3-Pin_19-Pad19)*%
X59360000Y-37750000D03*
%TO.P,J3,18,Pin_18*%
%TO.N,unconnected-(J3-Pin_18-Pad18)*%
X56820000Y-35210000D03*
%TO.P,J3,17,Pin_17*%
%TO.N,unconnected-(J3-Pin_17-Pad17)*%
X56820000Y-37750000D03*
%TO.P,J3,16,Pin_16*%
%TO.N,unconnected-(J3-Pin_16-Pad16)*%
X54280000Y-35210000D03*
%TO.P,J3,15,Pin_15*%
%TO.N,unconnected-(J3-Pin_15-Pad15)*%
X54280000Y-37750000D03*
%TO.P,J3,14,Pin_14*%
%TO.N,GND*%
X51740000Y-35210000D03*
%TO.P,J3,13,Pin_13*%
%TO.N,unconnected-(J3-Pin_13-Pad13)*%
X51740000Y-37750000D03*
%TO.P,J3,12,Pin_12*%
%TO.N,unconnected-(J3-Pin_12-Pad12)*%
X49200000Y-35210000D03*
%TO.P,J3,11,Pin_11*%
%TO.N,unconnected-(J3-Pin_11-Pad11)*%
X49200000Y-37750000D03*
%TO.P,J3,10,Pin_10*%
%TO.N,unconnected-(J3-Pin_10-Pad10)*%
X46660000Y-35210000D03*
%TO.P,J3,9,Pin_9*%
%TO.N,GND*%
X46660000Y-37750000D03*
%TO.P,J3,8,Pin_8*%
%TO.N,unconnected-(J3-Pin_8-Pad8)*%
X44120000Y-35210000D03*
%TO.P,J3,7,Pin_7*%
%TO.N,unconnected-(J3-Pin_7-Pad7)*%
X44120000Y-37750000D03*
%TO.P,J3,6,Pin_6*%
%TO.N,GND*%
X41580000Y-35210000D03*
%TO.P,J3,5,Pin_5*%
%TO.N,unconnected-(J3-Pin_5-Pad5)*%
X41580000Y-37750000D03*
%TO.P,J3,4,Pin_4*%
%TO.N,+5V*%
X39040000Y-35210000D03*
%TO.P,J3,3,Pin_3*%
%TO.N,unconnected-(J3-Pin_3-Pad3)*%
X39040000Y-37750000D03*
%TO.P,J3,2,Pin_2*%
%TO.N,+5V*%
X36500000Y-35210000D03*
D21*
%TO.P,J3,1,Pin_1*%
%TO.N,unconnected-(J3-Pin_1-Pad1)*%
X36500000Y-37750000D03*
%TD*%
D25*
%TO.N,GND*%
X35750000Y-50500000D03*
X78600000Y-60000000D03*
X35750000Y-74750000D03*
X30500000Y-66000000D03*
X78000000Y-58800000D03*
X30750000Y-41750000D03*
X79800000Y-59400000D03*
%TO.N,+5V*%
X31750000Y-50500000D03*
X32250000Y-53750000D03*
D26*
X31750000Y-59250000D03*
D25*
X31750000Y-74750000D03*
X32250000Y-74750000D03*
X31250000Y-74750000D03*
X31775000Y-71250000D03*
X31250000Y-78000000D03*
D26*
X31250000Y-59250000D03*
D25*
X32250000Y-47000000D03*
X31750000Y-78000000D03*
X31250000Y-50500000D03*
D26*
X31250000Y-58750000D03*
D25*
X32250000Y-71250000D03*
D26*
X31250000Y-59750000D03*
X31500000Y-59500000D03*
D25*
X31250000Y-53750000D03*
X31750000Y-53750000D03*
D26*
X31500000Y-59000000D03*
D25*
X31250000Y-47000000D03*
X32250000Y-50500000D03*
X32250000Y-78000000D03*
X31250000Y-71250000D03*
X31750000Y-47000000D03*
%TO.N,POE_V+*%
X81000000Y-60000000D03*
X60200000Y-70000000D03*
X60200000Y-51000000D03*
X60200000Y-45000000D03*
X60200000Y-47000000D03*
X81000000Y-54000000D03*
X60167024Y-64000000D03*
X60200000Y-49000000D03*
X60200000Y-66000000D03*
X60200000Y-68000000D03*
X60167024Y-72000000D03*
X60167024Y-53000000D03*
D27*
%TO.N,POE_V-*%
X75000000Y-60510000D03*
X76750000Y-58750000D03*
D25*
%TO.N,POE_PAIR_2-*%
X88000000Y-63000000D03*
%TO.N,POE_PAIR_1-*%
X88000000Y-54000000D03*
%TO.N,POE_PAIR_1+*%
X88000000Y-56000000D03*
D26*
%TO.N,Net-(U3-PG)*%
X71250000Y-57250000D03*
D27*
X75500000Y-51000000D03*
%TD*%
D28*
%TO.N,GND*%
X34725000Y-48750000D02*
X34725000Y-50500000D01*
X34725000Y-50500000D02*
X34725000Y-52250000D01*
X31787500Y-66000000D02*
X30500000Y-66000000D01*
X34725000Y-74750000D02*
X34725000Y-76500000D01*
X34725000Y-73000000D02*
X34725000Y-74750000D01*
X34725000Y-74750000D02*
X35750000Y-74750000D01*
X31787500Y-41750000D02*
X30750000Y-41750000D01*
X34725000Y-50500000D02*
X35750000Y-50500000D01*
D29*
%TO.N,+5V*%
X31750000Y-58750000D02*
X31250000Y-58750000D01*
X31750000Y-59250000D02*
X31250000Y-58750000D01*
X31750000Y-59250000D02*
X31250000Y-59750000D01*
X31750000Y-58750000D02*
X31750000Y-59250000D01*
D28*
X31775000Y-45250000D02*
X31775000Y-48750000D01*
D29*
X31750000Y-59750000D02*
X31750000Y-59250000D01*
X31750000Y-59250000D02*
X31250000Y-59250000D01*
D28*
X31775000Y-69500000D02*
X31775000Y-76500000D01*
D29*
X31750000Y-59750000D02*
X31250000Y-59750000D01*
D28*
X31775000Y-52250000D02*
X31775000Y-48750000D01*
D29*
X31250000Y-58750000D02*
X31250000Y-59750000D01*
D30*
%TO.N,POE_V+*%
X81000000Y-54000000D02*
X81000000Y-53900000D01*
D31*
X60167024Y-53000000D02*
X60167024Y-44001469D01*
D30*
X81000000Y-53900000D02*
X79550000Y-52450000D01*
D32*
X73750000Y-62480000D02*
X76730000Y-62480000D01*
X76730000Y-62480000D02*
X76750000Y-62500000D01*
D31*
X60167024Y-73001469D02*
X60167024Y-64000000D01*
D30*
X77200000Y-61450000D02*
X76250000Y-60500000D01*
D32*
X78724000Y-53276000D02*
X74364708Y-53276000D01*
D29*
X73770000Y-62500000D02*
X73750000Y-62480000D01*
D32*
X79550000Y-52450000D02*
X78724000Y-53276000D01*
D30*
X79550000Y-61450000D02*
X77200000Y-61450000D01*
D32*
X74364708Y-53276000D02*
X74025000Y-52936292D01*
X74025000Y-52936292D02*
X74025000Y-52137500D01*
D30*
X79550000Y-61450000D02*
X81000000Y-60000000D01*
%TO.N,POE_V-*%
X80550000Y-57550000D02*
X79550000Y-57550000D01*
D29*
X75975000Y-57862500D02*
X75975000Y-57975000D01*
D30*
X79550000Y-66550000D02*
X82000000Y-64100000D01*
X82000000Y-64100000D02*
X82000000Y-59000000D01*
D29*
X75975000Y-57975000D02*
X76750000Y-58750000D01*
D32*
X79237500Y-57862500D02*
X79550000Y-57550000D01*
X75975000Y-57862500D02*
X79237500Y-57862500D01*
D30*
X82000000Y-59000000D02*
X80550000Y-57550000D01*
X79550000Y-66550000D02*
X76800000Y-66550000D01*
X76800000Y-66550000D02*
X76750000Y-66500000D01*
D32*
X73750000Y-60510000D02*
X73750000Y-61520000D01*
X75000000Y-60510000D02*
X73750000Y-60510000D01*
%TO.N,POE_PAIR_2+*%
X92041000Y-66000000D02*
X92041000Y-79349000D01*
X90790000Y-43900000D02*
X92041000Y-45151000D01*
X92041000Y-79349000D02*
X90790000Y-80600000D01*
X91491000Y-66550000D02*
X92041000Y-66000000D01*
X92041000Y-45151000D02*
X92041000Y-66000000D01*
X88450000Y-66550000D02*
X91491000Y-66550000D01*
%TO.N,POE_PAIR_2-*%
X88000000Y-61900000D02*
X88450000Y-61450000D01*
X88000000Y-63000000D02*
X88000000Y-61900000D01*
%TO.N,POE_PAIR_1-*%
X88000000Y-52900000D02*
X88450000Y-52450000D01*
X88000000Y-54000000D02*
X88000000Y-52900000D01*
%TO.N,POE_PAIR_1+*%
X88000000Y-56000000D02*
X88000000Y-57100000D01*
X88000000Y-57100000D02*
X88450000Y-57550000D01*
D33*
%TO.N,Net-(LSI-U1-VPP_OUT)*%
X40349973Y-60010000D02*
X40349973Y-59524908D01*
D31*
X45345015Y-72994762D02*
X45345015Y-62994762D01*
D33*
X39749973Y-59524908D02*
X39749973Y-60010000D01*
X40109973Y-59284908D02*
X39989973Y-59284908D01*
X39302265Y-60250000D02*
X36000000Y-60250000D01*
X39509973Y-60250000D02*
X39389973Y-60250000D01*
X39389973Y-60250000D02*
X39302265Y-60250000D01*
X42600253Y-60250000D02*
X40589973Y-60250000D01*
X45345015Y-62994762D02*
X42600253Y-60250000D01*
X40589973Y-60250000D02*
G75*
G02*
X40350000Y-60010000I27J240000D01*
G01*
X40349973Y-59524908D02*
G75*
G03*
X40109973Y-59284927I-239973J8D01*
G01*
X39989973Y-59284908D02*
G75*
G03*
X39750008Y-59524908I27J-239992D01*
G01*
X39749973Y-60010000D02*
G75*
G02*
X39509973Y-60249973I-239973J0D01*
G01*
D29*
%TO.N,Net-(LSI-U1-S2)*%
X69490000Y-76250000D02*
X61415555Y-76250000D01*
X61415555Y-76250000D02*
X60167024Y-75001469D01*
D33*
%TO.N,Net-(LSI-U2-VPP_OUT)*%
X37707436Y-55620199D02*
X37792289Y-55535347D01*
X38677735Y-55572264D02*
X39249998Y-55000000D01*
X36000000Y-58249998D02*
X37829205Y-56420793D01*
X37829206Y-56081381D02*
X37707436Y-55959611D01*
X39249998Y-55000000D02*
X44339777Y-55000000D01*
X38131701Y-55535346D02*
X38253472Y-55657117D01*
X38592884Y-55657117D02*
X38677735Y-55572264D01*
X44339777Y-55000000D02*
X45345015Y-53994762D01*
D31*
X45345015Y-43994762D02*
X45345015Y-53994762D01*
D33*
X37829205Y-56420793D02*
G75*
G03*
X37829193Y-56081395I-169705J169693D01*
G01*
X37707436Y-55959611D02*
G75*
G02*
X37707431Y-55620194I169664J169711D01*
G01*
X38253472Y-55657117D02*
G75*
G03*
X38592884Y-55657117I169706J169701D01*
G01*
X37792289Y-55535347D02*
G75*
G02*
X38131706Y-55535341I169711J-169653D01*
G01*
D29*
%TO.N,Net-(LSI-U2-S2)*%
X61415555Y-57250000D02*
X60167024Y-56001469D01*
X69490000Y-57250000D02*
X61415555Y-57250000D01*
%TO.N,Net-(U3-PG)*%
X71250000Y-57250000D02*
X70510000Y-57250000D01*
X75325000Y-52137500D02*
X75325000Y-51175000D01*
X75325000Y-51175000D02*
X75500000Y-51000000D01*
X70510000Y-57250000D02*
X70510000Y-76250000D01*
%TO.N,Net-(U1-OUTA)*%
X33104400Y-60250000D02*
X31750000Y-60250000D01*
%TO.N,Net-(U1-OUTB)*%
X31750000Y-58250000D02*
X33104398Y-58250000D01*
X33104398Y-58250000D02*
X33104400Y-58249998D01*
%TO.N,Net-(U3-DET)*%
X76250000Y-59480000D02*
X75325000Y-58555000D01*
D32*
X76250000Y-59480000D02*
X76143708Y-59480000D01*
D29*
X75325000Y-58555000D02*
X75325000Y-57862500D01*
%TO.N,Net-(U3-ILIM)*%
X73750000Y-59490000D02*
X73750000Y-58137500D01*
X73750000Y-58137500D02*
X74025000Y-57862500D01*
%TO.N,Net-(U3-CLASS)*%
X74675000Y-57862500D02*
X74675000Y-59165000D01*
X74675000Y-59165000D02*
X75000000Y-59490000D01*
D28*
%TO.N,Net-(C1-Pad2)*%
X34725000Y-45250000D02*
X34725000Y-41762500D01*
X34725000Y-41762500D02*
X34712500Y-41750000D01*
%TO.N,Net-(C4-Pad2)*%
X34712500Y-66000000D02*
X34712500Y-69487500D01*
X34712500Y-69487500D02*
X34725000Y-69500000D01*
%TD*%
%TA.AperFunction,Conductor*%
%TO.N,GND*%
G36*
X78474685Y-58471644D02*
G01*
X78504672Y-58478168D01*
X78509687Y-58481922D01*
X78512284Y-58482685D01*
X78532926Y-58499319D01*
X78561652Y-58528045D01*
X78561654Y-58528046D01*
X78561658Y-58528050D01*
X78668814Y-58582649D01*
X78674698Y-58585647D01*
X78768475Y-58600499D01*
X78768481Y-58600500D01*
X80331518Y-58600499D01*
X80425304Y-58585646D01*
X80457442Y-58569270D01*
X80526108Y-58556374D01*
X80590849Y-58582649D01*
X80601417Y-58592074D01*
X81097162Y-59087819D01*
X81130647Y-59149142D01*
X81125663Y-59218834D01*
X81083791Y-59274767D01*
X81018327Y-59299184D01*
X81009481Y-59299500D01*
X80931004Y-59299500D01*
X80795677Y-59326418D01*
X80795667Y-59326421D01*
X80668192Y-59379222D01*
X80553454Y-59455887D01*
X79646160Y-60363181D01*
X79584837Y-60396666D01*
X79558479Y-60399500D01*
X78768482Y-60399500D01*
X78687519Y-60412323D01*
X78674696Y-60414354D01*
X78561658Y-60471950D01*
X78561657Y-60471951D01*
X78561652Y-60471954D01*
X78471954Y-60561652D01*
X78471951Y-60561657D01*
X78471950Y-60561658D01*
X78439652Y-60625047D01*
X78410737Y-60681795D01*
X78362762Y-60732591D01*
X78300252Y-60749500D01*
X77541519Y-60749500D01*
X77474480Y-60729815D01*
X77453838Y-60713181D01*
X76966984Y-60226327D01*
X76965752Y-60224638D01*
X76964796Y-60224084D01*
X76960925Y-60218017D01*
X76944366Y-60195304D01*
X76941562Y-60189845D01*
X76906163Y-60100078D01*
X76872958Y-60056291D01*
X76868010Y-60046658D01*
X76863401Y-60022555D01*
X76854682Y-59999615D01*
X76856955Y-59988843D01*
X76854888Y-59978032D01*
X76864041Y-59955264D01*
X76869109Y-59931251D01*
X76879499Y-59915082D01*
X76906163Y-59879922D01*
X76960166Y-59742979D01*
X76970500Y-59656927D01*
X76970499Y-59445615D01*
X76990183Y-59378576D01*
X77042987Y-59332821D01*
X77046995Y-59331075D01*
X77058127Y-59326465D01*
X77164669Y-59255276D01*
X77255276Y-59164669D01*
X77326465Y-59058127D01*
X77375501Y-58939744D01*
X77400500Y-58814069D01*
X77400500Y-58685931D01*
X77396971Y-58668192D01*
X77385633Y-58611193D01*
X77391860Y-58541601D01*
X77434722Y-58486423D01*
X77500612Y-58463178D01*
X77507250Y-58463000D01*
X78445245Y-58463000D01*
X78474685Y-58471644D01*
G37*
%TD.AperFunction*%
%TA.AperFunction,Conductor*%
G36*
X89912791Y-33521821D02*
G01*
X89974935Y-33521820D01*
X89982419Y-33522045D01*
X90272482Y-33539589D01*
X90287340Y-33541393D01*
X90569475Y-33593095D01*
X90584008Y-33596677D01*
X90584030Y-33596684D01*
X90857859Y-33682011D01*
X90871860Y-33687321D01*
X91133422Y-33805039D01*
X91146680Y-33811997D01*
X91392150Y-33960389D01*
X91404461Y-33968887D01*
X91623479Y-34140476D01*
X91630259Y-34145788D01*
X91641467Y-34155718D01*
X91844281Y-34358532D01*
X91854211Y-34369740D01*
X92031108Y-34595532D01*
X92039614Y-34607855D01*
X92188001Y-34853318D01*
X92194960Y-34866577D01*
X92312678Y-35128139D01*
X92317988Y-35142140D01*
X92403321Y-35415988D01*
X92406904Y-35430527D01*
X92458605Y-35712655D01*
X92460410Y-35727520D01*
X92477953Y-36017579D01*
X92478179Y-36025009D01*
X92478179Y-36027022D01*
X92478179Y-36087209D01*
X92478207Y-36087314D01*
X92478211Y-36095542D01*
X92478211Y-36095545D01*
X92481772Y-44443122D01*
X92462116Y-44510170D01*
X92409332Y-44555947D01*
X92340177Y-44565920D01*
X92276609Y-44536923D01*
X92270091Y-44530856D01*
X92043768Y-44304533D01*
X92010283Y-44243210D01*
X92008976Y-44197454D01*
X92040500Y-43998422D01*
X92040500Y-43801577D01*
X92009709Y-43607173D01*
X91962943Y-43463244D01*
X91948884Y-43419975D01*
X91948882Y-43419972D01*
X91948882Y-43419970D01*
X91898356Y-43320808D01*
X91859524Y-43244595D01*
X91743828Y-43085354D01*
X91604646Y-42946172D01*
X91525025Y-42888324D01*
X91445403Y-42830474D01*
X91268787Y-42740485D01*
X91217990Y-42692511D01*
X91201195Y-42624690D01*
X91223732Y-42558555D01*
X91268787Y-42519515D01*
X91445403Y-42429525D01*
X91445402Y-42429525D01*
X91445405Y-42429524D01*
X91604646Y-42313828D01*
X91743828Y-42174646D01*
X91859524Y-42015405D01*
X91948884Y-41840025D01*
X92009709Y-41652826D01*
X92040500Y-41458422D01*
X92040500Y-41261577D01*
X92009709Y-41067173D01*
X91948882Y-40879970D01*
X91859523Y-40704594D01*
X91855183Y-40698620D01*
X91743828Y-40545354D01*
X91604646Y-40406172D01*
X91445405Y-40290476D01*
X91411375Y-40273137D01*
X91270029Y-40201117D01*
X91082826Y-40140290D01*
X90888422Y-40109500D01*
X90888417Y-40109500D01*
X90691583Y-40109500D01*
X90691578Y-40109500D01*
X90497173Y-40140290D01*
X90309970Y-40201117D01*
X90134594Y-40290476D01*
X90043741Y-40356485D01*
X89975354Y-40406172D01*
X89975352Y-40406174D01*
X89975351Y-40406174D01*
X89836173Y-40545352D01*
X89724817Y-40698620D01*
X89669486Y-40741285D01*
X89599873Y-40747264D01*
X89538078Y-40714658D01*
X89503721Y-40653819D01*
X89500499Y-40625734D01*
X89500499Y-40478482D01*
X89500498Y-40478475D01*
X89485646Y-40384696D01*
X89428050Y-40271658D01*
X89428046Y-40271654D01*
X89428045Y-40271652D01*
X89338347Y-40181954D01*
X89338344Y-40181952D01*
X89338342Y-40181950D01*
X89256580Y-40140290D01*
X89225301Y-40124352D01*
X89131524Y-40109500D01*
X87368482Y-40109500D01*
X87287519Y-40122323D01*
X87274696Y-40124354D01*
X87161658Y-40181950D01*
X87161657Y-40181951D01*
X87161652Y-40181954D01*
X87071954Y-40271652D01*
X87071951Y-40271657D01*
X87071950Y-40271658D01*
X87062362Y-40290476D01*
X87014352Y-40384698D01*
X86999500Y-40478475D01*
X86999500Y-42241517D01*
X87010292Y-42309657D01*
X87014354Y-42335304D01*
X87071950Y-42448342D01*
X87071952Y-42448344D01*
X87071954Y-42448347D01*
X87161652Y-42538045D01*
X87161654Y-42538046D01*
X87161658Y-42538050D01*
X87271980Y-42594262D01*
X87274698Y-42595647D01*
X87368475Y-42610499D01*
X87368481Y-42610500D01*
X87515735Y-42610499D01*
X87582772Y-42630183D01*
X87628527Y-42682987D01*
X87638471Y-42752145D01*
X87609446Y-42815701D01*
X87588619Y-42834816D01*
X87435360Y-42946167D01*
X87435351Y-42946174D01*
X87296174Y-43085351D01*
X87296174Y-43085352D01*
X87296172Y-43085354D01*
X87274035Y-43115823D01*
X87180476Y-43244594D01*
X87091117Y-43419970D01*
X87030290Y-43607173D01*
X86999500Y-43801577D01*
X86999500Y-43998422D01*
X87030290Y-44192826D01*
X87091117Y-44380029D01*
X87171059Y-44536923D01*
X87180476Y-44555405D01*
X87296172Y-44714646D01*
X87435354Y-44853828D01*
X87594595Y-44969524D01*
X87677455Y-45011743D01*
X87769970Y-45058882D01*
X87769972Y-45058882D01*
X87769975Y-45058884D01*
X87832264Y-45079123D01*
X87957173Y-45119709D01*
X88151578Y-45150500D01*
X88151583Y-45150500D01*
X88348422Y-45150500D01*
X88542826Y-45119709D01*
X88562003Y-45113478D01*
X88730025Y-45058884D01*
X88905405Y-44969524D01*
X89064646Y-44853828D01*
X89203828Y-44714646D01*
X89319524Y-44555405D01*
X89408884Y-44380025D01*
X89409515Y-44378787D01*
X89457489Y-44327990D01*
X89525310Y-44311195D01*
X89591445Y-44333732D01*
X89630485Y-44378787D01*
X89720474Y-44555403D01*
X89755234Y-44603246D01*
X89836172Y-44714646D01*
X89975354Y-44853828D01*
X90134595Y-44969524D01*
X90217455Y-45011743D01*
X90309970Y-45058882D01*
X90309972Y-45058882D01*
X90309975Y-45058884D01*
X90372264Y-45079123D01*
X90497173Y-45119709D01*
X90691578Y-45150500D01*
X90691583Y-45150500D01*
X90888422Y-45150500D01*
X91087454Y-45118976D01*
X91156747Y-45127930D01*
X91194533Y-45153768D01*
X91404181Y-45363416D01*
X91437666Y-45424739D01*
X91440500Y-45451097D01*
X91440500Y-65699903D01*
X91431855Y-65729343D01*
X91425332Y-65759330D01*
X91421577Y-65764345D01*
X91420815Y-65766942D01*
X91404181Y-65787584D01*
X91278584Y-65913181D01*
X91217261Y-65946666D01*
X91190903Y-65949500D01*
X89719238Y-65949500D01*
X89652199Y-65929815D01*
X89606444Y-65877011D01*
X89596765Y-65844897D01*
X89585647Y-65774700D01*
X89585647Y-65774699D01*
X89585646Y-65774697D01*
X89585646Y-65774696D01*
X89528050Y-65661658D01*
X89528046Y-65661654D01*
X89528045Y-65661652D01*
X89438347Y-65571954D01*
X89438344Y-65571952D01*
X89438342Y-65571950D01*
X89348708Y-65526279D01*
X89325301Y-65514352D01*
X89231524Y-65499500D01*
X87668482Y-65499500D01*
X87587519Y-65512323D01*
X87574696Y-65514354D01*
X87461658Y-65571950D01*
X87461657Y-65571951D01*
X87461652Y-65571954D01*
X87371954Y-65661652D01*
X87371951Y-65661657D01*
X87314352Y-65774698D01*
X87299500Y-65868475D01*
X87299500Y-67231517D01*
X87306308Y-67274500D01*
X87314354Y-67325304D01*
X87371950Y-67438342D01*
X87371952Y-67438344D01*
X87371954Y-67438347D01*
X87461652Y-67528045D01*
X87461654Y-67528046D01*
X87461658Y-67528050D01*
X87574694Y-67585645D01*
X87574698Y-67585647D01*
X87668475Y-67600499D01*
X87668481Y-67600500D01*
X89231518Y-67600499D01*
X89325304Y-67585646D01*
X89438342Y-67528050D01*
X89528050Y-67438342D01*
X89585646Y-67325304D01*
X89589411Y-67301533D01*
X89596766Y-67255101D01*
X89626696Y-67191967D01*
X89686007Y-67155036D01*
X89719239Y-67150500D01*
X91316500Y-67150500D01*
X91383539Y-67170185D01*
X91429294Y-67222989D01*
X91440500Y-67274500D01*
X91440500Y-76786150D01*
X91420815Y-76853189D01*
X91368011Y-76898944D01*
X91298853Y-76908888D01*
X91274768Y-76902281D01*
X91274658Y-76902622D01*
X91270028Y-76901117D01*
X91270025Y-76901116D01*
X91199925Y-76878339D01*
X91082826Y-76840290D01*
X90888422Y-76809500D01*
X90888417Y-76809500D01*
X90691583Y-76809500D01*
X90691578Y-76809500D01*
X90497173Y-76840290D01*
X90309970Y-76901117D01*
X90134594Y-76990476D01*
X90043741Y-77056485D01*
X89975354Y-77106172D01*
X89975352Y-77106174D01*
X89975351Y-77106174D01*
X89836173Y-77245352D01*
X89724817Y-77398620D01*
X89669486Y-77441285D01*
X89599873Y-77447264D01*
X89538078Y-77414658D01*
X89503721Y-77353819D01*
X89500499Y-77325734D01*
X89500499Y-77178482D01*
X89489047Y-77106174D01*
X89485646Y-77084696D01*
X89428050Y-76971658D01*
X89428046Y-76971654D01*
X89428045Y-76971652D01*
X89338347Y-76881954D01*
X89338344Y-76881952D01*
X89338342Y-76881950D01*
X89256580Y-76840290D01*
X89225301Y-76824352D01*
X89131524Y-76809500D01*
X87368482Y-76809500D01*
X87287519Y-76822323D01*
X87274696Y-76824354D01*
X87161658Y-76881950D01*
X87161657Y-76881951D01*
X87161652Y-76881954D01*
X87071954Y-76971652D01*
X87071951Y-76971657D01*
X87014352Y-77084698D01*
X86999500Y-77178475D01*
X86999500Y-78941517D01*
X87010292Y-79009657D01*
X87014354Y-79035304D01*
X87071950Y-79148342D01*
X87071952Y-79148344D01*
X87071954Y-79148347D01*
X87161652Y-79238045D01*
X87161654Y-79238046D01*
X87161658Y-79238050D01*
X87274694Y-79295645D01*
X87274698Y-79295647D01*
X87368475Y-79310499D01*
X87368481Y-79310500D01*
X87515735Y-79310499D01*
X87582772Y-79330183D01*
X87628527Y-79382987D01*
X87638471Y-79452145D01*
X87609446Y-79515701D01*
X87588619Y-79534816D01*
X87435360Y-79646167D01*
X87435351Y-79646174D01*
X87296174Y-79785351D01*
X87296174Y-79785352D01*
X87296172Y-79785354D01*
X87264083Y-79829521D01*
X87180476Y-79944594D01*
X87091117Y-80119970D01*
X87030290Y-80307173D01*
X86999500Y-80501577D01*
X86999500Y-80698422D01*
X87030290Y-80892826D01*
X87091117Y-81080029D01*
X87180475Y-81255403D01*
X87180476Y-81255405D01*
X87296172Y-81414646D01*
X87435354Y-81553828D01*
X87594595Y-81669524D01*
X87677455Y-81711743D01*
X87769970Y-81758882D01*
X87769972Y-81758882D01*
X87769975Y-81758884D01*
X87870317Y-81791487D01*
X87957173Y-81819709D01*
X88151578Y-81850500D01*
X88151583Y-81850500D01*
X88348422Y-81850500D01*
X88542826Y-81819709D01*
X88730025Y-81758884D01*
X88905405Y-81669524D01*
X89064646Y-81553828D01*
X89203828Y-81414646D01*
X89319524Y-81255405D01*
X89408884Y-81080025D01*
X89409515Y-81078787D01*
X89457489Y-81027990D01*
X89525310Y-81011195D01*
X89591445Y-81033732D01*
X89630485Y-81078787D01*
X89720474Y-81255403D01*
X89755234Y-81303246D01*
X89836172Y-81414646D01*
X89975354Y-81553828D01*
X90134595Y-81669524D01*
X90217455Y-81711743D01*
X90309970Y-81758882D01*
X90309972Y-81758882D01*
X90309975Y-81758884D01*
X90410317Y-81791487D01*
X90497173Y-81819709D01*
X90691578Y-81850500D01*
X90691583Y-81850500D01*
X90888422Y-81850500D01*
X91082826Y-81819709D01*
X91270025Y-81758884D01*
X91445405Y-81669524D01*
X91604646Y-81553828D01*
X91743828Y-81414646D01*
X91859524Y-81255405D01*
X91948884Y-81080025D01*
X92009709Y-80892826D01*
X92040500Y-80698422D01*
X92040500Y-80501578D01*
X92026609Y-80413882D01*
X92009709Y-80307174D01*
X92009707Y-80307168D01*
X92008975Y-80302546D01*
X92017929Y-80233252D01*
X92043764Y-80195469D01*
X92285278Y-79953955D01*
X92346599Y-79920472D01*
X92416291Y-79925456D01*
X92472224Y-79967328D01*
X92496641Y-80032792D01*
X92496957Y-80041585D01*
X92499498Y-85996222D01*
X92499272Y-86003762D01*
X92481728Y-86293794D01*
X92479923Y-86308659D01*
X92428219Y-86590798D01*
X92424635Y-86605336D01*
X92339306Y-86879167D01*
X92333997Y-86893168D01*
X92216275Y-87154736D01*
X92209316Y-87167995D01*
X92060928Y-87413459D01*
X92052422Y-87425782D01*
X91875526Y-87651573D01*
X91865596Y-87662781D01*
X91662781Y-87865596D01*
X91651573Y-87875526D01*
X91425782Y-88052422D01*
X91413459Y-88060928D01*
X91167995Y-88209316D01*
X91154736Y-88216275D01*
X90893168Y-88333997D01*
X90879167Y-88339306D01*
X90605336Y-88424635D01*
X90590798Y-88428219D01*
X90308659Y-88479923D01*
X90293794Y-88481728D01*
X90003756Y-88499272D01*
X89996224Y-88499498D01*
X31095376Y-88478205D01*
X31095375Y-88478205D01*
X31087296Y-88478202D01*
X31087209Y-88478179D01*
X31025016Y-88478179D01*
X31025010Y-88478177D01*
X31017576Y-88477953D01*
X30727520Y-88460410D01*
X30712655Y-88458605D01*
X30430527Y-88406904D01*
X30415988Y-88403321D01*
X30142140Y-88317988D01*
X30128139Y-88312678D01*
X29866577Y-88194960D01*
X29853318Y-88188001D01*
X29643113Y-88060928D01*
X29607852Y-88039612D01*
X29595532Y-88031108D01*
X29369740Y-87854211D01*
X29358532Y-87844281D01*
X29155718Y-87641467D01*
X29145788Y-87630259D01*
X28968887Y-87404461D01*
X28960389Y-87392150D01*
X28811997Y-87146680D01*
X28805039Y-87133422D01*
X28687321Y-86871860D01*
X28682011Y-86857859D01*
X28596678Y-86584011D01*
X28593095Y-86569472D01*
X28541393Y-86287340D01*
X28539589Y-86272479D01*
X28532220Y-86150646D01*
X28522045Y-85982419D01*
X28521820Y-85974934D01*
X28521821Y-85912791D01*
X28521820Y-85912787D01*
X28521820Y-85381902D01*
X29999500Y-85381902D01*
X29999500Y-85618097D01*
X30036446Y-85851368D01*
X30109433Y-86075996D01*
X30209547Y-86272479D01*
X30216657Y-86286433D01*
X30355483Y-86477510D01*
X30522490Y-86644517D01*
X30713567Y-86783343D01*
X30805643Y-86830258D01*
X30924003Y-86890566D01*
X30924005Y-86890566D01*
X30924008Y-86890568D01*
X31044412Y-86929689D01*
X31148631Y-86963553D01*
X31381903Y-87000500D01*
X31381908Y-87000500D01*
X31618097Y-87000500D01*
X31851368Y-86963553D01*
X32075992Y-86890568D01*
X32286433Y-86783343D01*
X32477510Y-86644517D01*
X32644517Y-86477510D01*
X32783343Y-86286433D01*
X32890568Y-86075992D01*
X32963553Y-85851368D01*
X33000500Y-85618097D01*
X33000500Y-85381902D01*
X87999500Y-85381902D01*
X87999500Y-85618097D01*
X88036446Y-85851368D01*
X88109433Y-86075996D01*
X88209547Y-86272479D01*
X88216657Y-86286433D01*
X88355483Y-86477510D01*
X88522490Y-86644517D01*
X88713567Y-86783343D01*
X88805643Y-86830258D01*
X88924003Y-86890566D01*
X88924005Y-86890566D01*
X88924008Y-86890568D01*
X89044412Y-86929689D01*
X89148631Y-86963553D01*
X89381903Y-87000500D01*
X89381908Y-87000500D01*
X89618097Y-87000500D01*
X89851368Y-86963553D01*
X90075992Y-86890568D01*
X90286433Y-86783343D01*
X90477510Y-86644517D01*
X90644517Y-86477510D01*
X90783343Y-86286433D01*
X90890568Y-86075992D01*
X90963553Y-85851368D01*
X91000500Y-85618097D01*
X91000500Y-85381902D01*
X90963553Y-85148631D01*
X90890566Y-84924003D01*
X90783342Y-84713566D01*
X90644517Y-84522490D01*
X90477510Y-84355483D01*
X90286433Y-84216657D01*
X90075996Y-84109433D01*
X89851368Y-84036446D01*
X89618097Y-83999500D01*
X89618092Y-83999500D01*
X89381908Y-83999500D01*
X89381903Y-83999500D01*
X89148631Y-84036446D01*
X88924003Y-84109433D01*
X88713566Y-84216657D01*
X88604550Y-84295862D01*
X88522490Y-84355483D01*
X88522488Y-84355485D01*
X88522487Y-84355485D01*
X88355485Y-84522487D01*
X88355485Y-84522488D01*
X88355483Y-84522490D01*
X88295862Y-84604550D01*
X88216657Y-84713566D01*
X88109433Y-84924003D01*
X88036446Y-85148631D01*
X87999500Y-85381902D01*
X33000500Y-85381902D01*
X32963553Y-85148631D01*
X32890566Y-84924003D01*
X32783342Y-84713566D01*
X32644517Y-84522490D01*
X32477510Y-84355483D01*
X32286433Y-84216657D01*
X32075996Y-84109433D01*
X31851368Y-84036446D01*
X31618097Y-83999500D01*
X31618092Y-83999500D01*
X31381908Y-83999500D01*
X31381903Y-83999500D01*
X31148631Y-84036446D01*
X30924003Y-84109433D01*
X30713566Y-84216657D01*
X30604550Y-84295862D01*
X30522490Y-84355483D01*
X30522488Y-84355485D01*
X30522487Y-84355485D01*
X30355485Y-84522487D01*
X30355485Y-84522488D01*
X30355483Y-84522490D01*
X30295862Y-84604550D01*
X30216657Y-84713566D01*
X30109433Y-84924003D01*
X30036446Y-85148631D01*
X29999500Y-85381902D01*
X28521820Y-85381902D01*
X28521820Y-71318995D01*
X30549499Y-71318995D01*
X30576418Y-71454322D01*
X30576421Y-71454332D01*
X30629221Y-71581804D01*
X30629228Y-71581817D01*
X30705884Y-71696540D01*
X30705885Y-71696541D01*
X30705886Y-71696542D01*
X30763182Y-71753838D01*
X30796666Y-71815159D01*
X30799500Y-71841518D01*
X30799500Y-74158480D01*
X30779815Y-74225519D01*
X30763183Y-74246160D01*
X30705883Y-74303461D01*
X30629228Y-74418182D01*
X30629221Y-74418195D01*
X30576421Y-74545667D01*
X30576418Y-74545677D01*
X30549500Y-74681004D01*
X30549500Y-74681007D01*
X30549500Y-74818993D01*
X30549500Y-74818995D01*
X30549499Y-74818995D01*
X30576418Y-74954322D01*
X30576421Y-74954332D01*
X30629221Y-75081804D01*
X30629228Y-75081817D01*
X30705884Y-75196540D01*
X30705885Y-75196541D01*
X30705886Y-75196542D01*
X30763182Y-75253838D01*
X30796666Y-75315159D01*
X30799500Y-75341518D01*
X30799500Y-77408481D01*
X30779815Y-77475520D01*
X30763181Y-77496162D01*
X30705888Y-77553454D01*
X30705885Y-77553458D01*
X30629228Y-77668182D01*
X30629221Y-77668195D01*
X30576421Y-77795667D01*
X30576418Y-77795677D01*
X30549500Y-77931004D01*
X30549500Y-77931007D01*
X30549500Y-78068993D01*
X30549500Y-78068995D01*
X30549499Y-78068995D01*
X30576418Y-78204322D01*
X30576421Y-78204332D01*
X30629221Y-78331804D01*
X30629228Y-78331817D01*
X30705885Y-78446541D01*
X30705888Y-78446545D01*
X30803454Y-78544111D01*
X30803458Y-78544114D01*
X30918182Y-78620771D01*
X30918195Y-78620778D01*
X31042007Y-78672062D01*
X31045672Y-78673580D01*
X31045676Y-78673580D01*
X31045677Y-78673581D01*
X31181004Y-78700500D01*
X31181007Y-78700500D01*
X31318995Y-78700500D01*
X31410041Y-78682389D01*
X31454328Y-78673580D01*
X31454335Y-78673576D01*
X31460155Y-78671812D01*
X31460651Y-78673448D01*
X31522003Y-78666846D01*
X31539769Y-78672062D01*
X31539845Y-78671812D01*
X31545667Y-78673578D01*
X31545672Y-78673580D01*
X31545676Y-78673580D01*
X31545677Y-78673581D01*
X31681004Y-78700500D01*
X31681007Y-78700500D01*
X31818995Y-78700500D01*
X31910041Y-78682389D01*
X31954328Y-78673580D01*
X31954335Y-78673576D01*
X31960155Y-78671812D01*
X31960651Y-78673448D01*
X32022003Y-78666846D01*
X32039769Y-78672062D01*
X32039845Y-78671812D01*
X32045667Y-78673578D01*
X32045672Y-78673580D01*
X32045676Y-78673580D01*
X32045677Y-78673581D01*
X32181004Y-78700500D01*
X32181007Y-78700500D01*
X32318995Y-78700500D01*
X32410041Y-78682389D01*
X32454328Y-78673580D01*
X32581811Y-78620775D01*
X32696542Y-78544114D01*
X32794114Y-78446542D01*
X32870775Y-78331811D01*
X32923580Y-78204328D01*
X32950500Y-78068993D01*
X32950500Y-77931007D01*
X32950500Y-77931004D01*
X32923581Y-77795677D01*
X32923580Y-77795676D01*
X32923580Y-77795672D01*
X32911776Y-77767174D01*
X32870778Y-77668195D01*
X32870771Y-77668182D01*
X32794114Y-77553458D01*
X32794111Y-77553454D01*
X32786819Y-77546162D01*
X32753334Y-77484839D01*
X32750500Y-77458481D01*
X32750500Y-75334313D01*
X32750500Y-75334306D01*
X32748115Y-75304011D01*
X32762478Y-75235637D01*
X32784052Y-75206603D01*
X32794114Y-75196542D01*
X32870775Y-75081811D01*
X32923580Y-74954328D01*
X32950500Y-74818993D01*
X32950500Y-74681007D01*
X32950500Y-74681004D01*
X32923581Y-74545677D01*
X32923580Y-74545676D01*
X32923580Y-74545672D01*
X32889435Y-74463237D01*
X39484515Y-74463237D01*
X39484515Y-75526279D01*
X39491692Y-75571593D01*
X39499369Y-75620066D01*
X39556965Y-75733104D01*
X39556967Y-75733106D01*
X39556969Y-75733109D01*
X39646667Y-75822807D01*
X39646669Y-75822808D01*
X39646673Y-75822812D01*
X39759709Y-75880407D01*
X39759713Y-75880409D01*
X39853490Y-75895261D01*
X39853496Y-75895262D01*
X42496533Y-75895261D01*
X42590319Y-75880408D01*
X42703357Y-75822812D01*
X42793065Y-75733104D01*
X42850661Y-75620066D01*
X42850661Y-75620064D01*
X42850662Y-75620063D01*
X42863368Y-75539834D01*
X42865515Y-75526281D01*
X42865514Y-74463244D01*
X42850661Y-74369458D01*
X42793065Y-74256420D01*
X42793061Y-74256416D01*
X42793060Y-74256414D01*
X42703362Y-74166716D01*
X42703359Y-74166714D01*
X42703357Y-74166712D01*
X42626532Y-74127567D01*
X42590316Y-74109114D01*
X42496539Y-74094262D01*
X39853497Y-74094262D01*
X39772534Y-74107085D01*
X39759711Y-74109116D01*
X39646673Y-74166712D01*
X39646672Y-74166713D01*
X39646667Y-74166716D01*
X39556969Y-74256414D01*
X39556966Y-74256419D01*
X39556965Y-74256420D01*
X39553548Y-74263127D01*
X39499367Y-74369460D01*
X39484515Y-74463237D01*
X32889435Y-74463237D01*
X32886843Y-74456980D01*
X32870778Y-74418195D01*
X32870771Y-74418182D01*
X32794114Y-74303458D01*
X32794111Y-74303454D01*
X32784053Y-74293396D01*
X32750568Y-74232073D01*
X32748116Y-74195987D01*
X32748156Y-74195472D01*
X32750500Y-74165694D01*
X32750500Y-71834306D01*
X32748115Y-71804011D01*
X32762478Y-71735637D01*
X32784052Y-71706603D01*
X32794114Y-71696542D01*
X32870775Y-71581811D01*
X32923580Y-71454328D01*
X32950500Y-71318993D01*
X32950500Y-71181007D01*
X32950500Y-71181004D01*
X32923581Y-71045677D01*
X32923580Y-71045676D01*
X32923580Y-71045672D01*
X32905435Y-71001865D01*
X32870778Y-70918195D01*
X32870771Y-70918182D01*
X32794114Y-70803458D01*
X32794111Y-70803454D01*
X32784053Y-70793396D01*
X32750568Y-70732073D01*
X32748116Y-70695987D01*
X32750499Y-70665701D01*
X32750500Y-70665694D01*
X32750500Y-68334306D01*
X32747598Y-68297431D01*
X32737631Y-68263126D01*
X32709621Y-68166716D01*
X32701744Y-68139602D01*
X32618081Y-67998135D01*
X32618079Y-67998133D01*
X32618076Y-67998129D01*
X32501870Y-67881923D01*
X32501862Y-67881917D01*
X32360396Y-67798255D01*
X32360393Y-67798254D01*
X32202573Y-67752402D01*
X32202567Y-67752401D01*
X32165701Y-67749500D01*
X32165694Y-67749500D01*
X31384306Y-67749500D01*
X31384298Y-67749500D01*
X31347432Y-67752401D01*
X31347426Y-67752402D01*
X31189606Y-67798254D01*
X31189603Y-67798255D01*
X31048137Y-67881917D01*
X31048129Y-67881923D01*
X30931923Y-67998129D01*
X30931917Y-67998137D01*
X30848255Y-68139603D01*
X30848254Y-68139606D01*
X30802402Y-68297426D01*
X30802401Y-68297432D01*
X30799500Y-68334298D01*
X30799500Y-70658480D01*
X30779815Y-70725519D01*
X30763183Y-70746160D01*
X30705883Y-70803461D01*
X30629228Y-70918182D01*
X30629221Y-70918195D01*
X30576421Y-71045667D01*
X30576418Y-71045677D01*
X30549500Y-71181004D01*
X30549500Y-71181007D01*
X30549500Y-71318993D01*
X30549500Y-71318995D01*
X30549499Y-71318995D01*
X28521820Y-71318995D01*
X28521820Y-64859298D01*
X33749500Y-64859298D01*
X33749500Y-67140701D01*
X33752401Y-67177567D01*
X33752402Y-67177573D01*
X33798254Y-67335393D01*
X33798255Y-67335396D01*
X33881917Y-67476863D01*
X33885979Y-67482099D01*
X33911514Y-67547136D01*
X33912000Y-67558100D01*
X33912000Y-67916899D01*
X33892315Y-67983938D01*
X33885982Y-67992895D01*
X33881922Y-67998129D01*
X33798255Y-68139603D01*
X33798254Y-68139606D01*
X33752402Y-68297426D01*
X33752401Y-68297432D01*
X33749500Y-68334298D01*
X33749500Y-70665701D01*
X33752401Y-70702567D01*
X33752402Y-70702573D01*
X33798254Y-70860393D01*
X33798255Y-70860396D01*
X33881917Y-71001862D01*
X33881923Y-71001870D01*
X33998129Y-71118076D01*
X33998133Y-71118079D01*
X33998135Y-71118081D01*
X34139602Y-71201744D01*
X34181224Y-71213836D01*
X34297426Y-71247597D01*
X34297429Y-71247597D01*
X34297431Y-71247598D01*
X34334306Y-71250500D01*
X34334314Y-71250500D01*
X35115686Y-71250500D01*
X35115694Y-71250500D01*
X35152569Y-71247598D01*
X35152571Y-71247597D01*
X35152573Y-71247597D01*
X35194191Y-71235505D01*
X35310398Y-71201744D01*
X35451865Y-71118081D01*
X35568081Y-71001865D01*
X35651744Y-70860398D01*
X35697598Y-70702569D01*
X35700500Y-70665694D01*
X35700500Y-68334306D01*
X35697598Y-68297431D01*
X35687631Y-68263126D01*
X35659621Y-68166716D01*
X35651744Y-68139602D01*
X35568081Y-67998135D01*
X35568079Y-67998133D01*
X35568076Y-67998129D01*
X35549319Y-67979372D01*
X35515834Y-67918049D01*
X35513000Y-67891691D01*
X35513000Y-67558100D01*
X35532685Y-67491061D01*
X35539021Y-67482099D01*
X35543078Y-67476867D01*
X35543081Y-67476865D01*
X35626744Y-67335398D01*
X35672598Y-67177569D01*
X35675500Y-67140694D01*
X35675500Y-64859306D01*
X35672598Y-64822431D01*
X35626744Y-64664602D01*
X35543081Y-64523135D01*
X35543079Y-64523133D01*
X35543076Y-64523129D01*
X35426870Y-64406923D01*
X35426862Y-64406917D01*
X35285396Y-64323255D01*
X35285393Y-64323254D01*
X35127573Y-64277402D01*
X35127567Y-64277401D01*
X35090701Y-64274500D01*
X35090694Y-64274500D01*
X34334306Y-64274500D01*
X34334298Y-64274500D01*
X34297432Y-64277401D01*
X34297426Y-64277402D01*
X34139606Y-64323254D01*
X34139603Y-64323255D01*
X33998137Y-64406917D01*
X33998129Y-64406923D01*
X33881923Y-64523129D01*
X33881917Y-64523137D01*
X33798255Y-64664603D01*
X33798254Y-64664606D01*
X33752402Y-64822426D01*
X33752401Y-64822432D01*
X33749500Y-64859298D01*
X28521820Y-64859298D01*
X28521820Y-58670943D01*
X30649500Y-58670943D01*
X30649500Y-58829056D01*
X30686704Y-58967907D01*
X30686704Y-59032093D01*
X30649500Y-59170943D01*
X30649500Y-59329056D01*
X30686704Y-59467907D01*
X30686704Y-59532093D01*
X30649500Y-59670943D01*
X30649500Y-59829056D01*
X30690423Y-59981783D01*
X30690426Y-59981790D01*
X30769475Y-60118709D01*
X30769479Y-60118714D01*
X30769480Y-60118716D01*
X30881284Y-60230520D01*
X30881286Y-60230521D01*
X30881290Y-60230524D01*
X31018209Y-60309573D01*
X31018216Y-60309577D01*
X31110492Y-60334302D01*
X31170151Y-60370666D01*
X31200680Y-60433513D01*
X31201687Y-60440824D01*
X31205587Y-60477114D01*
X31246916Y-60587917D01*
X31253372Y-60605226D01*
X31335313Y-60714687D01*
X31444774Y-60796628D01*
X31572886Y-60844412D01*
X31629515Y-60850500D01*
X31870484Y-60850499D01*
X31927114Y-60844412D01*
X32055226Y-60796628D01*
X32083806Y-60775232D01*
X32149270Y-60750816D01*
X32158117Y-60750500D01*
X32519089Y-60750500D01*
X32562964Y-60761032D01*
X32563420Y-60759632D01*
X32572694Y-60762645D01*
X32572696Y-60762646D01*
X32666481Y-60777500D01*
X33341045Y-60777499D01*
X33408084Y-60797183D01*
X33428726Y-60813818D01*
X33437552Y-60822644D01*
X33437554Y-60822645D01*
X33437558Y-60822649D01*
X33538999Y-60874336D01*
X33550598Y-60880246D01*
X33644375Y-60895098D01*
X33644381Y-60895099D01*
X35460018Y-60895098D01*
X35553804Y-60880245D01*
X35666842Y-60822649D01*
X35675673Y-60813818D01*
X35702600Y-60799114D01*
X35728419Y-60782522D01*
X35734619Y-60781630D01*
X35736996Y-60780333D01*
X35763354Y-60777499D01*
X35825360Y-60777499D01*
X35857454Y-60781724D01*
X35927525Y-60800500D01*
X35927527Y-60800500D01*
X39587572Y-60800500D01*
X39587763Y-60800480D01*
X39587771Y-60800481D01*
X39740503Y-60770117D01*
X39884375Y-60710537D01*
X39981097Y-60645919D01*
X40047774Y-60625047D01*
X40115153Y-60643536D01*
X40118876Y-60645929D01*
X40215504Y-60710503D01*
X40359350Y-60770101D01*
X40512059Y-60800492D01*
X40512064Y-60800492D01*
X40517471Y-60800492D01*
X40517498Y-60800500D01*
X40589910Y-60800500D01*
X40589911Y-60800500D01*
X40656754Y-60800507D01*
X40656756Y-60800506D01*
X40664282Y-60800507D01*
X40664413Y-60800500D01*
X42320866Y-60800500D01*
X42387905Y-60820185D01*
X42408547Y-60836819D01*
X43697414Y-62125686D01*
X43730899Y-62187009D01*
X43725915Y-62256701D01*
X43720218Y-62269662D01*
X43669367Y-62369460D01*
X43654515Y-62463237D01*
X43654515Y-63526279D01*
X43660758Y-63565694D01*
X43669369Y-63620066D01*
X43726965Y-63733104D01*
X43726967Y-63733106D01*
X43726969Y-63733109D01*
X43816667Y-63822807D01*
X43816673Y-63822812D01*
X43876811Y-63853454D01*
X43887872Y-63863901D01*
X43901718Y-63870224D01*
X43912759Y-63887405D01*
X43927605Y-63901426D01*
X43931846Y-63917105D01*
X43939492Y-63929002D01*
X43944515Y-63963937D01*
X43944515Y-64025586D01*
X43924830Y-64092625D01*
X43876811Y-64136069D01*
X43816673Y-64166712D01*
X43816672Y-64166713D01*
X43816667Y-64166716D01*
X43726969Y-64256414D01*
X43726966Y-64256419D01*
X43669367Y-64369460D01*
X43654515Y-64463237D01*
X43654515Y-65526279D01*
X43661749Y-65571950D01*
X43669369Y-65620066D01*
X43726965Y-65733104D01*
X43726967Y-65733106D01*
X43726969Y-65733109D01*
X43816667Y-65822807D01*
X43816673Y-65822812D01*
X43876811Y-65853454D01*
X43887872Y-65863901D01*
X43901718Y-65870224D01*
X43912759Y-65887405D01*
X43927605Y-65901426D01*
X43931846Y-65917105D01*
X43939492Y-65929002D01*
X43944515Y-65963937D01*
X43944515Y-66025586D01*
X43924830Y-66092625D01*
X43876811Y-66136069D01*
X43816673Y-66166712D01*
X43816672Y-66166713D01*
X43816667Y-66166716D01*
X43726969Y-66256414D01*
X43726966Y-66256419D01*
X43726965Y-66256420D01*
X43723548Y-66263127D01*
X43669367Y-66369460D01*
X43654515Y-66463237D01*
X43654515Y-67526279D01*
X43660758Y-67565694D01*
X43669369Y-67620066D01*
X43726965Y-67733104D01*
X43726967Y-67733106D01*
X43726969Y-67733109D01*
X43816667Y-67822807D01*
X43816673Y-67822812D01*
X43876811Y-67853454D01*
X43887872Y-67863901D01*
X43901718Y-67870224D01*
X43912759Y-67887405D01*
X43927605Y-67901426D01*
X43931846Y-67917105D01*
X43939492Y-67929002D01*
X43944515Y-67963937D01*
X43944515Y-68025586D01*
X43924830Y-68092625D01*
X43876811Y-68136069D01*
X43816673Y-68166712D01*
X43816672Y-68166713D01*
X43816667Y-68166716D01*
X43726969Y-68256414D01*
X43726966Y-68256419D01*
X43726965Y-68256420D01*
X43723548Y-68263127D01*
X43669367Y-68369460D01*
X43654515Y-68463237D01*
X43654515Y-69526279D01*
X43665307Y-69594419D01*
X43669369Y-69620066D01*
X43726965Y-69733104D01*
X43726967Y-69733106D01*
X43726969Y-69733109D01*
X43816667Y-69822807D01*
X43816673Y-69822812D01*
X43876811Y-69853454D01*
X43887872Y-69863901D01*
X43901718Y-69870224D01*
X43912759Y-69887405D01*
X43927605Y-69901426D01*
X43931846Y-69917105D01*
X43939492Y-69929002D01*
X43944515Y-69963937D01*
X43944515Y-70025586D01*
X43924830Y-70092625D01*
X43876811Y-70136069D01*
X43816673Y-70166712D01*
X43816672Y-70166713D01*
X43816667Y-70166716D01*
X43726969Y-70256414D01*
X43726966Y-70256419D01*
X43726965Y-70256420D01*
X43723548Y-70263127D01*
X43669367Y-70369460D01*
X43654515Y-70463237D01*
X43654515Y-71526279D01*
X43663311Y-71581817D01*
X43669369Y-71620066D01*
X43726965Y-71733104D01*
X43726967Y-71733106D01*
X43726969Y-71733109D01*
X43816667Y-71822807D01*
X43816673Y-71822812D01*
X43876811Y-71853454D01*
X43887872Y-71863901D01*
X43901718Y-71870224D01*
X43912759Y-71887405D01*
X43927605Y-71901426D01*
X43931846Y-71917105D01*
X43939492Y-71929002D01*
X43944515Y-71963937D01*
X43944515Y-72025586D01*
X43924830Y-72092625D01*
X43876811Y-72136069D01*
X43816673Y-72166712D01*
X43816672Y-72166713D01*
X43816667Y-72166716D01*
X43726969Y-72256414D01*
X43726966Y-72256419D01*
X43726965Y-72256420D01*
X43723548Y-72263127D01*
X43669367Y-72369460D01*
X43654515Y-72463237D01*
X43654515Y-73526279D01*
X43665307Y-73594419D01*
X43669369Y-73620066D01*
X43726965Y-73733104D01*
X43726967Y-73733106D01*
X43726969Y-73733109D01*
X43816667Y-73822807D01*
X43816669Y-73822808D01*
X43816673Y-73822812D01*
X43929711Y-73880408D01*
X43929712Y-73880408D01*
X43937305Y-73884277D01*
X43988101Y-73932252D01*
X44004896Y-74000073D01*
X43982358Y-74066208D01*
X43937305Y-74105247D01*
X43929712Y-74109115D01*
X43929711Y-74109116D01*
X43816673Y-74166712D01*
X43816672Y-74166713D01*
X43816667Y-74166716D01*
X43726969Y-74256414D01*
X43726966Y-74256419D01*
X43726965Y-74256420D01*
X43723548Y-74263127D01*
X43669367Y-74369460D01*
X43654515Y-74463237D01*
X43654515Y-75526279D01*
X43661692Y-75571593D01*
X43669369Y-75620066D01*
X43726965Y-75733104D01*
X43726967Y-75733106D01*
X43726969Y-75733109D01*
X43816667Y-75822807D01*
X43816669Y-75822808D01*
X43816673Y-75822812D01*
X43929709Y-75880407D01*
X43929713Y-75880409D01*
X44023490Y-75895261D01*
X44023496Y-75895262D01*
X46666533Y-75895261D01*
X46760319Y-75880408D01*
X46873357Y-75822812D01*
X46963065Y-75733104D01*
X47020661Y-75620066D01*
X47020661Y-75620064D01*
X47020662Y-75620063D01*
X47033368Y-75539834D01*
X47035515Y-75526281D01*
X47035514Y-74463244D01*
X47020661Y-74369458D01*
X46963065Y-74256420D01*
X46963061Y-74256416D01*
X46963060Y-74256414D01*
X46873362Y-74166716D01*
X46873358Y-74166713D01*
X46873357Y-74166712D01*
X46857201Y-74158480D01*
X46752723Y-74105245D01*
X46701928Y-74057271D01*
X46685133Y-73989450D01*
X46707671Y-73923315D01*
X46752725Y-73884276D01*
X46760315Y-73880408D01*
X46760319Y-73880408D01*
X46873357Y-73822812D01*
X46963065Y-73733104D01*
X47020661Y-73620066D01*
X47020661Y-73620064D01*
X47020662Y-73620063D01*
X47035514Y-73526286D01*
X47035515Y-73526281D01*
X47035514Y-72463244D01*
X47020661Y-72369458D01*
X46963065Y-72256420D01*
X46963061Y-72256416D01*
X46963060Y-72256414D01*
X46873362Y-72166716D01*
X46873359Y-72166714D01*
X46873357Y-72166712D01*
X46813218Y-72136069D01*
X46802155Y-72125621D01*
X46788312Y-72119299D01*
X46777270Y-72102118D01*
X46762424Y-72088096D01*
X46758182Y-72072416D01*
X46750538Y-72060521D01*
X46745515Y-72025586D01*
X46745515Y-71963937D01*
X46765200Y-71896898D01*
X46813218Y-71853454D01*
X46873357Y-71822812D01*
X46963065Y-71733104D01*
X47020661Y-71620066D01*
X47020661Y-71620064D01*
X47020662Y-71620063D01*
X47035514Y-71526286D01*
X47035515Y-71526281D01*
X47035514Y-70463244D01*
X47020661Y-70369458D01*
X46963065Y-70256420D01*
X46963061Y-70256416D01*
X46963060Y-70256414D01*
X46873362Y-70166716D01*
X46873359Y-70166714D01*
X46873357Y-70166712D01*
X46813218Y-70136069D01*
X46802155Y-70125621D01*
X46788312Y-70119299D01*
X46777270Y-70102118D01*
X46762424Y-70088096D01*
X46758182Y-70072416D01*
X46750538Y-70060521D01*
X46745515Y-70025586D01*
X46745515Y-69963937D01*
X46765200Y-69896898D01*
X46813218Y-69853454D01*
X46873357Y-69822812D01*
X46963065Y-69733104D01*
X47020661Y-69620066D01*
X47020661Y-69620064D01*
X47020662Y-69620063D01*
X47035514Y-69526286D01*
X47035515Y-69526281D01*
X47035514Y-68463244D01*
X47020661Y-68369458D01*
X46963065Y-68256420D01*
X46963061Y-68256416D01*
X46963060Y-68256414D01*
X46873362Y-68166716D01*
X46873359Y-68166714D01*
X46873357Y-68166712D01*
X46813218Y-68136069D01*
X46802155Y-68125621D01*
X46788312Y-68119299D01*
X46777270Y-68102118D01*
X46762424Y-68088096D01*
X46758182Y-68072416D01*
X46750538Y-68060521D01*
X46745515Y-68025586D01*
X46745515Y-67963937D01*
X46765200Y-67896898D01*
X46813218Y-67853454D01*
X46873357Y-67822812D01*
X46963065Y-67733104D01*
X47020661Y-67620066D01*
X47020661Y-67620064D01*
X47020662Y-67620063D01*
X47035235Y-67528048D01*
X47035515Y-67526281D01*
X47035514Y-66463244D01*
X47020661Y-66369458D01*
X46963065Y-66256420D01*
X46963061Y-66256416D01*
X46963060Y-66256414D01*
X46873362Y-66166716D01*
X46873359Y-66166714D01*
X46873357Y-66166712D01*
X46813218Y-66136069D01*
X46802155Y-66125621D01*
X46788312Y-66119299D01*
X46777270Y-66102118D01*
X46762424Y-66088096D01*
X46758182Y-66072416D01*
X46750538Y-66060521D01*
X46745515Y-66025586D01*
X46745515Y-65963937D01*
X46765200Y-65896898D01*
X46813218Y-65853454D01*
X46873357Y-65822812D01*
X46963065Y-65733104D01*
X47020661Y-65620066D01*
X47020661Y-65620064D01*
X47020662Y-65620063D01*
X47035514Y-65526286D01*
X47035515Y-65526281D01*
X47035514Y-64463244D01*
X47020661Y-64369458D01*
X46963065Y-64256420D01*
X46963061Y-64256416D01*
X46963060Y-64256414D01*
X46873362Y-64166716D01*
X46873359Y-64166714D01*
X46873357Y-64166712D01*
X46813218Y-64136069D01*
X46802155Y-64125621D01*
X46788312Y-64119299D01*
X46777270Y-64102118D01*
X46762424Y-64088096D01*
X46758182Y-64072416D01*
X46750538Y-64060521D01*
X46745515Y-64025586D01*
X46745515Y-63963937D01*
X46765200Y-63896898D01*
X46813218Y-63853454D01*
X46873357Y-63822812D01*
X46963065Y-63733104D01*
X47020661Y-63620066D01*
X47020661Y-63620064D01*
X47020662Y-63620063D01*
X47031297Y-63552909D01*
X47035515Y-63526281D01*
X47035514Y-62463244D01*
X47020661Y-62369458D01*
X46963065Y-62256420D01*
X46963061Y-62256416D01*
X46963060Y-62256414D01*
X46873362Y-62166716D01*
X46873359Y-62166714D01*
X46873357Y-62166712D01*
X46792839Y-62125686D01*
X46760316Y-62109114D01*
X46666539Y-62094262D01*
X46666534Y-62094262D01*
X46476485Y-62094262D01*
X46409446Y-62074577D01*
X46388804Y-62057944D01*
X46330860Y-62000000D01*
X46257380Y-61926520D01*
X46257376Y-61926517D01*
X46257372Y-61926513D01*
X46079040Y-61796949D01*
X46079039Y-61796948D01*
X46079037Y-61796947D01*
X45968681Y-61740717D01*
X45882621Y-61696866D01*
X45882618Y-61696865D01*
X45672967Y-61628747D01*
X45564101Y-61611504D01*
X45455237Y-61594262D01*
X45234793Y-61594262D01*
X45162216Y-61605757D01*
X45017062Y-61628747D01*
X44893440Y-61668914D01*
X44823598Y-61670909D01*
X44767441Y-61638664D01*
X43879593Y-60750816D01*
X42938268Y-59809490D01*
X42812738Y-59737016D01*
X42812733Y-59737014D01*
X42758565Y-59722499D01*
X42758565Y-59722500D01*
X42715646Y-59711000D01*
X42672728Y-59699500D01*
X42672727Y-59699500D01*
X41024491Y-59699500D01*
X40957452Y-59679815D01*
X40911697Y-59627011D01*
X40900491Y-59575497D01*
X40900492Y-59524926D01*
X40900494Y-59447062D01*
X40870115Y-59294327D01*
X40816408Y-59164668D01*
X40810521Y-59150455D01*
X40768667Y-59087819D01*
X40724000Y-59020972D01*
X40613879Y-58910860D01*
X40613875Y-58910856D01*
X40484393Y-58824350D01*
X40340512Y-58764765D01*
X40187771Y-58734399D01*
X40109911Y-58734408D01*
X40064413Y-58734408D01*
X40064282Y-58734400D01*
X40041309Y-58734402D01*
X40041193Y-58734368D01*
X39989911Y-58734373D01*
X39912151Y-58734380D01*
X39912053Y-58734381D01*
X39759339Y-58764774D01*
X39615484Y-58824377D01*
X39486021Y-58910896D01*
X39486017Y-58910899D01*
X39375925Y-59021007D01*
X39375924Y-59021008D01*
X39289422Y-59150484D01*
X39289420Y-59150488D01*
X39257724Y-59227022D01*
X39229841Y-59294348D01*
X39229840Y-59294352D01*
X39229839Y-59294356D01*
X39199470Y-59447063D01*
X39199470Y-59447066D01*
X39199473Y-59518216D01*
X39199473Y-59575500D01*
X39179788Y-59642539D01*
X39126984Y-59688294D01*
X39075473Y-59699500D01*
X35952999Y-59699500D01*
X35885960Y-59679815D01*
X35840205Y-59627011D01*
X35828999Y-59575500D01*
X35828999Y-58924498D01*
X35848684Y-58857459D01*
X35901488Y-58811704D01*
X35952999Y-58800498D01*
X36072472Y-58800498D01*
X36072474Y-58800498D01*
X36142545Y-58781721D01*
X36174639Y-58777497D01*
X36437917Y-58777497D01*
X36437918Y-58777497D01*
X36531704Y-58762644D01*
X36644742Y-58705048D01*
X36734450Y-58615340D01*
X36792046Y-58502302D01*
X36792046Y-58502300D01*
X36792047Y-58502299D01*
X36806899Y-58408522D01*
X36806900Y-58408517D01*
X36806899Y-58272984D01*
X36826583Y-58205945D01*
X36843213Y-58185308D01*
X38171208Y-56857314D01*
X38171218Y-56857308D01*
X38182164Y-56846360D01*
X38182225Y-56846327D01*
X38218494Y-56810055D01*
X38273546Y-56754998D01*
X38360053Y-56625521D01*
X38419639Y-56481655D01*
X38435924Y-56399769D01*
X38442313Y-56367644D01*
X38474696Y-56305732D01*
X38535410Y-56271156D01*
X38539739Y-56270214D01*
X38653756Y-56247534D01*
X38653756Y-56247533D01*
X38653761Y-56247533D01*
X38653766Y-56247530D01*
X38653769Y-56247530D01*
X38725693Y-56217737D01*
X38797625Y-56187941D01*
X38927098Y-56101428D01*
X38930901Y-56097624D01*
X38930904Y-56097623D01*
X38987524Y-56041002D01*
X39015751Y-56012774D01*
X39056708Y-55971816D01*
X39272835Y-55755688D01*
X39334157Y-55722204D01*
X39403849Y-55727188D01*
X39459782Y-55769060D01*
X39484199Y-55834524D01*
X39484515Y-55843370D01*
X39484515Y-56526279D01*
X39491749Y-56571950D01*
X39499369Y-56620066D01*
X39556965Y-56733104D01*
X39556967Y-56733106D01*
X39556969Y-56733109D01*
X39646667Y-56822807D01*
X39646669Y-56822808D01*
X39646673Y-56822812D01*
X39751884Y-56876420D01*
X39759713Y-56880409D01*
X39853490Y-56895261D01*
X39853496Y-56895262D01*
X42496533Y-56895261D01*
X42590319Y-56880408D01*
X42703357Y-56822812D01*
X42793065Y-56733104D01*
X42850661Y-56620066D01*
X42850661Y-56620064D01*
X42850662Y-56620063D01*
X42863368Y-56539834D01*
X42865515Y-56526281D01*
X42865514Y-55674499D01*
X42885198Y-55607461D01*
X42938002Y-55561706D01*
X42989514Y-55550500D01*
X43530515Y-55550500D01*
X43597554Y-55570185D01*
X43643309Y-55622989D01*
X43654515Y-55674500D01*
X43654515Y-56526279D01*
X43661749Y-56571950D01*
X43669369Y-56620066D01*
X43726965Y-56733104D01*
X43726967Y-56733106D01*
X43726969Y-56733109D01*
X43816667Y-56822807D01*
X43816669Y-56822808D01*
X43816673Y-56822812D01*
X43921884Y-56876420D01*
X43929713Y-56880409D01*
X44023490Y-56895261D01*
X44023496Y-56895262D01*
X46666533Y-56895261D01*
X46760319Y-56880408D01*
X46873357Y-56822812D01*
X46963065Y-56733104D01*
X47020661Y-56620066D01*
X47020661Y-56620064D01*
X47020662Y-56620063D01*
X47033368Y-56539834D01*
X47035515Y-56526281D01*
X47035514Y-55463244D01*
X47020661Y-55369458D01*
X46963065Y-55256420D01*
X46963061Y-55256416D01*
X46963060Y-55256414D01*
X46873362Y-55166716D01*
X46873358Y-55166713D01*
X46873357Y-55166712D01*
X46869797Y-55164898D01*
X46752723Y-55105245D01*
X46701928Y-55057271D01*
X46685133Y-54989450D01*
X46707671Y-54923315D01*
X46752725Y-54884276D01*
X46760315Y-54880408D01*
X46760319Y-54880408D01*
X46873357Y-54822812D01*
X46963065Y-54733104D01*
X47020661Y-54620066D01*
X47020661Y-54620064D01*
X47020662Y-54620063D01*
X47031297Y-54552909D01*
X47035515Y-54526281D01*
X47035514Y-53463244D01*
X47020661Y-53369458D01*
X46963065Y-53256420D01*
X46963061Y-53256416D01*
X46963060Y-53256414D01*
X46873362Y-53166716D01*
X46873359Y-53166714D01*
X46873357Y-53166712D01*
X46813218Y-53136069D01*
X46802155Y-53125621D01*
X46788312Y-53119299D01*
X46777270Y-53102118D01*
X46762424Y-53088096D01*
X46758182Y-53072416D01*
X46750538Y-53060521D01*
X46745515Y-53025586D01*
X46745515Y-52963937D01*
X46765200Y-52896898D01*
X46813218Y-52853454D01*
X46873357Y-52822812D01*
X46963065Y-52733104D01*
X47020661Y-52620066D01*
X47020661Y-52620064D01*
X47020662Y-52620063D01*
X47035514Y-52526286D01*
X47035515Y-52526281D01*
X47035514Y-51463244D01*
X47020661Y-51369458D01*
X46963065Y-51256420D01*
X46963061Y-51256416D01*
X46963060Y-51256414D01*
X46873362Y-51166716D01*
X46873359Y-51166714D01*
X46873357Y-51166712D01*
X46813218Y-51136069D01*
X46802155Y-51125621D01*
X46788312Y-51119299D01*
X46777270Y-51102118D01*
X46762424Y-51088096D01*
X46758182Y-51072416D01*
X46750538Y-51060521D01*
X46745515Y-51025586D01*
X46745515Y-50963937D01*
X46765200Y-50896898D01*
X46813218Y-50853454D01*
X46873357Y-50822812D01*
X46963065Y-50733104D01*
X47020661Y-50620066D01*
X47020661Y-50620064D01*
X47020662Y-50620063D01*
X47035514Y-50526286D01*
X47035515Y-50526281D01*
X47035514Y-49463244D01*
X47020661Y-49369458D01*
X46963065Y-49256420D01*
X46963061Y-49256416D01*
X46963060Y-49256414D01*
X46873362Y-49166716D01*
X46873359Y-49166714D01*
X46873357Y-49166712D01*
X46813218Y-49136069D01*
X46802155Y-49125621D01*
X46788312Y-49119299D01*
X46777270Y-49102118D01*
X46762424Y-49088096D01*
X46758182Y-49072416D01*
X46750538Y-49060521D01*
X46745515Y-49025586D01*
X46745515Y-48963937D01*
X46765200Y-48896898D01*
X46813218Y-48853454D01*
X46873357Y-48822812D01*
X46963065Y-48733104D01*
X47020661Y-48620066D01*
X47020661Y-48620064D01*
X47020662Y-48620063D01*
X47035514Y-48526286D01*
X47035515Y-48526281D01*
X47035514Y-47463244D01*
X47020661Y-47369458D01*
X46963065Y-47256420D01*
X46963061Y-47256416D01*
X46963060Y-47256414D01*
X46873362Y-47166716D01*
X46873359Y-47166714D01*
X46873357Y-47166712D01*
X46813218Y-47136069D01*
X46802155Y-47125621D01*
X46788312Y-47119299D01*
X46777270Y-47102118D01*
X46762424Y-47088096D01*
X46758182Y-47072416D01*
X46750538Y-47060521D01*
X46745515Y-47025586D01*
X46745515Y-46963937D01*
X46765200Y-46896898D01*
X46813218Y-46853454D01*
X46873357Y-46822812D01*
X46963065Y-46733104D01*
X47020661Y-46620066D01*
X47020661Y-46620064D01*
X47020662Y-46620063D01*
X47035514Y-46526286D01*
X47035515Y-46526281D01*
X47035514Y-45463244D01*
X47020661Y-45369458D01*
X46963065Y-45256420D01*
X46963061Y-45256416D01*
X46963060Y-45256414D01*
X46873362Y-45166716D01*
X46873359Y-45166714D01*
X46873357Y-45166712D01*
X46813218Y-45136069D01*
X46802155Y-45125621D01*
X46788312Y-45119299D01*
X46777270Y-45102118D01*
X46762424Y-45088096D01*
X46758182Y-45072416D01*
X46750538Y-45060521D01*
X46745515Y-45025586D01*
X46745515Y-44963937D01*
X46765200Y-44896898D01*
X46813218Y-44853454D01*
X46873357Y-44822812D01*
X46963065Y-44733104D01*
X47020661Y-44620066D01*
X47020661Y-44620064D01*
X47020662Y-44620063D01*
X47035514Y-44526286D01*
X47035515Y-44526281D01*
X47035514Y-43469944D01*
X58476524Y-43469944D01*
X58476524Y-44532986D01*
X58487316Y-44601126D01*
X58491378Y-44626773D01*
X58548974Y-44739811D01*
X58548976Y-44739813D01*
X58548978Y-44739816D01*
X58638676Y-44829514D01*
X58638682Y-44829519D01*
X58698820Y-44860161D01*
X58709881Y-44870608D01*
X58723727Y-44876931D01*
X58734768Y-44894112D01*
X58749614Y-44908133D01*
X58753855Y-44923812D01*
X58761501Y-44935709D01*
X58766524Y-44970644D01*
X58766524Y-45032293D01*
X58746839Y-45099332D01*
X58698820Y-45142776D01*
X58638682Y-45173419D01*
X58638681Y-45173420D01*
X58638676Y-45173423D01*
X58548978Y-45263121D01*
X58548975Y-45263126D01*
X58491376Y-45376167D01*
X58476524Y-45469944D01*
X58476524Y-46532986D01*
X58479767Y-46553461D01*
X58491378Y-46626773D01*
X58548974Y-46739811D01*
X58548976Y-46739813D01*
X58548978Y-46739816D01*
X58638676Y-46829514D01*
X58638682Y-46829519D01*
X58698820Y-46860161D01*
X58709881Y-46870608D01*
X58723727Y-46876931D01*
X58734768Y-46894112D01*
X58749614Y-46908133D01*
X58753855Y-46923812D01*
X58761501Y-46935709D01*
X58766524Y-46970644D01*
X58766524Y-47032293D01*
X58746839Y-47099332D01*
X58698820Y-47142776D01*
X58638682Y-47173419D01*
X58638681Y-47173420D01*
X58638676Y-47173423D01*
X58548978Y-47263121D01*
X58548975Y-47263126D01*
X58491376Y-47376167D01*
X58476524Y-47469944D01*
X58476524Y-48532986D01*
X58487316Y-48601126D01*
X58491378Y-48626773D01*
X58548974Y-48739811D01*
X58548976Y-48739813D01*
X58548978Y-48739816D01*
X58638676Y-48829514D01*
X58638682Y-48829519D01*
X58698820Y-48860161D01*
X58709881Y-48870608D01*
X58723727Y-48876931D01*
X58734768Y-48894112D01*
X58749614Y-48908133D01*
X58753855Y-48923812D01*
X58761501Y-48935709D01*
X58766524Y-48970644D01*
X58766524Y-49032293D01*
X58746839Y-49099332D01*
X58698820Y-49142776D01*
X58638682Y-49173419D01*
X58638681Y-49173420D01*
X58638676Y-49173423D01*
X58548978Y-49263121D01*
X58548975Y-49263126D01*
X58491376Y-49376167D01*
X58476524Y-49469944D01*
X58476524Y-50532986D01*
X58484814Y-50585327D01*
X58491378Y-50626773D01*
X58548974Y-50739811D01*
X58548976Y-50739813D01*
X58548978Y-50739816D01*
X58638676Y-50829514D01*
X58638682Y-50829519D01*
X58698820Y-50860161D01*
X58709881Y-50870608D01*
X58723727Y-50876931D01*
X58734768Y-50894112D01*
X58749614Y-50908133D01*
X58753855Y-50923812D01*
X58761501Y-50935709D01*
X58766524Y-50970644D01*
X58766524Y-51032293D01*
X58746839Y-51099332D01*
X58698820Y-51142776D01*
X58638682Y-51173419D01*
X58638681Y-51173420D01*
X58638676Y-51173423D01*
X58548978Y-51263121D01*
X58548975Y-51263126D01*
X58491376Y-51376167D01*
X58476524Y-51469944D01*
X58476524Y-52532986D01*
X58487316Y-52601126D01*
X58491378Y-52626773D01*
X58548974Y-52739811D01*
X58548976Y-52739813D01*
X58548978Y-52739816D01*
X58638676Y-52829514D01*
X58638682Y-52829519D01*
X58698820Y-52860161D01*
X58709881Y-52870608D01*
X58723727Y-52876931D01*
X58734768Y-52894112D01*
X58749614Y-52908133D01*
X58753855Y-52923812D01*
X58761501Y-52935709D01*
X58766524Y-52970644D01*
X58766524Y-53032292D01*
X58746839Y-53099331D01*
X58698821Y-53142776D01*
X58638681Y-53173419D01*
X58638676Y-53173423D01*
X58548978Y-53263121D01*
X58548975Y-53263126D01*
X58491376Y-53376167D01*
X58476524Y-53469944D01*
X58476524Y-54532986D01*
X58480722Y-54559489D01*
X58491378Y-54626773D01*
X58548974Y-54739811D01*
X58548976Y-54739813D01*
X58548978Y-54739816D01*
X58638676Y-54829514D01*
X58638678Y-54829515D01*
X58638682Y-54829519D01*
X58751720Y-54887115D01*
X58751721Y-54887115D01*
X58759314Y-54890984D01*
X58810110Y-54938959D01*
X58826905Y-55006780D01*
X58804367Y-55072915D01*
X58759314Y-55111954D01*
X58751721Y-55115822D01*
X58751720Y-55115823D01*
X58638682Y-55173419D01*
X58638681Y-55173420D01*
X58638676Y-55173423D01*
X58548978Y-55263121D01*
X58548975Y-55263126D01*
X58491376Y-55376167D01*
X58476524Y-55469944D01*
X58476524Y-56532986D01*
X58486162Y-56593837D01*
X58491378Y-56626773D01*
X58548974Y-56739811D01*
X58548976Y-56739813D01*
X58548978Y-56739816D01*
X58638676Y-56829514D01*
X58638678Y-56829515D01*
X58638682Y-56829519D01*
X58737148Y-56879690D01*
X58751722Y-56887116D01*
X58845499Y-56901968D01*
X58845505Y-56901969D01*
X60308347Y-56901968D01*
X60375386Y-56921653D01*
X60396028Y-56938287D01*
X61015055Y-57557314D01*
X61108241Y-57650500D01*
X61154745Y-57677349D01*
X61222369Y-57716392D01*
X61349662Y-57750500D01*
X61349663Y-57750500D01*
X68860603Y-57750500D01*
X68927642Y-57770185D01*
X68959405Y-57799573D01*
X68969489Y-57812871D01*
X68972784Y-57817216D01*
X68972788Y-57817219D01*
X69084680Y-57902070D01*
X69090078Y-57906163D01*
X69227021Y-57960166D01*
X69313073Y-57970500D01*
X69666926Y-57970499D01*
X69752979Y-57960166D01*
X69840012Y-57925844D01*
X69909596Y-57919563D01*
X69971533Y-57951900D01*
X70006154Y-58012588D01*
X70009500Y-58041199D01*
X70009500Y-75458799D01*
X69989815Y-75525838D01*
X69937011Y-75571593D01*
X69867853Y-75581537D01*
X69840011Y-75574154D01*
X69752979Y-75539834D01*
X69752978Y-75539833D01*
X69666927Y-75529500D01*
X69313080Y-75529500D01*
X69227022Y-75539833D01*
X69090077Y-75593837D01*
X69090075Y-75593838D01*
X68972788Y-75682780D01*
X68972784Y-75682783D01*
X68966034Y-75691685D01*
X68959406Y-75700425D01*
X68903215Y-75741948D01*
X68860603Y-75749500D01*
X66138418Y-75749500D01*
X66071379Y-75729815D01*
X66025624Y-75677011D01*
X66015680Y-75607853D01*
X66015945Y-75606103D01*
X66027523Y-75532994D01*
X66027523Y-75532992D01*
X66027524Y-75532988D01*
X66027523Y-74469951D01*
X66012670Y-74376165D01*
X65955074Y-74263127D01*
X65955070Y-74263123D01*
X65955069Y-74263121D01*
X65865371Y-74173423D01*
X65865368Y-74173421D01*
X65865366Y-74173419D01*
X65788541Y-74134274D01*
X65752325Y-74115821D01*
X65658548Y-74100969D01*
X63015506Y-74100969D01*
X62934543Y-74113792D01*
X62921720Y-74115823D01*
X62808682Y-74173419D01*
X62808681Y-74173420D01*
X62808676Y-74173423D01*
X62718978Y-74263121D01*
X62718975Y-74263126D01*
X62661376Y-74376167D01*
X62646524Y-74469944D01*
X62646524Y-75532992D01*
X62658104Y-75606103D01*
X62649149Y-75675396D01*
X62604152Y-75728848D01*
X62537401Y-75749487D01*
X62535631Y-75749500D01*
X61968418Y-75749500D01*
X61901379Y-75729815D01*
X61855624Y-75677011D01*
X61845680Y-75607853D01*
X61845945Y-75606103D01*
X61857523Y-75532994D01*
X61857523Y-75532992D01*
X61857524Y-75532988D01*
X61857523Y-74469951D01*
X61842670Y-74376165D01*
X61785074Y-74263127D01*
X61785070Y-74263123D01*
X61785069Y-74263121D01*
X61695371Y-74173423D01*
X61695367Y-74173420D01*
X61695366Y-74173419D01*
X61666047Y-74158480D01*
X61574732Y-74111952D01*
X61523937Y-74063978D01*
X61507142Y-73996157D01*
X61529680Y-73930022D01*
X61574734Y-73890983D01*
X61582324Y-73887115D01*
X61582328Y-73887115D01*
X61695366Y-73829519D01*
X61785074Y-73739811D01*
X61842670Y-73626773D01*
X61842670Y-73626771D01*
X61842671Y-73626770D01*
X61857523Y-73532993D01*
X61857524Y-73532988D01*
X61857523Y-72469951D01*
X61842670Y-72376165D01*
X61785074Y-72263127D01*
X61785070Y-72263123D01*
X61785069Y-72263121D01*
X61695371Y-72173423D01*
X61695368Y-72173421D01*
X61695366Y-72173419D01*
X61635227Y-72142776D01*
X61624164Y-72132328D01*
X61610321Y-72126006D01*
X61599279Y-72108825D01*
X61584433Y-72094803D01*
X61580191Y-72079123D01*
X61572547Y-72067228D01*
X61567524Y-72032293D01*
X61567524Y-71970644D01*
X61587209Y-71903605D01*
X61635227Y-71860161D01*
X61695366Y-71829519D01*
X61785074Y-71739811D01*
X61842670Y-71626773D01*
X61842670Y-71626771D01*
X61842671Y-71626770D01*
X61857523Y-71532993D01*
X61857524Y-71532988D01*
X61857523Y-70469951D01*
X61842670Y-70376165D01*
X61785074Y-70263127D01*
X61785070Y-70263123D01*
X61785069Y-70263121D01*
X61695371Y-70173423D01*
X61695368Y-70173421D01*
X61695366Y-70173419D01*
X61635227Y-70142776D01*
X61624164Y-70132328D01*
X61610321Y-70126006D01*
X61599279Y-70108825D01*
X61584433Y-70094803D01*
X61580191Y-70079123D01*
X61572547Y-70067228D01*
X61567524Y-70032293D01*
X61567524Y-69970644D01*
X61587209Y-69903605D01*
X61635227Y-69860161D01*
X61695366Y-69829519D01*
X61785074Y-69739811D01*
X61842670Y-69626773D01*
X61842670Y-69626771D01*
X61842671Y-69626770D01*
X61857523Y-69532993D01*
X61857524Y-69532988D01*
X61857523Y-68469951D01*
X61842670Y-68376165D01*
X61785074Y-68263127D01*
X61785070Y-68263123D01*
X61785069Y-68263121D01*
X61695371Y-68173423D01*
X61695368Y-68173421D01*
X61695366Y-68173419D01*
X61635227Y-68142776D01*
X61624164Y-68132328D01*
X61610321Y-68126006D01*
X61599279Y-68108825D01*
X61584433Y-68094803D01*
X61580191Y-68079123D01*
X61572547Y-68067228D01*
X61567524Y-68032293D01*
X61567524Y-67970644D01*
X61587209Y-67903605D01*
X61635227Y-67860161D01*
X61695366Y-67829519D01*
X61785074Y-67739811D01*
X61842670Y-67626773D01*
X61842670Y-67626771D01*
X61842671Y-67626770D01*
X61857523Y-67532993D01*
X61857524Y-67532988D01*
X61857523Y-66469951D01*
X61842670Y-66376165D01*
X61785074Y-66263127D01*
X61785070Y-66263123D01*
X61785069Y-66263121D01*
X61695371Y-66173423D01*
X61695368Y-66173421D01*
X61695366Y-66173419D01*
X61635227Y-66142776D01*
X61624164Y-66132328D01*
X61610321Y-66126006D01*
X61599279Y-66108825D01*
X61584433Y-66094803D01*
X61580191Y-66079123D01*
X61572547Y-66067228D01*
X61567524Y-66032293D01*
X61567524Y-65970644D01*
X61587209Y-65903605D01*
X61635227Y-65860161D01*
X61695366Y-65829519D01*
X61785074Y-65739811D01*
X61842670Y-65626773D01*
X61842670Y-65626771D01*
X61842671Y-65626770D01*
X61857523Y-65532993D01*
X61857524Y-65532988D01*
X61857523Y-64469951D01*
X61842670Y-64376165D01*
X61785074Y-64263127D01*
X61785072Y-64263125D01*
X61785071Y-64263123D01*
X61695371Y-64173423D01*
X61695368Y-64173421D01*
X61695366Y-64173419D01*
X61635227Y-64142776D01*
X61624164Y-64132328D01*
X61610321Y-64126006D01*
X61599279Y-64108825D01*
X61584433Y-64094803D01*
X61580191Y-64079123D01*
X61572547Y-64067228D01*
X61567524Y-64032293D01*
X61567524Y-63970644D01*
X61587209Y-63903605D01*
X61635227Y-63860161D01*
X61695366Y-63829519D01*
X61785074Y-63739811D01*
X61842670Y-63626773D01*
X61842670Y-63626771D01*
X61842671Y-63626770D01*
X61857523Y-63532993D01*
X61857524Y-63532988D01*
X61857523Y-62469951D01*
X61842670Y-62376165D01*
X61785074Y-62263127D01*
X61785070Y-62263123D01*
X61785069Y-62263121D01*
X61695371Y-62173423D01*
X61695368Y-62173421D01*
X61695366Y-62173419D01*
X61613129Y-62131517D01*
X61582325Y-62115821D01*
X61488548Y-62100969D01*
X58845506Y-62100969D01*
X58764543Y-62113792D01*
X58751720Y-62115823D01*
X58638682Y-62173419D01*
X58638681Y-62173420D01*
X58638676Y-62173423D01*
X58548978Y-62263121D01*
X58548975Y-62263126D01*
X58548974Y-62263127D01*
X58543179Y-62274500D01*
X58491376Y-62376167D01*
X58476524Y-62469944D01*
X58476524Y-63532986D01*
X58481706Y-63565701D01*
X58491378Y-63626773D01*
X58548974Y-63739811D01*
X58548976Y-63739813D01*
X58548978Y-63739816D01*
X58638676Y-63829514D01*
X58638678Y-63829515D01*
X58638682Y-63829519D01*
X58698820Y-63860161D01*
X58709883Y-63870609D01*
X58723727Y-63876932D01*
X58734768Y-63894112D01*
X58749615Y-63908135D01*
X58753856Y-63923814D01*
X58761501Y-63935710D01*
X58766524Y-63970645D01*
X58766524Y-64032293D01*
X58746839Y-64099332D01*
X58698820Y-64142776D01*
X58638682Y-64173419D01*
X58638681Y-64173420D01*
X58638676Y-64173423D01*
X58548978Y-64263121D01*
X58548977Y-64263123D01*
X58548975Y-64263125D01*
X58548974Y-64263127D01*
X58527979Y-64304332D01*
X58491376Y-64376167D01*
X58476524Y-64469944D01*
X58476524Y-65532986D01*
X58482696Y-65571954D01*
X58491378Y-65626773D01*
X58548974Y-65739811D01*
X58548976Y-65739813D01*
X58548978Y-65739816D01*
X58638676Y-65829514D01*
X58638682Y-65829519D01*
X58698820Y-65860161D01*
X58709881Y-65870608D01*
X58723727Y-65876931D01*
X58734768Y-65894112D01*
X58749614Y-65908133D01*
X58753855Y-65923812D01*
X58761501Y-65935709D01*
X58766524Y-65970644D01*
X58766524Y-66032293D01*
X58746839Y-66099332D01*
X58698820Y-66142776D01*
X58638682Y-66173419D01*
X58638681Y-66173420D01*
X58638676Y-66173423D01*
X58548978Y-66263121D01*
X58548975Y-66263126D01*
X58491376Y-66376167D01*
X58476524Y-66469944D01*
X58476524Y-67532986D01*
X58484865Y-67585647D01*
X58491378Y-67626773D01*
X58548974Y-67739811D01*
X58548976Y-67739813D01*
X58548978Y-67739816D01*
X58638676Y-67829514D01*
X58638682Y-67829519D01*
X58698820Y-67860161D01*
X58709881Y-67870608D01*
X58723727Y-67876931D01*
X58734768Y-67894112D01*
X58749614Y-67908133D01*
X58753855Y-67923812D01*
X58761501Y-67935709D01*
X58766524Y-67970644D01*
X58766524Y-68032293D01*
X58746839Y-68099332D01*
X58698820Y-68142776D01*
X58638682Y-68173419D01*
X58638681Y-68173420D01*
X58638676Y-68173423D01*
X58548978Y-68263121D01*
X58548975Y-68263126D01*
X58491376Y-68376167D01*
X58476524Y-68469944D01*
X58476524Y-69532986D01*
X58487316Y-69601126D01*
X58491378Y-69626773D01*
X58548974Y-69739811D01*
X58548976Y-69739813D01*
X58548978Y-69739816D01*
X58638676Y-69829514D01*
X58638682Y-69829519D01*
X58698820Y-69860161D01*
X58709881Y-69870608D01*
X58723727Y-69876931D01*
X58734768Y-69894112D01*
X58749614Y-69908133D01*
X58753855Y-69923812D01*
X58761501Y-69935709D01*
X58766524Y-69970644D01*
X58766524Y-70032293D01*
X58746839Y-70099332D01*
X58698820Y-70142776D01*
X58638682Y-70173419D01*
X58638681Y-70173420D01*
X58638676Y-70173423D01*
X58548978Y-70263121D01*
X58548975Y-70263126D01*
X58491376Y-70376167D01*
X58476524Y-70469944D01*
X58476524Y-71532986D01*
X58484256Y-71581804D01*
X58491378Y-71626773D01*
X58548974Y-71739811D01*
X58548976Y-71739813D01*
X58548978Y-71739816D01*
X58638676Y-71829514D01*
X58638682Y-71829519D01*
X58698820Y-71860161D01*
X58709881Y-71870608D01*
X58723727Y-71876931D01*
X58734768Y-71894112D01*
X58749614Y-71908133D01*
X58753855Y-71923812D01*
X58761501Y-71935709D01*
X58766524Y-71970644D01*
X58766524Y-72032293D01*
X58746839Y-72099332D01*
X58698820Y-72142776D01*
X58638682Y-72173419D01*
X58638681Y-72173420D01*
X58638676Y-72173423D01*
X58548978Y-72263121D01*
X58548975Y-72263126D01*
X58491376Y-72376167D01*
X58476524Y-72469944D01*
X58476524Y-73532986D01*
X58487316Y-73601126D01*
X58491378Y-73626773D01*
X58548974Y-73739811D01*
X58548976Y-73739813D01*
X58548978Y-73739816D01*
X58638676Y-73829514D01*
X58638678Y-73829515D01*
X58638682Y-73829519D01*
X58751720Y-73887115D01*
X58751721Y-73887115D01*
X58759314Y-73890984D01*
X58810110Y-73938959D01*
X58826905Y-74006780D01*
X58804367Y-74072915D01*
X58759314Y-74111954D01*
X58751721Y-74115822D01*
X58751720Y-74115823D01*
X58638682Y-74173419D01*
X58638681Y-74173420D01*
X58638676Y-74173423D01*
X58548978Y-74263121D01*
X58548975Y-74263126D01*
X58491376Y-74376167D01*
X58476524Y-74469944D01*
X58476524Y-75532986D01*
X58484214Y-75581537D01*
X58491378Y-75626773D01*
X58548974Y-75739811D01*
X58548976Y-75739813D01*
X58548978Y-75739816D01*
X58638676Y-75829514D01*
X58638678Y-75829515D01*
X58638682Y-75829519D01*
X58738555Y-75880407D01*
X58751722Y-75887116D01*
X58845499Y-75901968D01*
X58845505Y-75901969D01*
X60308347Y-75901968D01*
X60375386Y-75921653D01*
X60396028Y-75938287D01*
X61015055Y-76557314D01*
X61108241Y-76650500D01*
X61193842Y-76699922D01*
X61222369Y-76716392D01*
X61349662Y-76750500D01*
X61349663Y-76750500D01*
X68860603Y-76750500D01*
X68927642Y-76770185D01*
X68959405Y-76799573D01*
X68966933Y-76809500D01*
X68972784Y-76817216D01*
X68972788Y-76817219D01*
X69084958Y-76902281D01*
X69090078Y-76906163D01*
X69227021Y-76960166D01*
X69313073Y-76970500D01*
X69666926Y-76970499D01*
X69752979Y-76960166D01*
X69889922Y-76906163D01*
X69925075Y-76879504D01*
X69990385Y-76854682D01*
X70058749Y-76869109D01*
X70074917Y-76879499D01*
X70110078Y-76906163D01*
X70247021Y-76960166D01*
X70333073Y-76970500D01*
X70686926Y-76970499D01*
X70772979Y-76960166D01*
X70909922Y-76906163D01*
X71027216Y-76817216D01*
X71116163Y-76699922D01*
X71170166Y-76562979D01*
X71180500Y-76476927D01*
X71180499Y-76023074D01*
X71170166Y-75937021D01*
X71116163Y-75800078D01*
X71116161Y-75800075D01*
X71035696Y-75693966D01*
X71010873Y-75628655D01*
X71010500Y-75619041D01*
X71010500Y-59313072D01*
X73029500Y-59313072D01*
X73029500Y-59666919D01*
X73039833Y-59752977D01*
X73093837Y-59889922D01*
X73093838Y-59889923D01*
X73120494Y-59925076D01*
X73145316Y-59990388D01*
X73130887Y-60058752D01*
X73120494Y-60074924D01*
X73093838Y-60110075D01*
X73039833Y-60247022D01*
X73029500Y-60333072D01*
X73029500Y-60686919D01*
X73039833Y-60772977D01*
X73093837Y-60909922D01*
X73093838Y-60909924D01*
X73119169Y-60943328D01*
X73143992Y-61008640D01*
X73129564Y-61077004D01*
X73119170Y-61093177D01*
X73104436Y-61112606D01*
X73104436Y-61112607D01*
X73049930Y-61250824D01*
X73049930Y-61250826D01*
X73039500Y-61337680D01*
X73039500Y-61702320D01*
X73044111Y-61740717D01*
X73049930Y-61789175D01*
X73104436Y-61927391D01*
X73108594Y-61934786D01*
X73106761Y-61935816D01*
X73127502Y-61990390D01*
X73113072Y-62058753D01*
X73106314Y-62069268D01*
X73104436Y-62072608D01*
X73049930Y-62210824D01*
X73049930Y-62210826D01*
X73039500Y-62297680D01*
X73039500Y-62662320D01*
X73040657Y-62671951D01*
X73049930Y-62749175D01*
X73104436Y-62887392D01*
X73104437Y-62887394D01*
X73104438Y-62887395D01*
X73194215Y-63005785D01*
X73310295Y-63093810D01*
X73312605Y-63095562D01*
X73312607Y-63095563D01*
X73324328Y-63100185D01*
X73450826Y-63150070D01*
X73537680Y-63160500D01*
X73537686Y-63160500D01*
X73962314Y-63160500D01*
X73962320Y-63160500D01*
X74049174Y-63150070D01*
X74110085Y-63126049D01*
X74195286Y-63092451D01*
X74195822Y-63093810D01*
X74246654Y-63080500D01*
X75325500Y-63080500D01*
X75392539Y-63100185D01*
X75438294Y-63152989D01*
X75449500Y-63204500D01*
X75449500Y-63565701D01*
X75452401Y-63602567D01*
X75452402Y-63602573D01*
X75498254Y-63760393D01*
X75498255Y-63760396D01*
X75581917Y-63901862D01*
X75581923Y-63901870D01*
X75698129Y-64018076D01*
X75698133Y-64018079D01*
X75698135Y-64018081D01*
X75839602Y-64101744D01*
X75879990Y-64113478D01*
X75997426Y-64147597D01*
X75997429Y-64147597D01*
X75997431Y-64147598D01*
X76034306Y-64150500D01*
X76034314Y-64150500D01*
X77465686Y-64150500D01*
X77465694Y-64150500D01*
X77502569Y-64147598D01*
X77502571Y-64147597D01*
X77502573Y-64147597D01*
X77576888Y-64126006D01*
X77660398Y-64101744D01*
X77801865Y-64018081D01*
X77918081Y-63901865D01*
X78001744Y-63760398D01*
X78042515Y-63620064D01*
X78047597Y-63602573D01*
X78047598Y-63602567D01*
X78050499Y-63565701D01*
X78050500Y-63565694D01*
X78050500Y-62274500D01*
X78053050Y-62265814D01*
X78051762Y-62256853D01*
X78062740Y-62232812D01*
X78070185Y-62207461D01*
X78077025Y-62201533D01*
X78080787Y-62193297D01*
X78103021Y-62179007D01*
X78122989Y-62161706D01*
X78133503Y-62159418D01*
X78139565Y-62155523D01*
X78174500Y-62150500D01*
X78300253Y-62150500D01*
X78367292Y-62170185D01*
X78410738Y-62218205D01*
X78414353Y-62225300D01*
X78414354Y-62225304D01*
X78451232Y-62297680D01*
X78471951Y-62338343D01*
X78471954Y-62338347D01*
X78561652Y-62428045D01*
X78561654Y-62428046D01*
X78561658Y-62428050D01*
X78674694Y-62485645D01*
X78674698Y-62485647D01*
X78768475Y-62500499D01*
X78768481Y-62500500D01*
X80331518Y-62500499D01*
X80425304Y-62485646D01*
X80538342Y-62428050D01*
X80628050Y-62338342D01*
X80685646Y-62225304D01*
X80685646Y-62225302D01*
X80685647Y-62225301D01*
X80700499Y-62131524D01*
X80700500Y-62131519D01*
X80700499Y-61341517D01*
X80720183Y-61274479D01*
X80736813Y-61253842D01*
X81087820Y-60902836D01*
X81149142Y-60869352D01*
X81218834Y-60874336D01*
X81274767Y-60916208D01*
X81299184Y-60981672D01*
X81299500Y-60990518D01*
X81299500Y-63758480D01*
X81279815Y-63825519D01*
X81263181Y-63846161D01*
X79646160Y-65463181D01*
X79584837Y-65496666D01*
X79558479Y-65499500D01*
X78768482Y-65499500D01*
X78687519Y-65512323D01*
X78674696Y-65514354D01*
X78561658Y-65571950D01*
X78561657Y-65571951D01*
X78561652Y-65571954D01*
X78471954Y-65661652D01*
X78471951Y-65661657D01*
X78471950Y-65661658D01*
X78419628Y-65764345D01*
X78410737Y-65781795D01*
X78400287Y-65792859D01*
X78393965Y-65806703D01*
X78376784Y-65817744D01*
X78362762Y-65832591D01*
X78347082Y-65836832D01*
X78335187Y-65844477D01*
X78300252Y-65849500D01*
X78174500Y-65849500D01*
X78107461Y-65829815D01*
X78061706Y-65777011D01*
X78050500Y-65725500D01*
X78050500Y-65434313D01*
X78050499Y-65434298D01*
X78047598Y-65397432D01*
X78047597Y-65397426D01*
X78001745Y-65239606D01*
X78001744Y-65239603D01*
X78001744Y-65239602D01*
X77918081Y-65098135D01*
X77918079Y-65098133D01*
X77918076Y-65098129D01*
X77801870Y-64981923D01*
X77801862Y-64981917D01*
X77660396Y-64898255D01*
X77660393Y-64898254D01*
X77502573Y-64852402D01*
X77502567Y-64852401D01*
X77465701Y-64849500D01*
X77465694Y-64849500D01*
X76034306Y-64849500D01*
X76034298Y-64849500D01*
X75997432Y-64852401D01*
X75997426Y-64852402D01*
X75839606Y-64898254D01*
X75839603Y-64898255D01*
X75698137Y-64981917D01*
X75698129Y-64981923D01*
X75581923Y-65098129D01*
X75581917Y-65098137D01*
X75498255Y-65239603D01*
X75498254Y-65239606D01*
X75452402Y-65397426D01*
X75452401Y-65397432D01*
X75449500Y-65434298D01*
X75449500Y-67565701D01*
X75452401Y-67602567D01*
X75452402Y-67602573D01*
X75498254Y-67760393D01*
X75498255Y-67760396D01*
X75498256Y-67760398D01*
X75520645Y-67798256D01*
X75581917Y-67901862D01*
X75581923Y-67901870D01*
X75698129Y-68018076D01*
X75698133Y-68018079D01*
X75698135Y-68018081D01*
X75839602Y-68101744D01*
X75879990Y-68113478D01*
X75997426Y-68147597D01*
X75997429Y-68147597D01*
X75997431Y-68147598D01*
X76034306Y-68150500D01*
X76034314Y-68150500D01*
X77465686Y-68150500D01*
X77465694Y-68150500D01*
X77502569Y-68147598D01*
X77502571Y-68147597D01*
X77502573Y-68147597D01*
X77576888Y-68126006D01*
X77660398Y-68101744D01*
X77801865Y-68018081D01*
X77918081Y-67901865D01*
X78001744Y-67760398D01*
X78042515Y-67620064D01*
X78047597Y-67602573D01*
X78047598Y-67602567D01*
X78047761Y-67600499D01*
X78050500Y-67565694D01*
X78050500Y-67374500D01*
X78053050Y-67365814D01*
X78051762Y-67356853D01*
X78062740Y-67332812D01*
X78070185Y-67307461D01*
X78077025Y-67301533D01*
X78080787Y-67293297D01*
X78103021Y-67279007D01*
X78122989Y-67261706D01*
X78133503Y-67259418D01*
X78139565Y-67255523D01*
X78174500Y-67250500D01*
X78300253Y-67250500D01*
X78367292Y-67270185D01*
X78410738Y-67318205D01*
X78414353Y-67325300D01*
X78414354Y-67325304D01*
X78471950Y-67438342D01*
X78471951Y-67438343D01*
X78471954Y-67438347D01*
X78561652Y-67528045D01*
X78561654Y-67528046D01*
X78561658Y-67528050D01*
X78674694Y-67585645D01*
X78674698Y-67585647D01*
X78768475Y-67600499D01*
X78768481Y-67600500D01*
X80331518Y-67600499D01*
X80425304Y-67585646D01*
X80538342Y-67528050D01*
X80628050Y-67438342D01*
X80685646Y-67325304D01*
X80685646Y-67325302D01*
X80685647Y-67325301D01*
X80700499Y-67231524D01*
X80700500Y-67231519D01*
X80700499Y-66441517D01*
X80720183Y-66374479D01*
X80736813Y-66353842D01*
X82544114Y-64546543D01*
X82620775Y-64431811D01*
X82631087Y-64406917D01*
X82637240Y-64392059D01*
X82673580Y-64304329D01*
X82679513Y-64274500D01*
X82681775Y-64263130D01*
X82681775Y-64263127D01*
X82699619Y-64173423D01*
X82700500Y-64168994D01*
X82700500Y-63068995D01*
X87299499Y-63068995D01*
X87326418Y-63204322D01*
X87326421Y-63204332D01*
X87379221Y-63331804D01*
X87379228Y-63331817D01*
X87455885Y-63446541D01*
X87455888Y-63446545D01*
X87553454Y-63544111D01*
X87553458Y-63544114D01*
X87668182Y-63620771D01*
X87668195Y-63620778D01*
X87795667Y-63673578D01*
X87795672Y-63673580D01*
X87795676Y-63673580D01*
X87795677Y-63673581D01*
X87931004Y-63700500D01*
X87931007Y-63700500D01*
X88068995Y-63700500D01*
X88160041Y-63682389D01*
X88204328Y-63673580D01*
X88302924Y-63632740D01*
X88331804Y-63620778D01*
X88331804Y-63620777D01*
X88331811Y-63620775D01*
X88446542Y-63544114D01*
X88544114Y-63446542D01*
X88620775Y-63331811D01*
X88673580Y-63204328D01*
X88684373Y-63150069D01*
X88700500Y-63068995D01*
X88700500Y-62931004D01*
X88673581Y-62795677D01*
X88673580Y-62795676D01*
X88673580Y-62795672D01*
X88673578Y-62795667D01*
X88622334Y-62671951D01*
X88614865Y-62602482D01*
X88646140Y-62540003D01*
X88706230Y-62504351D01*
X88736895Y-62500499D01*
X89231517Y-62500499D01*
X89231518Y-62500499D01*
X89325304Y-62485646D01*
X89438342Y-62428050D01*
X89528050Y-62338342D01*
X89585646Y-62225304D01*
X89585646Y-62225302D01*
X89585647Y-62225301D01*
X89600499Y-62131524D01*
X89600500Y-62131519D01*
X89600499Y-60768482D01*
X89585646Y-60674696D01*
X89528050Y-60561658D01*
X89528046Y-60561654D01*
X89528045Y-60561652D01*
X89438347Y-60471954D01*
X89438344Y-60471952D01*
X89438342Y-60471950D01*
X89337335Y-60420484D01*
X89325301Y-60414352D01*
X89231524Y-60399500D01*
X87668482Y-60399500D01*
X87587519Y-60412323D01*
X87574696Y-60414354D01*
X87461658Y-60471950D01*
X87461657Y-60471951D01*
X87461652Y-60471954D01*
X87371954Y-60561652D01*
X87371951Y-60561657D01*
X87314352Y-60674698D01*
X87299500Y-60768475D01*
X87299500Y-62131517D01*
X87307022Y-62179007D01*
X87314354Y-62225304D01*
X87336956Y-62269662D01*
X87371949Y-62338340D01*
X87375819Y-62343666D01*
X87382971Y-62363712D01*
X87394477Y-62381616D01*
X87397931Y-62405643D01*
X87399298Y-62409473D01*
X87399500Y-62416551D01*
X87399500Y-62600230D01*
X87381253Y-62662369D01*
X87382095Y-62662819D01*
X87379935Y-62666859D01*
X87379815Y-62667269D01*
X87379278Y-62668087D01*
X87379223Y-62668190D01*
X87326421Y-62795667D01*
X87326418Y-62795677D01*
X87299500Y-62931004D01*
X87299500Y-62931007D01*
X87299500Y-63068993D01*
X87299500Y-63068995D01*
X87299499Y-63068995D01*
X82700500Y-63068995D01*
X82700500Y-58931002D01*
X82696494Y-58910870D01*
X82696493Y-58910869D01*
X82696492Y-58910860D01*
X82673580Y-58795672D01*
X82660782Y-58764774D01*
X82620777Y-58668192D01*
X82544112Y-58553454D01*
X80996545Y-57005887D01*
X80895373Y-56938287D01*
X80881811Y-56929225D01*
X80799817Y-56895262D01*
X80762223Y-56879690D01*
X80707820Y-56835849D01*
X80687202Y-56784523D01*
X80686676Y-56781204D01*
X80685646Y-56774696D01*
X80628050Y-56661658D01*
X80628046Y-56661654D01*
X80628045Y-56661652D01*
X80538347Y-56571954D01*
X80538344Y-56571952D01*
X80538342Y-56571950D01*
X80448708Y-56526279D01*
X80425301Y-56514352D01*
X80331524Y-56499500D01*
X78768482Y-56499500D01*
X78687519Y-56512323D01*
X78674696Y-56514354D01*
X78561658Y-56571950D01*
X78561657Y-56571951D01*
X78561652Y-56571954D01*
X78471954Y-56661652D01*
X78471951Y-56661657D01*
X78471950Y-56661658D01*
X78457292Y-56690426D01*
X78414352Y-56774698D01*
X78399500Y-56868475D01*
X78399500Y-57138000D01*
X78379815Y-57205039D01*
X78327011Y-57250794D01*
X78275500Y-57262000D01*
X76696008Y-57262000D01*
X76628969Y-57242315D01*
X76583214Y-57189511D01*
X76572718Y-57151254D01*
X76569091Y-57117516D01*
X76518797Y-56982671D01*
X76518793Y-56982664D01*
X76432547Y-56867455D01*
X76432544Y-56867452D01*
X76317335Y-56781206D01*
X76317328Y-56781202D01*
X76182486Y-56730910D01*
X76182485Y-56730909D01*
X76182483Y-56730909D01*
X76122873Y-56724500D01*
X76122863Y-56724500D01*
X75827130Y-56724500D01*
X75827123Y-56724501D01*
X75767516Y-56730908D01*
X75693332Y-56758577D01*
X75623640Y-56763561D01*
X75606668Y-56758577D01*
X75532488Y-56730910D01*
X75532484Y-56730909D01*
X75532483Y-56730909D01*
X75472873Y-56724500D01*
X75472863Y-56724500D01*
X75177130Y-56724500D01*
X75177123Y-56724501D01*
X75117516Y-56730908D01*
X75043332Y-56758577D01*
X74973640Y-56763561D01*
X74956668Y-56758577D01*
X74882488Y-56730910D01*
X74882484Y-56730909D01*
X74882483Y-56730909D01*
X74822873Y-56724500D01*
X74822863Y-56724500D01*
X74527130Y-56724500D01*
X74527123Y-56724501D01*
X74467516Y-56730908D01*
X74393332Y-56758577D01*
X74323640Y-56763561D01*
X74306668Y-56758577D01*
X74232488Y-56730910D01*
X74232484Y-56730909D01*
X74232483Y-56730909D01*
X74172873Y-56724500D01*
X74172863Y-56724500D01*
X73877130Y-56724500D01*
X73877123Y-56724501D01*
X73817516Y-56730908D01*
X73682671Y-56781202D01*
X73682664Y-56781206D01*
X73567455Y-56867452D01*
X73567452Y-56867455D01*
X73481206Y-56982664D01*
X73481202Y-56982671D01*
X73430908Y-57117517D01*
X73424501Y-57177116D01*
X73424500Y-57177135D01*
X73424500Y-57703822D01*
X73404815Y-57770861D01*
X73388182Y-57791502D01*
X73349504Y-57830180D01*
X73349501Y-57830184D01*
X73349500Y-57830186D01*
X73317783Y-57885121D01*
X73283608Y-57944313D01*
X73249500Y-58071608D01*
X73249500Y-58860602D01*
X73229815Y-58927641D01*
X73200428Y-58959404D01*
X73182783Y-58972784D01*
X73182780Y-58972788D01*
X73093838Y-59090075D01*
X73039833Y-59227022D01*
X73029500Y-59313072D01*
X71010500Y-59313072D01*
X71010500Y-57969109D01*
X71030185Y-57902070D01*
X71082989Y-57856315D01*
X71152147Y-57846371D01*
X71166583Y-57849331D01*
X71170943Y-57850500D01*
X71170946Y-57850500D01*
X71329055Y-57850500D01*
X71329057Y-57850500D01*
X71481784Y-57809577D01*
X71618716Y-57730520D01*
X71730520Y-57618716D01*
X71809577Y-57481784D01*
X71850500Y-57329057D01*
X71850500Y-57170943D01*
X71809577Y-57018216D01*
X71789051Y-56982664D01*
X71730524Y-56881290D01*
X71730518Y-56881282D01*
X71618717Y-56769481D01*
X71618709Y-56769475D01*
X71481790Y-56690426D01*
X71481786Y-56690424D01*
X71481784Y-56690423D01*
X71329057Y-56649500D01*
X71170943Y-56649500D01*
X71170941Y-56649500D01*
X71090950Y-56670933D01*
X71021100Y-56669270D01*
X70983932Y-56649961D01*
X70983324Y-56649500D01*
X70951700Y-56625518D01*
X70909924Y-56593838D01*
X70909922Y-56593837D01*
X70772979Y-56539834D01*
X70772978Y-56539833D01*
X70686927Y-56529500D01*
X70333080Y-56529500D01*
X70247022Y-56539833D01*
X70110077Y-56593837D01*
X70110076Y-56593838D01*
X70074924Y-56620494D01*
X70009612Y-56645316D01*
X69941248Y-56630887D01*
X69925076Y-56620494D01*
X69889923Y-56593838D01*
X69889924Y-56593838D01*
X69889922Y-56593837D01*
X69752979Y-56539834D01*
X69752978Y-56539833D01*
X69666927Y-56529500D01*
X69313080Y-56529500D01*
X69227022Y-56539833D01*
X69090077Y-56593837D01*
X69090075Y-56593838D01*
X68972788Y-56682780D01*
X68972784Y-56682783D01*
X68966991Y-56690423D01*
X68959406Y-56700425D01*
X68903215Y-56741948D01*
X68860603Y-56749500D01*
X66138418Y-56749500D01*
X66071379Y-56729815D01*
X66025624Y-56677011D01*
X66015680Y-56607853D01*
X66015945Y-56606103D01*
X66027523Y-56532994D01*
X66027523Y-56532992D01*
X66027524Y-56532988D01*
X66027524Y-56068995D01*
X87299499Y-56068995D01*
X87326418Y-56204322D01*
X87326421Y-56204332D01*
X87379222Y-56331806D01*
X87382094Y-56337178D01*
X87380792Y-56337874D01*
X87384252Y-56348923D01*
X87394477Y-56364834D01*
X87398928Y-56395791D01*
X87399480Y-56397554D01*
X87399500Y-56399769D01*
X87399500Y-56583448D01*
X87379815Y-56650487D01*
X87375821Y-56656329D01*
X87371953Y-56661653D01*
X87371950Y-56661657D01*
X87371950Y-56661658D01*
X87357292Y-56690426D01*
X87314352Y-56774698D01*
X87299500Y-56868475D01*
X87299500Y-58231517D01*
X87305512Y-58269475D01*
X87314354Y-58325304D01*
X87371950Y-58438342D01*
X87371952Y-58438344D01*
X87371954Y-58438347D01*
X87461652Y-58528045D01*
X87461654Y-58528046D01*
X87461658Y-58528050D01*
X87568814Y-58582649D01*
X87574698Y-58585647D01*
X87668475Y-58600499D01*
X87668481Y-58600500D01*
X89231518Y-58600499D01*
X89325304Y-58585646D01*
X89438342Y-58528050D01*
X89528050Y-58438342D01*
X89585646Y-58325304D01*
X89585646Y-58325302D01*
X89585647Y-58325301D01*
X89600499Y-58231524D01*
X89600500Y-58231519D01*
X89600499Y-56868482D01*
X89585646Y-56774696D01*
X89528050Y-56661658D01*
X89528046Y-56661654D01*
X89528045Y-56661652D01*
X89438347Y-56571954D01*
X89438344Y-56571952D01*
X89438342Y-56571950D01*
X89348708Y-56526279D01*
X89325301Y-56514352D01*
X89231524Y-56499500D01*
X89231519Y-56499500D01*
X88736895Y-56499500D01*
X88669856Y-56479815D01*
X88624101Y-56427011D01*
X88614157Y-56357853D01*
X88622334Y-56328047D01*
X88631577Y-56305732D01*
X88673580Y-56204328D01*
X88682389Y-56160041D01*
X88700500Y-56068995D01*
X88700500Y-55931004D01*
X88673581Y-55795677D01*
X88673580Y-55795676D01*
X88673580Y-55795672D01*
X88643149Y-55722204D01*
X88620778Y-55668195D01*
X88620771Y-55668182D01*
X88544114Y-55553458D01*
X88544111Y-55553454D01*
X88446545Y-55455888D01*
X88446541Y-55455885D01*
X88331817Y-55379228D01*
X88331804Y-55379221D01*
X88204332Y-55326421D01*
X88204322Y-55326418D01*
X88068995Y-55299500D01*
X88068993Y-55299500D01*
X87931007Y-55299500D01*
X87931005Y-55299500D01*
X87795677Y-55326418D01*
X87795667Y-55326421D01*
X87668195Y-55379221D01*
X87668182Y-55379228D01*
X87553458Y-55455885D01*
X87553454Y-55455888D01*
X87455888Y-55553454D01*
X87455885Y-55553458D01*
X87379228Y-55668182D01*
X87379221Y-55668195D01*
X87326421Y-55795667D01*
X87326418Y-55795677D01*
X87299500Y-55931004D01*
X87299500Y-55931007D01*
X87299500Y-56068993D01*
X87299500Y-56068995D01*
X87299499Y-56068995D01*
X66027524Y-56068995D01*
X66027523Y-55469951D01*
X66012670Y-55376165D01*
X65955074Y-55263127D01*
X65955070Y-55263123D01*
X65955069Y-55263121D01*
X65865371Y-55173423D01*
X65865368Y-55173421D01*
X65865366Y-55173419D01*
X65788541Y-55134274D01*
X65752325Y-55115821D01*
X65658548Y-55100969D01*
X63015506Y-55100969D01*
X62934543Y-55113792D01*
X62921720Y-55115823D01*
X62808682Y-55173419D01*
X62808681Y-55173420D01*
X62808676Y-55173423D01*
X62718978Y-55263121D01*
X62718975Y-55263126D01*
X62661376Y-55376167D01*
X62646524Y-55469944D01*
X62646524Y-56532992D01*
X62658104Y-56606103D01*
X62649149Y-56675396D01*
X62604152Y-56728848D01*
X62537401Y-56749487D01*
X62535631Y-56749500D01*
X61968418Y-56749500D01*
X61901379Y-56729815D01*
X61855624Y-56677011D01*
X61845680Y-56607853D01*
X61845945Y-56606103D01*
X61857523Y-56532994D01*
X61857523Y-56532992D01*
X61857524Y-56532988D01*
X61857523Y-55469951D01*
X61842670Y-55376165D01*
X61785074Y-55263127D01*
X61785070Y-55263123D01*
X61785069Y-55263121D01*
X61695371Y-55173423D01*
X61695367Y-55173420D01*
X61695366Y-55173419D01*
X61682201Y-55166711D01*
X61574732Y-55111952D01*
X61523937Y-55063978D01*
X61507142Y-54996157D01*
X61529680Y-54930022D01*
X61574734Y-54890983D01*
X61582324Y-54887115D01*
X61582328Y-54887115D01*
X61695366Y-54829519D01*
X61785074Y-54739811D01*
X61842670Y-54626773D01*
X61842670Y-54626771D01*
X61842671Y-54626770D01*
X61857523Y-54532993D01*
X61857524Y-54532988D01*
X61857523Y-53469951D01*
X61842670Y-53376165D01*
X61785074Y-53263127D01*
X61785070Y-53263123D01*
X61785069Y-53263121D01*
X61695371Y-53173423D01*
X61695368Y-53173421D01*
X61695366Y-53173419D01*
X61635227Y-53142776D01*
X61624164Y-53132328D01*
X61610321Y-53126006D01*
X61599279Y-53108825D01*
X61584433Y-53094803D01*
X61580191Y-53079123D01*
X61572547Y-53067228D01*
X61567524Y-53032293D01*
X61567524Y-53015346D01*
X73424498Y-53015346D01*
X73465423Y-53168077D01*
X73482089Y-53196943D01*
X73482088Y-53196943D01*
X73482089Y-53196944D01*
X73544475Y-53305001D01*
X73544479Y-53305006D01*
X73544480Y-53305008D01*
X73656284Y-53416812D01*
X73656285Y-53416813D01*
X73995992Y-53756520D01*
X73995994Y-53756521D01*
X73995998Y-53756524D01*
X74132917Y-53835573D01*
X74132920Y-53835575D01*
X74132924Y-53835577D01*
X74285651Y-53876501D01*
X74285653Y-53876501D01*
X74451362Y-53876501D01*
X74451378Y-53876500D01*
X78637331Y-53876500D01*
X78637347Y-53876501D01*
X78644943Y-53876501D01*
X78803054Y-53876501D01*
X78803057Y-53876501D01*
X78955785Y-53835577D01*
X79024902Y-53795672D01*
X79092716Y-53756520D01*
X79204520Y-53644716D01*
X79204520Y-53644714D01*
X79214720Y-53634515D01*
X79214724Y-53634510D01*
X79312418Y-53536815D01*
X79373740Y-53503333D01*
X79400097Y-53500499D01*
X79558480Y-53500499D01*
X79625519Y-53520184D01*
X79646161Y-53536818D01*
X80317992Y-54208649D01*
X80344872Y-54248877D01*
X80379223Y-54331807D01*
X80379228Y-54331817D01*
X80455885Y-54446541D01*
X80455888Y-54446545D01*
X80553454Y-54544111D01*
X80553458Y-54544114D01*
X80668182Y-54620771D01*
X80668195Y-54620778D01*
X80795667Y-54673578D01*
X80795672Y-54673580D01*
X80795676Y-54673580D01*
X80795677Y-54673581D01*
X80931004Y-54700500D01*
X80931007Y-54700500D01*
X81068995Y-54700500D01*
X81160041Y-54682389D01*
X81204328Y-54673580D01*
X81302924Y-54632740D01*
X81331804Y-54620778D01*
X81331804Y-54620777D01*
X81331811Y-54620775D01*
X81446542Y-54544114D01*
X81544114Y-54446542D01*
X81620775Y-54331811D01*
X81673580Y-54204328D01*
X81697949Y-54081817D01*
X81700500Y-54068995D01*
X87299499Y-54068995D01*
X87326418Y-54204322D01*
X87326421Y-54204332D01*
X87379221Y-54331804D01*
X87379228Y-54331817D01*
X87455885Y-54446541D01*
X87455888Y-54446545D01*
X87553454Y-54544111D01*
X87553458Y-54544114D01*
X87668182Y-54620771D01*
X87668195Y-54620778D01*
X87795667Y-54673578D01*
X87795672Y-54673580D01*
X87795676Y-54673580D01*
X87795677Y-54673581D01*
X87931004Y-54700500D01*
X87931007Y-54700500D01*
X88068995Y-54700500D01*
X88160041Y-54682389D01*
X88204328Y-54673580D01*
X88302924Y-54632740D01*
X88331804Y-54620778D01*
X88331804Y-54620777D01*
X88331811Y-54620775D01*
X88446542Y-54544114D01*
X88544114Y-54446542D01*
X88620775Y-54331811D01*
X88673580Y-54204328D01*
X88697949Y-54081817D01*
X88700500Y-54068995D01*
X88700500Y-53931004D01*
X88673581Y-53795677D01*
X88673580Y-53795673D01*
X88673580Y-53795672D01*
X88673578Y-53795667D01*
X88622334Y-53671951D01*
X88614865Y-53602482D01*
X88646140Y-53540003D01*
X88706230Y-53504351D01*
X88736895Y-53500499D01*
X89231517Y-53500499D01*
X89231518Y-53500499D01*
X89325304Y-53485646D01*
X89438342Y-53428050D01*
X89528050Y-53338342D01*
X89585646Y-53225304D01*
X89585646Y-53225302D01*
X89585647Y-53225301D01*
X89600499Y-53131524D01*
X89600500Y-53131519D01*
X89600499Y-51768482D01*
X89585646Y-51674696D01*
X89528050Y-51561658D01*
X89528046Y-51561654D01*
X89528045Y-51561652D01*
X89438347Y-51471954D01*
X89438344Y-51471952D01*
X89438342Y-51471950D01*
X89361517Y-51432805D01*
X89325301Y-51414352D01*
X89231524Y-51399500D01*
X87668482Y-51399500D01*
X87587519Y-51412323D01*
X87574696Y-51414354D01*
X87461658Y-51471950D01*
X87461657Y-51471951D01*
X87461652Y-51471954D01*
X87371954Y-51561652D01*
X87371951Y-51561657D01*
X87314352Y-51674698D01*
X87299500Y-51768475D01*
X87299500Y-53131517D01*
X87309862Y-53196943D01*
X87314354Y-53225304D01*
X87354966Y-53305009D01*
X87371949Y-53338340D01*
X87375819Y-53343666D01*
X87382971Y-53363712D01*
X87394477Y-53381616D01*
X87397931Y-53405643D01*
X87399298Y-53409473D01*
X87399500Y-53416551D01*
X87399500Y-53600230D01*
X87381253Y-53662369D01*
X87382095Y-53662819D01*
X87379935Y-53666859D01*
X87379815Y-53667269D01*
X87379278Y-53668087D01*
X87379223Y-53668190D01*
X87326421Y-53795667D01*
X87326418Y-53795677D01*
X87299500Y-53931004D01*
X87299500Y-53931007D01*
X87299500Y-54068993D01*
X87299500Y-54068995D01*
X87299499Y-54068995D01*
X81700500Y-54068995D01*
X81700500Y-53831006D01*
X81693471Y-53795673D01*
X81693471Y-53795670D01*
X81673581Y-53695679D01*
X81673580Y-53695672D01*
X81667504Y-53681004D01*
X81620777Y-53568192D01*
X81544112Y-53453454D01*
X80736818Y-52646160D01*
X80703333Y-52584837D01*
X80700499Y-52558479D01*
X80700499Y-51768482D01*
X80700498Y-51768475D01*
X80685646Y-51674696D01*
X80628050Y-51561658D01*
X80628046Y-51561654D01*
X80628045Y-51561652D01*
X80538347Y-51471954D01*
X80538344Y-51471952D01*
X80538342Y-51471950D01*
X80461517Y-51432805D01*
X80425301Y-51414352D01*
X80331524Y-51399500D01*
X78768482Y-51399500D01*
X78687519Y-51412323D01*
X78674696Y-51414354D01*
X78561658Y-51471950D01*
X78561657Y-51471951D01*
X78561652Y-51471954D01*
X78471954Y-51561652D01*
X78471951Y-51561657D01*
X78414352Y-51674698D01*
X78399500Y-51768475D01*
X78399501Y-52551500D01*
X78379817Y-52618539D01*
X78327013Y-52664294D01*
X78275501Y-52675500D01*
X76049500Y-52675500D01*
X75982461Y-52655815D01*
X75936706Y-52603011D01*
X75925500Y-52551500D01*
X75925499Y-51545807D01*
X75945183Y-51478768D01*
X75961819Y-51458125D01*
X76005276Y-51414669D01*
X76076465Y-51308127D01*
X76125501Y-51189744D01*
X76140672Y-51113478D01*
X76150500Y-51064071D01*
X76150500Y-50935928D01*
X76125502Y-50810261D01*
X76125501Y-50810260D01*
X76125501Y-50810256D01*
X76076465Y-50691873D01*
X76076464Y-50691872D01*
X76076461Y-50691866D01*
X76005276Y-50585331D01*
X76005273Y-50585327D01*
X75914672Y-50494726D01*
X75914668Y-50494723D01*
X75808133Y-50423538D01*
X75808124Y-50423533D01*
X75689744Y-50374499D01*
X75689738Y-50374497D01*
X75564071Y-50349500D01*
X75564069Y-50349500D01*
X75435931Y-50349500D01*
X75435929Y-50349500D01*
X75310261Y-50374497D01*
X75310255Y-50374499D01*
X75191875Y-50423533D01*
X75191866Y-50423538D01*
X75085331Y-50494723D01*
X75085327Y-50494726D01*
X74994726Y-50585327D01*
X74994723Y-50585331D01*
X74923538Y-50691866D01*
X74923533Y-50691875D01*
X74874499Y-50810255D01*
X74874497Y-50810261D01*
X74856708Y-50899692D01*
X74824323Y-50961603D01*
X74763607Y-50996177D01*
X74735092Y-50999500D01*
X74527130Y-50999500D01*
X74527123Y-50999501D01*
X74467516Y-51005908D01*
X74393332Y-51033577D01*
X74323640Y-51038561D01*
X74306668Y-51033577D01*
X74232488Y-51005910D01*
X74232484Y-51005909D01*
X74232483Y-51005909D01*
X74172873Y-50999500D01*
X74172863Y-50999500D01*
X73877130Y-50999500D01*
X73877123Y-50999501D01*
X73817516Y-51005908D01*
X73682671Y-51056202D01*
X73682664Y-51056206D01*
X73567455Y-51142452D01*
X73567452Y-51142455D01*
X73481206Y-51257664D01*
X73481202Y-51257671D01*
X73430908Y-51392517D01*
X73424501Y-51452116D01*
X73424500Y-51452135D01*
X73424500Y-52849622D01*
X73424499Y-52849640D01*
X73424499Y-53015346D01*
X73424498Y-53015346D01*
X61567524Y-53015346D01*
X61567524Y-52970644D01*
X61587209Y-52903605D01*
X61635227Y-52860161D01*
X61695366Y-52829519D01*
X61702078Y-52822807D01*
X61762936Y-52761950D01*
X61785069Y-52739816D01*
X61785074Y-52739811D01*
X61842670Y-52626773D01*
X61842670Y-52626771D01*
X61842671Y-52626770D01*
X61857523Y-52532993D01*
X61857524Y-52532988D01*
X61857523Y-51469951D01*
X61842670Y-51376165D01*
X61785074Y-51263127D01*
X61785070Y-51263123D01*
X61785069Y-51263121D01*
X61695371Y-51173423D01*
X61695368Y-51173421D01*
X61695366Y-51173419D01*
X61635227Y-51142776D01*
X61624164Y-51132328D01*
X61610321Y-51126006D01*
X61599279Y-51108825D01*
X61584433Y-51094803D01*
X61580191Y-51079123D01*
X61572547Y-51067228D01*
X61567524Y-51032293D01*
X61567524Y-50970644D01*
X61587209Y-50903605D01*
X61635227Y-50860161D01*
X61695366Y-50829519D01*
X61785074Y-50739811D01*
X61842670Y-50626773D01*
X61842670Y-50626771D01*
X61842671Y-50626770D01*
X61857523Y-50532993D01*
X61857524Y-50532988D01*
X61857523Y-49469951D01*
X61842670Y-49376165D01*
X61785074Y-49263127D01*
X61785070Y-49263123D01*
X61785069Y-49263121D01*
X61695371Y-49173423D01*
X61695368Y-49173421D01*
X61695366Y-49173419D01*
X61635227Y-49142776D01*
X61624164Y-49132328D01*
X61610321Y-49126006D01*
X61599279Y-49108825D01*
X61584433Y-49094803D01*
X61580191Y-49079123D01*
X61572547Y-49067228D01*
X61567524Y-49032293D01*
X61567524Y-48970644D01*
X61587209Y-48903605D01*
X61635227Y-48860161D01*
X61695366Y-48829519D01*
X61785074Y-48739811D01*
X61842670Y-48626773D01*
X61842670Y-48626771D01*
X61842671Y-48626770D01*
X61857523Y-48532993D01*
X61857524Y-48532988D01*
X61857523Y-47469951D01*
X61842670Y-47376165D01*
X61785074Y-47263127D01*
X61785070Y-47263123D01*
X61785069Y-47263121D01*
X61695371Y-47173423D01*
X61695368Y-47173421D01*
X61695366Y-47173419D01*
X61635227Y-47142776D01*
X61624164Y-47132328D01*
X61610321Y-47126006D01*
X61599279Y-47108825D01*
X61584433Y-47094803D01*
X61580191Y-47079123D01*
X61572547Y-47067228D01*
X61567524Y-47032293D01*
X61567524Y-46970644D01*
X61587209Y-46903605D01*
X61635227Y-46860161D01*
X61695366Y-46829519D01*
X61785074Y-46739811D01*
X61842670Y-46626773D01*
X61842670Y-46626771D01*
X61842671Y-46626770D01*
X61854282Y-46553458D01*
X61857524Y-46532988D01*
X61857523Y-45469951D01*
X61842670Y-45376165D01*
X61785074Y-45263127D01*
X61785070Y-45263123D01*
X61785069Y-45263121D01*
X61695371Y-45173423D01*
X61695368Y-45173421D01*
X61695366Y-45173419D01*
X61635227Y-45142776D01*
X61624164Y-45132328D01*
X61610321Y-45126006D01*
X61599279Y-45108825D01*
X61584433Y-45094803D01*
X61580191Y-45079123D01*
X61572547Y-45067228D01*
X61567524Y-45032293D01*
X61567524Y-44970644D01*
X61587209Y-44903605D01*
X61635227Y-44860161D01*
X61695366Y-44829519D01*
X61785074Y-44739811D01*
X61842670Y-44626773D01*
X61842670Y-44626771D01*
X61842671Y-44626770D01*
X61853888Y-44555947D01*
X61857524Y-44532988D01*
X61857523Y-43469951D01*
X61842670Y-43376165D01*
X61785074Y-43263127D01*
X61785070Y-43263123D01*
X61785069Y-43263121D01*
X61695371Y-43173423D01*
X61695368Y-43173421D01*
X61695366Y-43173419D01*
X61618541Y-43134274D01*
X61582325Y-43115821D01*
X61488548Y-43100969D01*
X61488543Y-43100969D01*
X61298494Y-43100969D01*
X61231455Y-43081284D01*
X61210813Y-43064651D01*
X61204106Y-43057944D01*
X61079389Y-42933227D01*
X61079385Y-42933224D01*
X61079381Y-42933220D01*
X60901049Y-42803656D01*
X60901048Y-42803655D01*
X60901046Y-42803654D01*
X60838120Y-42771591D01*
X60704630Y-42703573D01*
X60704627Y-42703572D01*
X60494976Y-42635454D01*
X60386110Y-42618211D01*
X60277246Y-42600969D01*
X60056802Y-42600969D01*
X59996632Y-42610499D01*
X59839071Y-42635454D01*
X59629420Y-42703572D01*
X59629417Y-42703573D01*
X59432998Y-42803656D01*
X59254666Y-42933220D01*
X59123235Y-43064651D01*
X59061912Y-43098135D01*
X59035555Y-43100969D01*
X58845506Y-43100969D01*
X58764543Y-43113792D01*
X58751720Y-43115823D01*
X58638682Y-43173419D01*
X58638681Y-43173420D01*
X58638676Y-43173423D01*
X58548978Y-43263121D01*
X58548975Y-43263126D01*
X58548974Y-43263127D01*
X58535019Y-43290515D01*
X58491376Y-43376167D01*
X58476524Y-43469944D01*
X47035514Y-43469944D01*
X47035514Y-43463244D01*
X47020661Y-43369458D01*
X46963065Y-43256420D01*
X46963061Y-43256416D01*
X46963060Y-43256414D01*
X46873362Y-43166716D01*
X46873359Y-43166714D01*
X46873357Y-43166712D01*
X46796532Y-43127567D01*
X46760316Y-43109114D01*
X46666539Y-43094262D01*
X46666534Y-43094262D01*
X46476485Y-43094262D01*
X46409446Y-43074577D01*
X46388804Y-43057944D01*
X46257380Y-42926520D01*
X46257376Y-42926517D01*
X46257372Y-42926513D01*
X46079040Y-42796949D01*
X46079039Y-42796948D01*
X46079037Y-42796947D01*
X45969464Y-42741116D01*
X45882621Y-42696866D01*
X45882618Y-42696865D01*
X45672967Y-42628747D01*
X45497583Y-42600969D01*
X45455237Y-42594262D01*
X45234793Y-42594262D01*
X45192447Y-42600969D01*
X45017062Y-42628747D01*
X44807411Y-42696865D01*
X44807408Y-42696866D01*
X44610989Y-42796949D01*
X44432657Y-42926513D01*
X44301226Y-43057944D01*
X44239903Y-43091428D01*
X44213546Y-43094262D01*
X44023497Y-43094262D01*
X43942534Y-43107085D01*
X43929711Y-43109116D01*
X43816673Y-43166712D01*
X43816672Y-43166713D01*
X43816667Y-43166716D01*
X43726969Y-43256414D01*
X43726966Y-43256419D01*
X43726965Y-43256420D01*
X43723548Y-43263127D01*
X43669367Y-43369460D01*
X43654515Y-43463237D01*
X43654515Y-44526279D01*
X43665307Y-44594419D01*
X43669369Y-44620066D01*
X43726965Y-44733104D01*
X43726967Y-44733106D01*
X43726969Y-44733109D01*
X43816667Y-44822807D01*
X43816673Y-44822812D01*
X43876811Y-44853454D01*
X43887872Y-44863901D01*
X43901718Y-44870224D01*
X43912759Y-44887405D01*
X43927605Y-44901426D01*
X43931846Y-44917105D01*
X43939492Y-44929002D01*
X43944515Y-44963937D01*
X43944515Y-45025586D01*
X43924830Y-45092625D01*
X43876811Y-45136069D01*
X43816673Y-45166712D01*
X43816672Y-45166713D01*
X43816667Y-45166716D01*
X43726969Y-45256414D01*
X43726966Y-45256419D01*
X43726965Y-45256420D01*
X43723548Y-45263127D01*
X43669367Y-45369460D01*
X43654515Y-45463237D01*
X43654515Y-46526279D01*
X43665307Y-46594419D01*
X43669369Y-46620066D01*
X43726965Y-46733104D01*
X43726967Y-46733106D01*
X43726969Y-46733109D01*
X43816667Y-46822807D01*
X43816673Y-46822812D01*
X43876811Y-46853454D01*
X43887872Y-46863901D01*
X43901718Y-46870224D01*
X43912759Y-46887405D01*
X43927605Y-46901426D01*
X43931846Y-46917105D01*
X43939492Y-46929002D01*
X43944515Y-46963937D01*
X43944515Y-47025586D01*
X43924830Y-47092625D01*
X43876811Y-47136069D01*
X43816673Y-47166712D01*
X43816672Y-47166713D01*
X43816667Y-47166716D01*
X43726969Y-47256414D01*
X43726966Y-47256419D01*
X43726965Y-47256420D01*
X43723548Y-47263127D01*
X43669367Y-47369460D01*
X43654515Y-47463237D01*
X43654515Y-48526279D01*
X43665307Y-48594419D01*
X43669369Y-48620066D01*
X43726965Y-48733104D01*
X43726967Y-48733106D01*
X43726969Y-48733109D01*
X43816667Y-48822807D01*
X43816673Y-48822812D01*
X43876811Y-48853454D01*
X43887872Y-48863901D01*
X43901718Y-48870224D01*
X43912759Y-48887405D01*
X43927605Y-48901426D01*
X43931846Y-48917105D01*
X43939492Y-48929002D01*
X43944515Y-48963937D01*
X43944515Y-49025586D01*
X43924830Y-49092625D01*
X43876811Y-49136069D01*
X43816673Y-49166712D01*
X43816672Y-49166713D01*
X43816667Y-49166716D01*
X43726969Y-49256414D01*
X43726966Y-49256419D01*
X43726965Y-49256420D01*
X43723548Y-49263127D01*
X43669367Y-49369460D01*
X43654515Y-49463237D01*
X43654515Y-50526279D01*
X43661281Y-50568995D01*
X43669369Y-50620066D01*
X43726965Y-50733104D01*
X43726967Y-50733106D01*
X43726969Y-50733109D01*
X43816667Y-50822807D01*
X43816673Y-50822812D01*
X43876811Y-50853454D01*
X43887872Y-50863901D01*
X43901718Y-50870224D01*
X43912759Y-50887405D01*
X43927605Y-50901426D01*
X43931846Y-50917105D01*
X43939492Y-50929002D01*
X43944515Y-50963937D01*
X43944515Y-51025586D01*
X43924830Y-51092625D01*
X43876811Y-51136069D01*
X43816673Y-51166712D01*
X43816672Y-51166713D01*
X43816667Y-51166716D01*
X43726969Y-51256414D01*
X43726966Y-51256419D01*
X43726965Y-51256420D01*
X43723548Y-51263127D01*
X43669367Y-51369460D01*
X43654515Y-51463237D01*
X43654515Y-52526279D01*
X43658510Y-52551500D01*
X43669369Y-52620066D01*
X43726965Y-52733104D01*
X43726967Y-52733106D01*
X43726969Y-52733109D01*
X43816667Y-52822807D01*
X43816673Y-52822812D01*
X43876811Y-52853454D01*
X43887872Y-52863901D01*
X43901718Y-52870224D01*
X43912759Y-52887405D01*
X43927605Y-52901426D01*
X43931846Y-52917105D01*
X43939492Y-52929002D01*
X43944515Y-52963937D01*
X43944515Y-53025586D01*
X43924830Y-53092625D01*
X43876811Y-53136069D01*
X43816673Y-53166712D01*
X43816672Y-53166713D01*
X43816667Y-53166716D01*
X43726969Y-53256414D01*
X43726966Y-53256419D01*
X43726965Y-53256420D01*
X43723548Y-53263127D01*
X43669367Y-53369460D01*
X43654515Y-53463237D01*
X43654515Y-53463242D01*
X43654515Y-53463243D01*
X43654515Y-53954332D01*
X43654516Y-54325500D01*
X43634832Y-54392539D01*
X43582028Y-54438294D01*
X43530516Y-54449500D01*
X39322472Y-54449500D01*
X39177523Y-54449500D01*
X39072515Y-54477637D01*
X39037512Y-54487016D01*
X38911984Y-54559489D01*
X38911981Y-54559491D01*
X38486530Y-54984943D01*
X38425207Y-55018428D01*
X38355515Y-55013444D01*
X38340388Y-55006616D01*
X38336479Y-55004526D01*
X38192603Y-54944921D01*
X38039857Y-54914534D01*
X37884118Y-54914535D01*
X37731375Y-54944927D01*
X37731364Y-54944930D01*
X37587497Y-55004538D01*
X37587485Y-55004545D01*
X37458018Y-55091077D01*
X37458014Y-55091080D01*
X37458014Y-55091081D01*
X37407544Y-55141566D01*
X37407544Y-55141567D01*
X37351731Y-55197379D01*
X37351718Y-55197385D01*
X37351720Y-55197387D01*
X37263146Y-55285944D01*
X37176613Y-55415427D01*
X37117012Y-55559299D01*
X37117011Y-55559302D01*
X37086626Y-55712042D01*
X37086627Y-55867778D01*
X37117015Y-56020512D01*
X37117019Y-56020525D01*
X37148962Y-56097624D01*
X37176625Y-56164394D01*
X37176628Y-56164398D01*
X37178709Y-56168291D01*
X37192957Y-56236692D01*
X37167963Y-56301938D01*
X37157037Y-56314435D01*
X35814864Y-57656607D01*
X35753541Y-57690092D01*
X35683849Y-57685108D01*
X35670888Y-57679411D01*
X35666842Y-57677349D01*
X35612186Y-57649500D01*
X35553801Y-57619751D01*
X35460024Y-57604899D01*
X33644382Y-57604899D01*
X33563419Y-57617722D01*
X33550596Y-57619753D01*
X33496112Y-57647513D01*
X33437553Y-57677351D01*
X33428723Y-57686182D01*
X33367399Y-57719665D01*
X33341045Y-57722498D01*
X32666482Y-57722498D01*
X32572693Y-57737352D01*
X32563410Y-57740369D01*
X32562954Y-57738966D01*
X32519084Y-57749500D01*
X32158117Y-57749500D01*
X32091078Y-57729815D01*
X32083806Y-57724767D01*
X32080776Y-57722499D01*
X32071969Y-57715906D01*
X32055228Y-57703373D01*
X32055226Y-57703372D01*
X31927114Y-57655588D01*
X31927112Y-57655587D01*
X31927110Y-57655587D01*
X31870493Y-57649500D01*
X31629519Y-57649500D01*
X31629509Y-57649501D01*
X31572885Y-57655587D01*
X31444773Y-57703372D01*
X31335313Y-57785313D01*
X31253373Y-57894771D01*
X31205587Y-58022889D01*
X31201685Y-58059181D01*
X31174946Y-58123732D01*
X31117552Y-58163578D01*
X31110489Y-58165698D01*
X31018216Y-58190423D01*
X31018215Y-58190423D01*
X31018213Y-58190424D01*
X31018209Y-58190426D01*
X30881290Y-58269475D01*
X30881282Y-58269481D01*
X30769481Y-58381282D01*
X30769475Y-58381290D01*
X30690426Y-58518209D01*
X30690423Y-58518216D01*
X30649500Y-58670943D01*
X28521820Y-58670943D01*
X28521820Y-47068995D01*
X30549499Y-47068995D01*
X30576418Y-47204322D01*
X30576421Y-47204332D01*
X30629221Y-47331804D01*
X30629228Y-47331817D01*
X30705884Y-47446540D01*
X30705885Y-47446541D01*
X30705886Y-47446542D01*
X30763182Y-47503838D01*
X30796666Y-47565159D01*
X30799500Y-47591518D01*
X30799500Y-49908480D01*
X30779815Y-49975519D01*
X30763183Y-49996160D01*
X30705883Y-50053461D01*
X30629228Y-50168182D01*
X30629221Y-50168195D01*
X30576421Y-50295667D01*
X30576418Y-50295677D01*
X30549500Y-50431004D01*
X30549500Y-50431007D01*
X30549500Y-50568993D01*
X30549500Y-50568995D01*
X30549499Y-50568995D01*
X30576418Y-50704322D01*
X30576421Y-50704332D01*
X30629221Y-50831804D01*
X30629228Y-50831817D01*
X30705884Y-50946540D01*
X30705885Y-50946541D01*
X30705886Y-50946542D01*
X30763182Y-51003838D01*
X30796666Y-51065159D01*
X30799500Y-51091518D01*
X30799500Y-53158481D01*
X30779815Y-53225520D01*
X30763181Y-53246162D01*
X30705888Y-53303454D01*
X30705885Y-53303458D01*
X30629228Y-53418182D01*
X30629221Y-53418195D01*
X30576421Y-53545667D01*
X30576418Y-53545677D01*
X30549500Y-53681004D01*
X30549500Y-53681007D01*
X30549500Y-53818993D01*
X30549500Y-53818995D01*
X30549499Y-53818995D01*
X30576418Y-53954322D01*
X30576421Y-53954332D01*
X30629221Y-54081804D01*
X30629228Y-54081817D01*
X30705885Y-54196541D01*
X30705888Y-54196545D01*
X30803454Y-54294111D01*
X30803458Y-54294114D01*
X30918182Y-54370771D01*
X30918195Y-54370778D01*
X31042007Y-54422062D01*
X31045672Y-54423580D01*
X31045676Y-54423580D01*
X31045677Y-54423581D01*
X31181004Y-54450500D01*
X31181007Y-54450500D01*
X31318995Y-54450500D01*
X31410041Y-54432389D01*
X31454328Y-54423580D01*
X31454335Y-54423576D01*
X31460155Y-54421812D01*
X31460651Y-54423448D01*
X31522003Y-54416846D01*
X31539769Y-54422062D01*
X31539845Y-54421812D01*
X31545667Y-54423578D01*
X31545672Y-54423580D01*
X31545676Y-54423580D01*
X31545677Y-54423581D01*
X31681004Y-54450500D01*
X31681007Y-54450500D01*
X31818995Y-54450500D01*
X31910041Y-54432389D01*
X31954328Y-54423580D01*
X31954335Y-54423576D01*
X31960155Y-54421812D01*
X31960651Y-54423448D01*
X32022003Y-54416846D01*
X32039769Y-54422062D01*
X32039845Y-54421812D01*
X32045667Y-54423578D01*
X32045672Y-54423580D01*
X32045676Y-54423580D01*
X32045677Y-54423581D01*
X32181004Y-54450500D01*
X32181007Y-54450500D01*
X32318995Y-54450500D01*
X32410041Y-54432389D01*
X32454328Y-54423580D01*
X32581811Y-54370775D01*
X32696542Y-54294114D01*
X32794114Y-54196542D01*
X32870775Y-54081811D01*
X32923580Y-53954328D01*
X32939061Y-53876500D01*
X32950500Y-53818995D01*
X32950500Y-53681004D01*
X32923581Y-53545677D01*
X32923580Y-53545676D01*
X32923580Y-53545672D01*
X32913023Y-53520184D01*
X32870778Y-53418195D01*
X32870771Y-53418182D01*
X32794114Y-53303458D01*
X32794111Y-53303454D01*
X32786819Y-53296162D01*
X32753334Y-53234839D01*
X32750500Y-53208481D01*
X32750500Y-51084313D01*
X32750500Y-51084306D01*
X32748115Y-51054011D01*
X32762478Y-50985637D01*
X32784052Y-50956603D01*
X32794114Y-50946542D01*
X32870775Y-50831811D01*
X32871727Y-50829514D01*
X32908880Y-50739816D01*
X32923580Y-50704328D01*
X32939007Y-50626771D01*
X32950500Y-50568995D01*
X32950500Y-50431004D01*
X32923581Y-50295677D01*
X32923580Y-50295676D01*
X32923580Y-50295672D01*
X32923578Y-50295667D01*
X32870778Y-50168195D01*
X32870771Y-50168182D01*
X32794114Y-50053458D01*
X32794111Y-50053454D01*
X32784053Y-50043396D01*
X32750568Y-49982073D01*
X32748116Y-49945987D01*
X32750499Y-49915701D01*
X32750500Y-49915694D01*
X32750500Y-47584306D01*
X32748115Y-47554011D01*
X32762478Y-47485637D01*
X32784052Y-47456603D01*
X32794114Y-47446542D01*
X32870775Y-47331811D01*
X32923580Y-47204328D01*
X32939236Y-47125621D01*
X32950500Y-47068995D01*
X32950500Y-46931004D01*
X32923581Y-46795677D01*
X32923580Y-46795676D01*
X32923580Y-46795672D01*
X32905435Y-46751865D01*
X32870778Y-46668195D01*
X32870771Y-46668182D01*
X32794114Y-46553458D01*
X32794111Y-46553454D01*
X32784053Y-46543396D01*
X32750568Y-46482073D01*
X32748116Y-46445987D01*
X32750499Y-46415701D01*
X32750500Y-46415694D01*
X32750500Y-44084306D01*
X32747598Y-44047431D01*
X32733359Y-43998422D01*
X32701745Y-43889606D01*
X32701744Y-43889603D01*
X32701744Y-43889602D01*
X32618081Y-43748135D01*
X32618079Y-43748133D01*
X32618076Y-43748129D01*
X32501870Y-43631923D01*
X32501862Y-43631917D01*
X32360396Y-43548255D01*
X32360393Y-43548254D01*
X32202573Y-43502402D01*
X32202567Y-43502401D01*
X32165701Y-43499500D01*
X32165694Y-43499500D01*
X31384306Y-43499500D01*
X31384298Y-43499500D01*
X31347432Y-43502401D01*
X31347426Y-43502402D01*
X31189606Y-43548254D01*
X31189603Y-43548255D01*
X31048137Y-43631917D01*
X31048129Y-43631923D01*
X30931923Y-43748129D01*
X30931917Y-43748137D01*
X30848255Y-43889603D01*
X30848254Y-43889606D01*
X30802402Y-44047426D01*
X30802401Y-44047432D01*
X30799500Y-44084298D01*
X30799500Y-46408480D01*
X30779815Y-46475519D01*
X30763183Y-46496160D01*
X30705883Y-46553461D01*
X30629228Y-46668182D01*
X30629221Y-46668195D01*
X30576421Y-46795667D01*
X30576418Y-46795677D01*
X30549500Y-46931004D01*
X30549500Y-46931007D01*
X30549500Y-47068993D01*
X30549500Y-47068995D01*
X30549499Y-47068995D01*
X28521820Y-47068995D01*
X28521820Y-40609298D01*
X33749500Y-40609298D01*
X33749500Y-42890701D01*
X33752401Y-42927567D01*
X33752402Y-42927573D01*
X33798254Y-43085393D01*
X33798255Y-43085396D01*
X33798256Y-43085398D01*
X33881919Y-43226865D01*
X33888179Y-43233125D01*
X33921665Y-43294445D01*
X33924500Y-43320808D01*
X33924500Y-43654191D01*
X33904815Y-43721230D01*
X33888181Y-43741872D01*
X33881923Y-43748129D01*
X33881917Y-43748137D01*
X33798255Y-43889603D01*
X33798254Y-43889606D01*
X33752402Y-44047426D01*
X33752401Y-44047432D01*
X33749500Y-44084298D01*
X33749500Y-46415701D01*
X33752401Y-46452567D01*
X33752402Y-46452573D01*
X33798254Y-46610393D01*
X33798255Y-46610396D01*
X33798256Y-46610398D01*
X33803974Y-46620066D01*
X33881917Y-46751862D01*
X33881923Y-46751870D01*
X33998129Y-46868076D01*
X33998133Y-46868079D01*
X33998135Y-46868081D01*
X34139602Y-46951744D01*
X34181224Y-46963836D01*
X34297426Y-46997597D01*
X34297429Y-46997597D01*
X34297431Y-46997598D01*
X34334306Y-47000500D01*
X34334314Y-47000500D01*
X35115686Y-47000500D01*
X35115694Y-47000500D01*
X35152569Y-46997598D01*
X35152571Y-46997597D01*
X35152573Y-46997597D01*
X35245344Y-46970644D01*
X35310398Y-46951744D01*
X35451865Y-46868081D01*
X35568081Y-46751865D01*
X35651744Y-46610398D01*
X35697598Y-46452569D01*
X35700500Y-46415694D01*
X35700500Y-44084306D01*
X35697598Y-44047431D01*
X35683359Y-43998422D01*
X35651745Y-43889606D01*
X35651744Y-43889603D01*
X35651744Y-43889602D01*
X35568081Y-43748135D01*
X35568079Y-43748133D01*
X35568076Y-43748129D01*
X35561819Y-43741872D01*
X35528334Y-43680549D01*
X35525500Y-43654191D01*
X35525500Y-43290515D01*
X35542768Y-43227394D01*
X35543081Y-43226865D01*
X35626744Y-43085398D01*
X35672598Y-42927569D01*
X35675500Y-42890694D01*
X35675500Y-40609306D01*
X35672598Y-40572431D01*
X35664731Y-40545354D01*
X35626745Y-40414606D01*
X35626744Y-40414603D01*
X35626744Y-40414602D01*
X35543081Y-40273135D01*
X35543079Y-40273133D01*
X35543076Y-40273129D01*
X35426870Y-40156923D01*
X35426862Y-40156917D01*
X35285396Y-40073255D01*
X35285393Y-40073254D01*
X35127573Y-40027402D01*
X35127567Y-40027401D01*
X35090701Y-40024500D01*
X35090694Y-40024500D01*
X34334306Y-40024500D01*
X34334298Y-40024500D01*
X34297432Y-40027401D01*
X34297426Y-40027402D01*
X34139606Y-40073254D01*
X34139603Y-40073255D01*
X33998137Y-40156917D01*
X33998129Y-40156923D01*
X33881923Y-40273129D01*
X33881917Y-40273137D01*
X33798255Y-40414603D01*
X33798254Y-40414606D01*
X33752402Y-40572426D01*
X33752401Y-40572432D01*
X33749500Y-40609298D01*
X28521820Y-40609298D01*
X28521820Y-36381902D01*
X29999500Y-36381902D01*
X29999500Y-36618097D01*
X30036446Y-36851368D01*
X30109433Y-37075996D01*
X30208269Y-37269970D01*
X30216657Y-37286433D01*
X30355483Y-37477510D01*
X30522490Y-37644517D01*
X30713567Y-37783343D01*
X30812991Y-37834002D01*
X30924003Y-37890566D01*
X30924005Y-37890566D01*
X30924008Y-37890568D01*
X31044412Y-37929689D01*
X31148631Y-37963553D01*
X31381903Y-38000500D01*
X31381908Y-38000500D01*
X31618097Y-38000500D01*
X31851368Y-37963553D01*
X32075992Y-37890568D01*
X32286433Y-37783343D01*
X32477510Y-37644517D01*
X32644517Y-37477510D01*
X32783343Y-37286433D01*
X32890568Y-37075992D01*
X32963553Y-36851368D01*
X32972295Y-36796172D01*
X33000500Y-36618097D01*
X33000500Y-36381902D01*
X32963553Y-36148631D01*
X32890566Y-35924003D01*
X32790452Y-35727520D01*
X32783343Y-35713567D01*
X32644517Y-35522490D01*
X32477510Y-35355483D01*
X32286433Y-35216657D01*
X32286434Y-35216657D01*
X32286432Y-35216656D01*
X32080204Y-35111577D01*
X35249500Y-35111577D01*
X35249500Y-35308422D01*
X35280290Y-35502826D01*
X35341117Y-35690029D01*
X35422296Y-35849351D01*
X35430476Y-35865405D01*
X35546172Y-36024646D01*
X35685354Y-36163828D01*
X35838621Y-36275184D01*
X35881285Y-36330512D01*
X35887264Y-36400125D01*
X35854658Y-36461920D01*
X35793819Y-36496278D01*
X35765735Y-36499500D01*
X35618482Y-36499500D01*
X35537519Y-36512323D01*
X35524696Y-36514354D01*
X35411658Y-36571950D01*
X35411657Y-36571951D01*
X35411652Y-36571954D01*
X35321954Y-36661652D01*
X35321951Y-36661657D01*
X35264352Y-36774698D01*
X35249500Y-36868475D01*
X35249500Y-38631517D01*
X35260292Y-38699657D01*
X35264354Y-38725304D01*
X35321950Y-38838342D01*
X35321952Y-38838344D01*
X35321954Y-38838347D01*
X35411652Y-38928045D01*
X35411654Y-38928046D01*
X35411658Y-38928050D01*
X35524694Y-38985645D01*
X35524698Y-38985647D01*
X35618475Y-39000499D01*
X35618481Y-39000500D01*
X37381518Y-39000499D01*
X37475304Y-38985646D01*
X37588342Y-38928050D01*
X37678050Y-38838342D01*
X37735646Y-38725304D01*
X37735646Y-38725302D01*
X37735647Y-38725301D01*
X37750499Y-38631524D01*
X37750500Y-38631519D01*
X37750499Y-38484263D01*
X37770183Y-38417227D01*
X37822987Y-38371472D01*
X37892145Y-38361528D01*
X37955701Y-38390553D01*
X37974817Y-38411380D01*
X38086172Y-38564646D01*
X38225354Y-38703828D01*
X38384595Y-38819524D01*
X38467455Y-38861743D01*
X38559970Y-38908882D01*
X38559972Y-38908882D01*
X38559975Y-38908884D01*
X38618962Y-38928050D01*
X38747173Y-38969709D01*
X38941578Y-39000500D01*
X38941583Y-39000500D01*
X39138422Y-39000500D01*
X39332826Y-38969709D01*
X39520025Y-38908884D01*
X39695405Y-38819524D01*
X39854646Y-38703828D01*
X39993828Y-38564646D01*
X40109524Y-38405405D01*
X40198884Y-38230025D01*
X40199515Y-38228787D01*
X40247489Y-38177990D01*
X40315310Y-38161195D01*
X40381445Y-38183732D01*
X40420485Y-38228787D01*
X40510474Y-38405403D01*
X40514817Y-38411380D01*
X40626172Y-38564646D01*
X40765354Y-38703828D01*
X40924595Y-38819524D01*
X41007455Y-38861743D01*
X41099970Y-38908882D01*
X41099972Y-38908882D01*
X41099975Y-38908884D01*
X41158962Y-38928050D01*
X41287173Y-38969709D01*
X41481578Y-39000500D01*
X41481583Y-39000500D01*
X41678422Y-39000500D01*
X41872826Y-38969709D01*
X42060025Y-38908884D01*
X42235405Y-38819524D01*
X42394646Y-38703828D01*
X42533828Y-38564646D01*
X42649524Y-38405405D01*
X42738884Y-38230025D01*
X42739515Y-38228787D01*
X42787489Y-38177990D01*
X42855310Y-38161195D01*
X42921445Y-38183732D01*
X42960485Y-38228787D01*
X43050474Y-38405403D01*
X43054817Y-38411380D01*
X43166172Y-38564646D01*
X43305354Y-38703828D01*
X43464595Y-38819524D01*
X43547455Y-38861743D01*
X43639970Y-38908882D01*
X43639972Y-38908882D01*
X43639975Y-38908884D01*
X43698962Y-38928050D01*
X43827173Y-38969709D01*
X44021578Y-39000500D01*
X44021583Y-39000500D01*
X44218422Y-39000500D01*
X44412826Y-38969709D01*
X44600025Y-38908884D01*
X44775405Y-38819524D01*
X44934646Y-38703828D01*
X45073828Y-38564646D01*
X45189524Y-38405405D01*
X45278884Y-38230025D01*
X45339709Y-38042826D01*
X45346413Y-38000500D01*
X45370500Y-37848422D01*
X45370500Y-37651577D01*
X45339709Y-37457173D01*
X45293925Y-37316267D01*
X45278884Y-37269975D01*
X45278882Y-37269972D01*
X45278882Y-37269970D01*
X45189523Y-37094594D01*
X45176008Y-37075992D01*
X45073828Y-36935354D01*
X44934646Y-36796172D01*
X44855025Y-36738324D01*
X44775403Y-36680474D01*
X44598787Y-36590485D01*
X44547990Y-36542511D01*
X44531195Y-36474690D01*
X44553732Y-36408555D01*
X44598787Y-36369515D01*
X44775403Y-36279525D01*
X44775402Y-36279525D01*
X44775405Y-36279524D01*
X44934646Y-36163828D01*
X45073828Y-36024646D01*
X45189524Y-35865405D01*
X45259777Y-35727525D01*
X45279515Y-35688787D01*
X45327489Y-35637990D01*
X45395310Y-35621195D01*
X45461445Y-35643732D01*
X45500485Y-35688787D01*
X45590474Y-35865403D01*
X45625234Y-35913246D01*
X45706172Y-36024646D01*
X45845354Y-36163828D01*
X46004595Y-36279524D01*
X46033589Y-36294297D01*
X46179970Y-36368882D01*
X46179972Y-36368882D01*
X46179975Y-36368884D01*
X46220059Y-36381908D01*
X46367173Y-36429709D01*
X46561578Y-36460500D01*
X46561583Y-36460500D01*
X46758422Y-36460500D01*
X46952826Y-36429709D01*
X47140025Y-36368884D01*
X47315405Y-36279524D01*
X47474646Y-36163828D01*
X47613828Y-36024646D01*
X47729524Y-35865405D01*
X47799777Y-35727525D01*
X47819515Y-35688787D01*
X47867489Y-35637990D01*
X47935310Y-35621195D01*
X48001445Y-35643732D01*
X48040485Y-35688787D01*
X48130474Y-35865403D01*
X48165234Y-35913246D01*
X48246172Y-36024646D01*
X48385354Y-36163828D01*
X48544595Y-36279524D01*
X48644665Y-36330512D01*
X48721213Y-36369515D01*
X48772009Y-36417489D01*
X48788804Y-36485310D01*
X48766267Y-36551445D01*
X48721213Y-36590485D01*
X48544594Y-36680476D01*
X48453741Y-36746485D01*
X48385354Y-36796172D01*
X48385352Y-36796174D01*
X48385351Y-36796174D01*
X48246174Y-36935351D01*
X48246174Y-36935352D01*
X48246172Y-36935354D01*
X48196485Y-37003741D01*
X48130476Y-37094594D01*
X48041117Y-37269970D01*
X47980290Y-37457173D01*
X47949500Y-37651577D01*
X47949500Y-37848422D01*
X47980290Y-38042826D01*
X48041117Y-38230029D01*
X48130475Y-38405403D01*
X48130476Y-38405405D01*
X48246172Y-38564646D01*
X48385354Y-38703828D01*
X48544595Y-38819524D01*
X48627455Y-38861743D01*
X48719970Y-38908882D01*
X48719972Y-38908882D01*
X48719975Y-38908884D01*
X48778962Y-38928050D01*
X48907173Y-38969709D01*
X49101578Y-39000500D01*
X49101583Y-39000500D01*
X49298422Y-39000500D01*
X49492826Y-38969709D01*
X49680025Y-38908884D01*
X49855405Y-38819524D01*
X50014646Y-38703828D01*
X50153828Y-38564646D01*
X50269524Y-38405405D01*
X50358884Y-38230025D01*
X50359515Y-38228787D01*
X50407489Y-38177990D01*
X50475310Y-38161195D01*
X50541445Y-38183732D01*
X50580485Y-38228787D01*
X50670474Y-38405403D01*
X50674817Y-38411380D01*
X50786172Y-38564646D01*
X50925354Y-38703828D01*
X51084595Y-38819524D01*
X51167455Y-38861743D01*
X51259970Y-38908882D01*
X51259972Y-38908882D01*
X51259975Y-38908884D01*
X51318962Y-38928050D01*
X51447173Y-38969709D01*
X51641578Y-39000500D01*
X51641583Y-39000500D01*
X51838422Y-39000500D01*
X52032826Y-38969709D01*
X52220025Y-38908884D01*
X52395405Y-38819524D01*
X52554646Y-38703828D01*
X52693828Y-38564646D01*
X52809524Y-38405405D01*
X52898884Y-38230025D01*
X52899515Y-38228787D01*
X52947489Y-38177990D01*
X53015310Y-38161195D01*
X53081445Y-38183732D01*
X53120485Y-38228787D01*
X53210474Y-38405403D01*
X53214817Y-38411380D01*
X53326172Y-38564646D01*
X53465354Y-38703828D01*
X53624595Y-38819524D01*
X53707455Y-38861743D01*
X53799970Y-38908882D01*
X53799972Y-38908882D01*
X53799975Y-38908884D01*
X53858962Y-38928050D01*
X53987173Y-38969709D01*
X54181578Y-39000500D01*
X54181583Y-39000500D01*
X54378422Y-39000500D01*
X54572826Y-38969709D01*
X54760025Y-38908884D01*
X54935405Y-38819524D01*
X55094646Y-38703828D01*
X55233828Y-38564646D01*
X55349524Y-38405405D01*
X55438884Y-38230025D01*
X55439515Y-38228787D01*
X55487489Y-38177990D01*
X55555310Y-38161195D01*
X55621445Y-38183732D01*
X55660485Y-38228787D01*
X55750474Y-38405403D01*
X55754817Y-38411380D01*
X55866172Y-38564646D01*
X56005354Y-38703828D01*
X56164595Y-38819524D01*
X56247455Y-38861743D01*
X56339970Y-38908882D01*
X56339972Y-38908882D01*
X56339975Y-38908884D01*
X56398962Y-38928050D01*
X56527173Y-38969709D01*
X56721578Y-39000500D01*
X56721583Y-39000500D01*
X56918422Y-39000500D01*
X57112826Y-38969709D01*
X57300025Y-38908884D01*
X57475405Y-38819524D01*
X57634646Y-38703828D01*
X57773828Y-38564646D01*
X57889524Y-38405405D01*
X57978884Y-38230025D01*
X57979515Y-38228787D01*
X58027489Y-38177990D01*
X58095310Y-38161195D01*
X58161445Y-38183732D01*
X58200485Y-38228787D01*
X58290474Y-38405403D01*
X58294817Y-38411380D01*
X58406172Y-38564646D01*
X58545354Y-38703828D01*
X58704595Y-38819524D01*
X58787455Y-38861743D01*
X58879970Y-38908882D01*
X58879972Y-38908882D01*
X58879975Y-38908884D01*
X58938962Y-38928050D01*
X59067173Y-38969709D01*
X59261578Y-39000500D01*
X59261583Y-39000500D01*
X59458422Y-39000500D01*
X59652826Y-38969709D01*
X59840025Y-38908884D01*
X60015405Y-38819524D01*
X60174646Y-38703828D01*
X60313828Y-38564646D01*
X60429524Y-38405405D01*
X60518884Y-38230025D01*
X60519515Y-38228787D01*
X60567489Y-38177990D01*
X60635310Y-38161195D01*
X60701445Y-38183732D01*
X60740485Y-38228787D01*
X60830474Y-38405403D01*
X60834817Y-38411380D01*
X60946172Y-38564646D01*
X61085354Y-38703828D01*
X61244595Y-38819524D01*
X61327455Y-38861743D01*
X61419970Y-38908882D01*
X61419972Y-38908882D01*
X61419975Y-38908884D01*
X61478962Y-38928050D01*
X61607173Y-38969709D01*
X61801578Y-39000500D01*
X61801583Y-39000500D01*
X61998422Y-39000500D01*
X62192826Y-38969709D01*
X62380025Y-38908884D01*
X62555405Y-38819524D01*
X62714646Y-38703828D01*
X62853828Y-38564646D01*
X62969524Y-38405405D01*
X63058884Y-38230025D01*
X63059515Y-38228787D01*
X63107489Y-38177990D01*
X63175310Y-38161195D01*
X63241445Y-38183732D01*
X63280485Y-38228787D01*
X63370474Y-38405403D01*
X63374817Y-38411380D01*
X63486172Y-38564646D01*
X63625354Y-38703828D01*
X63784595Y-38819524D01*
X63867455Y-38861743D01*
X63959970Y-38908882D01*
X63959972Y-38908882D01*
X63959975Y-38908884D01*
X64018962Y-38928050D01*
X64147173Y-38969709D01*
X64341578Y-39000500D01*
X64341583Y-39000500D01*
X64538422Y-39000500D01*
X64732826Y-38969709D01*
X64920025Y-38908884D01*
X65095405Y-38819524D01*
X65254646Y-38703828D01*
X65393828Y-38564646D01*
X65509524Y-38405405D01*
X65598884Y-38230025D01*
X65659709Y-38042826D01*
X65666413Y-38000500D01*
X65690500Y-37848422D01*
X65690500Y-37651577D01*
X65659709Y-37457173D01*
X65613925Y-37316267D01*
X65598884Y-37269975D01*
X65598882Y-37269972D01*
X65598882Y-37269970D01*
X65509523Y-37094594D01*
X65496008Y-37075992D01*
X65393828Y-36935354D01*
X65254646Y-36796172D01*
X65175025Y-36738324D01*
X65095403Y-36680474D01*
X64918787Y-36590485D01*
X64867990Y-36542511D01*
X64851195Y-36474690D01*
X64873732Y-36408555D01*
X64918787Y-36369515D01*
X65095403Y-36279525D01*
X65095402Y-36279525D01*
X65095405Y-36279524D01*
X65254646Y-36163828D01*
X65393828Y-36024646D01*
X65509524Y-35865405D01*
X65579777Y-35727525D01*
X65599515Y-35688787D01*
X65647489Y-35637990D01*
X65715310Y-35621195D01*
X65781445Y-35643732D01*
X65820485Y-35688787D01*
X65910474Y-35865403D01*
X65945234Y-35913246D01*
X66026172Y-36024646D01*
X66165354Y-36163828D01*
X66324595Y-36279524D01*
X66353589Y-36294297D01*
X66499970Y-36368882D01*
X66499972Y-36368882D01*
X66499975Y-36368884D01*
X66540059Y-36381908D01*
X66687173Y-36429709D01*
X66881578Y-36460500D01*
X66881583Y-36460500D01*
X67078422Y-36460500D01*
X67272826Y-36429709D01*
X67460025Y-36368884D01*
X67635405Y-36279524D01*
X67794646Y-36163828D01*
X67933828Y-36024646D01*
X68049524Y-35865405D01*
X68119777Y-35727525D01*
X68139515Y-35688787D01*
X68187489Y-35637990D01*
X68255310Y-35621195D01*
X68321445Y-35643732D01*
X68360485Y-35688787D01*
X68450474Y-35865403D01*
X68485234Y-35913246D01*
X68566172Y-36024646D01*
X68705354Y-36163828D01*
X68864595Y-36279524D01*
X68964665Y-36330512D01*
X69041213Y-36369515D01*
X69092009Y-36417489D01*
X69108804Y-36485310D01*
X69086267Y-36551445D01*
X69041213Y-36590485D01*
X68864594Y-36680476D01*
X68773741Y-36746485D01*
X68705354Y-36796172D01*
X68705352Y-36796174D01*
X68705351Y-36796174D01*
X68566174Y-36935351D01*
X68566174Y-36935352D01*
X68566172Y-36935354D01*
X68516485Y-37003741D01*
X68450476Y-37094594D01*
X68361117Y-37269970D01*
X68300290Y-37457173D01*
X68269500Y-37651577D01*
X68269500Y-37848422D01*
X68300290Y-38042826D01*
X68361117Y-38230029D01*
X68450475Y-38405403D01*
X68450476Y-38405405D01*
X68566172Y-38564646D01*
X68705354Y-38703828D01*
X68864595Y-38819524D01*
X68947455Y-38861743D01*
X69039970Y-38908882D01*
X69039972Y-38908882D01*
X69039975Y-38908884D01*
X69098962Y-38928050D01*
X69227173Y-38969709D01*
X69421578Y-39000500D01*
X69421583Y-39000500D01*
X69618422Y-39000500D01*
X69812826Y-38969709D01*
X70000025Y-38908884D01*
X70175405Y-38819524D01*
X70334646Y-38703828D01*
X70473828Y-38564646D01*
X70589524Y-38405405D01*
X70678884Y-38230025D01*
X70679515Y-38228787D01*
X70727489Y-38177990D01*
X70795310Y-38161195D01*
X70861445Y-38183732D01*
X70900485Y-38228787D01*
X70990474Y-38405403D01*
X70994817Y-38411380D01*
X71106172Y-38564646D01*
X71245354Y-38703828D01*
X71404595Y-38819524D01*
X71487455Y-38861743D01*
X71579970Y-38908882D01*
X71579972Y-38908882D01*
X71579975Y-38908884D01*
X71638962Y-38928050D01*
X71767173Y-38969709D01*
X71961578Y-39000500D01*
X71961583Y-39000500D01*
X72158422Y-39000500D01*
X72352826Y-38969709D01*
X72540025Y-38908884D01*
X72715405Y-38819524D01*
X72874646Y-38703828D01*
X73013828Y-38564646D01*
X73129524Y-38405405D01*
X73218884Y-38230025D01*
X73219515Y-38228787D01*
X73267489Y-38177990D01*
X73335310Y-38161195D01*
X73401445Y-38183732D01*
X73440485Y-38228787D01*
X73530474Y-38405403D01*
X73534817Y-38411380D01*
X73646172Y-38564646D01*
X73785354Y-38703828D01*
X73944595Y-38819524D01*
X74027455Y-38861743D01*
X74119970Y-38908882D01*
X74119972Y-38908882D01*
X74119975Y-38908884D01*
X74178962Y-38928050D01*
X74307173Y-38969709D01*
X74501578Y-39000500D01*
X74501583Y-39000500D01*
X74698422Y-39000500D01*
X74892826Y-38969709D01*
X75080025Y-38908884D01*
X75255405Y-38819524D01*
X75414646Y-38703828D01*
X75553828Y-38564646D01*
X75669524Y-38405405D01*
X75758884Y-38230025D01*
X75759515Y-38228787D01*
X75807489Y-38177990D01*
X75875310Y-38161195D01*
X75941445Y-38183732D01*
X75980485Y-38228787D01*
X76070474Y-38405403D01*
X76074817Y-38411380D01*
X76186172Y-38564646D01*
X76325354Y-38703828D01*
X76484595Y-38819524D01*
X76567455Y-38861743D01*
X76659970Y-38908882D01*
X76659972Y-38908882D01*
X76659975Y-38908884D01*
X76718962Y-38928050D01*
X76847173Y-38969709D01*
X77041578Y-39000500D01*
X77041583Y-39000500D01*
X77238422Y-39000500D01*
X77432826Y-38969709D01*
X77620025Y-38908884D01*
X77795405Y-38819524D01*
X77954646Y-38703828D01*
X78093828Y-38564646D01*
X78209524Y-38405405D01*
X78298884Y-38230025D01*
X78299515Y-38228787D01*
X78347489Y-38177990D01*
X78415310Y-38161195D01*
X78481445Y-38183732D01*
X78520485Y-38228787D01*
X78610474Y-38405403D01*
X78614817Y-38411380D01*
X78726172Y-38564646D01*
X78865354Y-38703828D01*
X79024595Y-38819524D01*
X79107455Y-38861743D01*
X79199970Y-38908882D01*
X79199972Y-38908882D01*
X79199975Y-38908884D01*
X79258962Y-38928050D01*
X79387173Y-38969709D01*
X79581578Y-39000500D01*
X79581583Y-39000500D01*
X79778422Y-39000500D01*
X79972826Y-38969709D01*
X80160025Y-38908884D01*
X80335405Y-38819524D01*
X80494646Y-38703828D01*
X80633828Y-38564646D01*
X80749524Y-38405405D01*
X80838884Y-38230025D01*
X80839515Y-38228787D01*
X80887489Y-38177990D01*
X80955310Y-38161195D01*
X81021445Y-38183732D01*
X81060485Y-38228787D01*
X81150474Y-38405403D01*
X81154817Y-38411380D01*
X81266172Y-38564646D01*
X81405354Y-38703828D01*
X81564595Y-38819524D01*
X81647455Y-38861743D01*
X81739970Y-38908882D01*
X81739972Y-38908882D01*
X81739975Y-38908884D01*
X81798962Y-38928050D01*
X81927173Y-38969709D01*
X82121578Y-39000500D01*
X82121583Y-39000500D01*
X82318422Y-39000500D01*
X82512826Y-38969709D01*
X82700025Y-38908884D01*
X82875405Y-38819524D01*
X83034646Y-38703828D01*
X83173828Y-38564646D01*
X83289524Y-38405405D01*
X83378884Y-38230025D01*
X83439709Y-38042826D01*
X83446413Y-38000500D01*
X83470500Y-37848422D01*
X83470500Y-37651577D01*
X83439709Y-37457173D01*
X83393925Y-37316267D01*
X83378884Y-37269975D01*
X83378882Y-37269972D01*
X83378882Y-37269970D01*
X83289523Y-37094594D01*
X83276008Y-37075992D01*
X83173828Y-36935354D01*
X83034646Y-36796172D01*
X82955025Y-36738324D01*
X82875403Y-36680474D01*
X82698787Y-36590485D01*
X82647990Y-36542511D01*
X82631195Y-36474690D01*
X82653732Y-36408555D01*
X82698787Y-36369515D01*
X82875403Y-36279525D01*
X82875402Y-36279525D01*
X82875405Y-36279524D01*
X83034646Y-36163828D01*
X83173828Y-36024646D01*
X83289524Y-35865405D01*
X83359777Y-35727525D01*
X83379515Y-35688787D01*
X83427489Y-35637990D01*
X83495310Y-35621195D01*
X83561445Y-35643732D01*
X83600485Y-35688787D01*
X83690474Y-35865403D01*
X83725234Y-35913246D01*
X83806172Y-36024646D01*
X83945354Y-36163828D01*
X84104595Y-36279524D01*
X84133589Y-36294297D01*
X84279970Y-36368882D01*
X84279972Y-36368882D01*
X84279975Y-36368884D01*
X84320059Y-36381908D01*
X84467173Y-36429709D01*
X84661578Y-36460500D01*
X84661583Y-36460500D01*
X84858422Y-36460500D01*
X85052826Y-36429709D01*
X85199960Y-36381902D01*
X87999500Y-36381902D01*
X87999500Y-36618097D01*
X88036446Y-36851368D01*
X88109433Y-37075996D01*
X88208269Y-37269970D01*
X88216657Y-37286433D01*
X88355483Y-37477510D01*
X88522490Y-37644517D01*
X88713567Y-37783343D01*
X88812991Y-37834002D01*
X88924003Y-37890566D01*
X88924005Y-37890566D01*
X88924008Y-37890568D01*
X89044412Y-37929689D01*
X89148631Y-37963553D01*
X89381903Y-38000500D01*
X89381908Y-38000500D01*
X89618097Y-38000500D01*
X89851368Y-37963553D01*
X90075992Y-37890568D01*
X90286433Y-37783343D01*
X90477510Y-37644517D01*
X90644517Y-37477510D01*
X90783343Y-37286433D01*
X90890568Y-37075992D01*
X90963553Y-36851368D01*
X90972295Y-36796172D01*
X91000500Y-36618097D01*
X91000500Y-36381902D01*
X90963553Y-36148631D01*
X90890566Y-35924003D01*
X90790452Y-35727520D01*
X90783343Y-35713567D01*
X90644517Y-35522490D01*
X90477510Y-35355483D01*
X90286433Y-35216657D01*
X90286431Y-35216656D01*
X90075996Y-35109433D01*
X89851368Y-35036446D01*
X89618097Y-34999500D01*
X89618092Y-34999500D01*
X89381908Y-34999500D01*
X89381903Y-34999500D01*
X89148631Y-35036446D01*
X88924003Y-35109433D01*
X88713566Y-35216657D01*
X88604550Y-35295862D01*
X88522490Y-35355483D01*
X88522488Y-35355485D01*
X88522487Y-35355485D01*
X88355485Y-35522487D01*
X88355485Y-35522488D01*
X88355483Y-35522490D01*
X88295862Y-35604550D01*
X88216657Y-35713566D01*
X88109433Y-35924003D01*
X88036446Y-36148631D01*
X87999500Y-36381902D01*
X85199960Y-36381902D01*
X85240025Y-36368884D01*
X85415405Y-36279524D01*
X85574646Y-36163828D01*
X85713828Y-36024646D01*
X85829524Y-35865405D01*
X85918884Y-35690025D01*
X85979709Y-35502826D01*
X85991161Y-35430521D01*
X86010500Y-35308422D01*
X86010500Y-35111577D01*
X85979709Y-34917173D01*
X85918882Y-34729970D01*
X85856661Y-34607855D01*
X85829524Y-34554595D01*
X85713828Y-34395354D01*
X85574646Y-34256172D01*
X85415405Y-34140476D01*
X85240029Y-34051117D01*
X85052826Y-33990290D01*
X84858422Y-33959500D01*
X84858417Y-33959500D01*
X84661583Y-33959500D01*
X84661578Y-33959500D01*
X84467173Y-33990290D01*
X84279970Y-34051117D01*
X84104594Y-34140476D01*
X84090912Y-34150417D01*
X83945354Y-34256172D01*
X83945352Y-34256174D01*
X83945351Y-34256174D01*
X83806174Y-34395351D01*
X83806174Y-34395352D01*
X83806172Y-34395354D01*
X83756485Y-34463741D01*
X83690476Y-34554594D01*
X83600485Y-34731213D01*
X83552511Y-34782009D01*
X83484690Y-34798804D01*
X83418555Y-34776267D01*
X83379515Y-34731213D01*
X83352397Y-34677992D01*
X83289524Y-34554595D01*
X83173828Y-34395354D01*
X83034646Y-34256172D01*
X82875405Y-34140476D01*
X82700029Y-34051117D01*
X82512826Y-33990290D01*
X82318422Y-33959500D01*
X82318417Y-33959500D01*
X82121583Y-33959500D01*
X82121578Y-33959500D01*
X81927173Y-33990290D01*
X81739970Y-34051117D01*
X81564594Y-34140476D01*
X81550912Y-34150417D01*
X81405354Y-34256172D01*
X81405352Y-34256174D01*
X81405351Y-34256174D01*
X81266174Y-34395351D01*
X81266174Y-34395352D01*
X81266172Y-34395354D01*
X81216485Y-34463741D01*
X81150476Y-34554594D01*
X81060485Y-34731213D01*
X81012511Y-34782009D01*
X80944690Y-34798804D01*
X80878555Y-34776267D01*
X80839515Y-34731213D01*
X80812397Y-34677992D01*
X80749524Y-34554595D01*
X80633828Y-34395354D01*
X80494646Y-34256172D01*
X80335405Y-34140476D01*
X80160029Y-34051117D01*
X79972826Y-33990290D01*
X79778422Y-33959500D01*
X79778417Y-33959500D01*
X79581583Y-33959500D01*
X79581578Y-33959500D01*
X79387173Y-33990290D01*
X79199970Y-34051117D01*
X79024594Y-34140476D01*
X79010912Y-34150417D01*
X78865354Y-34256172D01*
X78865352Y-34256174D01*
X78865351Y-34256174D01*
X78726174Y-34395351D01*
X78726174Y-34395352D01*
X78726172Y-34395354D01*
X78676485Y-34463741D01*
X78610476Y-34554594D01*
X78521117Y-34729970D01*
X78460290Y-34917173D01*
X78429500Y-35111577D01*
X78429500Y-35308422D01*
X78460290Y-35502826D01*
X78521117Y-35690029D01*
X78602296Y-35849351D01*
X78610476Y-35865405D01*
X78726172Y-36024646D01*
X78865354Y-36163828D01*
X79024595Y-36279524D01*
X79124665Y-36330512D01*
X79201213Y-36369515D01*
X79252009Y-36417489D01*
X79268804Y-36485310D01*
X79246267Y-36551445D01*
X79201213Y-36590485D01*
X79024594Y-36680476D01*
X78933741Y-36746485D01*
X78865354Y-36796172D01*
X78865352Y-36796174D01*
X78865351Y-36796174D01*
X78726174Y-36935351D01*
X78726174Y-36935352D01*
X78726172Y-36935354D01*
X78676485Y-37003741D01*
X78610476Y-37094594D01*
X78520485Y-37271213D01*
X78472511Y-37322009D01*
X78404690Y-37338804D01*
X78338555Y-37316267D01*
X78299515Y-37271213D01*
X78272397Y-37217992D01*
X78209524Y-37094595D01*
X78093828Y-36935354D01*
X77954646Y-36796172D01*
X77795405Y-36680476D01*
X77795401Y-36680474D01*
X77620029Y-36591117D01*
X77432826Y-36530290D01*
X77238422Y-36499500D01*
X77238417Y-36499500D01*
X77041583Y-36499500D01*
X77041578Y-36499500D01*
X76847173Y-36530290D01*
X76659970Y-36591117D01*
X76484594Y-36680476D01*
X76393741Y-36746485D01*
X76325354Y-36796172D01*
X76325352Y-36796174D01*
X76325351Y-36796174D01*
X76186174Y-36935351D01*
X76186174Y-36935352D01*
X76186172Y-36935354D01*
X76136485Y-37003741D01*
X76070476Y-37094594D01*
X75980485Y-37271213D01*
X75932511Y-37322009D01*
X75864690Y-37338804D01*
X75798555Y-37316267D01*
X75759515Y-37271213D01*
X75732397Y-37217992D01*
X75669524Y-37094595D01*
X75553828Y-36935354D01*
X75414646Y-36796172D01*
X75335025Y-36738324D01*
X75255403Y-36680474D01*
X75078787Y-36590485D01*
X75027990Y-36542511D01*
X75011195Y-36474690D01*
X75033732Y-36408555D01*
X75078787Y-36369515D01*
X75255403Y-36279525D01*
X75255402Y-36279525D01*
X75255405Y-36279524D01*
X75414646Y-36163828D01*
X75553828Y-36024646D01*
X75669524Y-35865405D01*
X75758884Y-35690025D01*
X75819709Y-35502826D01*
X75831161Y-35430521D01*
X75850500Y-35308422D01*
X75850500Y-35111577D01*
X75819709Y-34917173D01*
X75758882Y-34729970D01*
X75696661Y-34607855D01*
X75669524Y-34554595D01*
X75553828Y-34395354D01*
X75414646Y-34256172D01*
X75255405Y-34140476D01*
X75080029Y-34051117D01*
X74892826Y-33990290D01*
X74698422Y-33959500D01*
X74698417Y-33959500D01*
X74501583Y-33959500D01*
X74501578Y-33959500D01*
X74307173Y-33990290D01*
X74119970Y-34051117D01*
X73944594Y-34140476D01*
X73930912Y-34150417D01*
X73785354Y-34256172D01*
X73785352Y-34256174D01*
X73785351Y-34256174D01*
X73646174Y-34395351D01*
X73646174Y-34395352D01*
X73646172Y-34395354D01*
X73596485Y-34463741D01*
X73530476Y-34554594D01*
X73441117Y-34729970D01*
X73380290Y-34917173D01*
X73349500Y-35111577D01*
X73349500Y-35308422D01*
X73380290Y-35502826D01*
X73441117Y-35690029D01*
X73522296Y-35849351D01*
X73530476Y-35865405D01*
X73646172Y-36024646D01*
X73785354Y-36163828D01*
X73944595Y-36279524D01*
X74044665Y-36330512D01*
X74121213Y-36369515D01*
X74172009Y-36417489D01*
X74188804Y-36485310D01*
X74166267Y-36551445D01*
X74121213Y-36590485D01*
X73944594Y-36680476D01*
X73853741Y-36746485D01*
X73785354Y-36796172D01*
X73785352Y-36796174D01*
X73785351Y-36796174D01*
X73646174Y-36935351D01*
X73646174Y-36935352D01*
X73646172Y-36935354D01*
X73596485Y-37003741D01*
X73530476Y-37094594D01*
X73440485Y-37271213D01*
X73392511Y-37322009D01*
X73324690Y-37338804D01*
X73258555Y-37316267D01*
X73219515Y-37271213D01*
X73192397Y-37217992D01*
X73129524Y-37094595D01*
X73013828Y-36935354D01*
X72874646Y-36796172D01*
X72715405Y-36680476D01*
X72715401Y-36680474D01*
X72540029Y-36591117D01*
X72352826Y-36530290D01*
X72158422Y-36499500D01*
X72158417Y-36499500D01*
X71961583Y-36499500D01*
X71961578Y-36499500D01*
X71767173Y-36530290D01*
X71579970Y-36591117D01*
X71404594Y-36680476D01*
X71313741Y-36746485D01*
X71245354Y-36796172D01*
X71245352Y-36796174D01*
X71245351Y-36796174D01*
X71106174Y-36935351D01*
X71106174Y-36935352D01*
X71106172Y-36935354D01*
X71056485Y-37003741D01*
X70990476Y-37094594D01*
X70900485Y-37271213D01*
X70852511Y-37322009D01*
X70784690Y-37338804D01*
X70718555Y-37316267D01*
X70679515Y-37271213D01*
X70652397Y-37217992D01*
X70589524Y-37094595D01*
X70473828Y-36935354D01*
X70334646Y-36796172D01*
X70255025Y-36738324D01*
X70175403Y-36680474D01*
X69998787Y-36590485D01*
X69947990Y-36542511D01*
X69931195Y-36474690D01*
X69953732Y-36408555D01*
X69998787Y-36369515D01*
X70175403Y-36279525D01*
X70175402Y-36279525D01*
X70175405Y-36279524D01*
X70334646Y-36163828D01*
X70473828Y-36024646D01*
X70589524Y-35865405D01*
X70678884Y-35690025D01*
X70739709Y-35502826D01*
X70751161Y-35430521D01*
X70770500Y-35308422D01*
X70770500Y-35111577D01*
X70739709Y-34917173D01*
X70678882Y-34729970D01*
X70616661Y-34607855D01*
X70589524Y-34554595D01*
X70473828Y-34395354D01*
X70334646Y-34256172D01*
X70175405Y-34140476D01*
X70000029Y-34051117D01*
X69812826Y-33990290D01*
X69618422Y-33959500D01*
X69618417Y-33959500D01*
X69421583Y-33959500D01*
X69421578Y-33959500D01*
X69227173Y-33990290D01*
X69039970Y-34051117D01*
X68864594Y-34140476D01*
X68850912Y-34150417D01*
X68705354Y-34256172D01*
X68705352Y-34256174D01*
X68705351Y-34256174D01*
X68566174Y-34395351D01*
X68566174Y-34395352D01*
X68566172Y-34395354D01*
X68516485Y-34463741D01*
X68450476Y-34554594D01*
X68360485Y-34731213D01*
X68312511Y-34782009D01*
X68244690Y-34798804D01*
X68178555Y-34776267D01*
X68139515Y-34731213D01*
X68112397Y-34677992D01*
X68049524Y-34554595D01*
X67933828Y-34395354D01*
X67794646Y-34256172D01*
X67635405Y-34140476D01*
X67460029Y-34051117D01*
X67272826Y-33990290D01*
X67078422Y-33959500D01*
X67078417Y-33959500D01*
X66881583Y-33959500D01*
X66881578Y-33959500D01*
X66687173Y-33990290D01*
X66499970Y-34051117D01*
X66324594Y-34140476D01*
X66310912Y-34150417D01*
X66165354Y-34256172D01*
X66165352Y-34256174D01*
X66165351Y-34256174D01*
X66026174Y-34395351D01*
X66026174Y-34395352D01*
X66026172Y-34395354D01*
X65976485Y-34463741D01*
X65910476Y-34554594D01*
X65820485Y-34731213D01*
X65772511Y-34782009D01*
X65704690Y-34798804D01*
X65638555Y-34776267D01*
X65599515Y-34731213D01*
X65572397Y-34677992D01*
X65509524Y-34554595D01*
X65393828Y-34395354D01*
X65254646Y-34256172D01*
X65095405Y-34140476D01*
X64920029Y-34051117D01*
X64732826Y-33990290D01*
X64538422Y-33959500D01*
X64538417Y-33959500D01*
X64341583Y-33959500D01*
X64341578Y-33959500D01*
X64147173Y-33990290D01*
X63959970Y-34051117D01*
X63784594Y-34140476D01*
X63770912Y-34150417D01*
X63625354Y-34256172D01*
X63625352Y-34256174D01*
X63625351Y-34256174D01*
X63486174Y-34395351D01*
X63486174Y-34395352D01*
X63486172Y-34395354D01*
X63436485Y-34463741D01*
X63370476Y-34554594D01*
X63280485Y-34731213D01*
X63232511Y-34782009D01*
X63164690Y-34798804D01*
X63098555Y-34776267D01*
X63059515Y-34731213D01*
X63032397Y-34677992D01*
X62969524Y-34554595D01*
X62853828Y-34395354D01*
X62714646Y-34256172D01*
X62555405Y-34140476D01*
X62380029Y-34051117D01*
X62192826Y-33990290D01*
X61998422Y-33959500D01*
X61998417Y-33959500D01*
X61801583Y-33959500D01*
X61801578Y-33959500D01*
X61607173Y-33990290D01*
X61419970Y-34051117D01*
X61244594Y-34140476D01*
X61230912Y-34150417D01*
X61085354Y-34256172D01*
X61085352Y-34256174D01*
X61085351Y-34256174D01*
X60946174Y-34395351D01*
X60946174Y-34395352D01*
X60946172Y-34395354D01*
X60896485Y-34463741D01*
X60830476Y-34554594D01*
X60741117Y-34729970D01*
X60680290Y-34917173D01*
X60649500Y-35111577D01*
X60649500Y-35308422D01*
X60680290Y-35502826D01*
X60741117Y-35690029D01*
X60822296Y-35849351D01*
X60830476Y-35865405D01*
X60946172Y-36024646D01*
X61085354Y-36163828D01*
X61244595Y-36279524D01*
X61344665Y-36330512D01*
X61421213Y-36369515D01*
X61472009Y-36417489D01*
X61488804Y-36485310D01*
X61466267Y-36551445D01*
X61421213Y-36590485D01*
X61244594Y-36680476D01*
X61153741Y-36746485D01*
X61085354Y-36796172D01*
X61085352Y-36796174D01*
X61085351Y-36796174D01*
X60946174Y-36935351D01*
X60946174Y-36935352D01*
X60946172Y-36935354D01*
X60896485Y-37003741D01*
X60830476Y-37094594D01*
X60740485Y-37271213D01*
X60692511Y-37322009D01*
X60624690Y-37338804D01*
X60558555Y-37316267D01*
X60519515Y-37271213D01*
X60492397Y-37217992D01*
X60429524Y-37094595D01*
X60313828Y-36935354D01*
X60174646Y-36796172D01*
X60015405Y-36680476D01*
X60015401Y-36680474D01*
X59840029Y-36591117D01*
X59652826Y-36530290D01*
X59458422Y-36499500D01*
X59458417Y-36499500D01*
X59261583Y-36499500D01*
X59261578Y-36499500D01*
X59067173Y-36530290D01*
X58879970Y-36591117D01*
X58704594Y-36680476D01*
X58613741Y-36746485D01*
X58545354Y-36796172D01*
X58545352Y-36796174D01*
X58545351Y-36796174D01*
X58406174Y-36935351D01*
X58406174Y-36935352D01*
X58406172Y-36935354D01*
X58356485Y-37003741D01*
X58290476Y-37094594D01*
X58200485Y-37271213D01*
X58152511Y-37322009D01*
X58084690Y-37338804D01*
X58018555Y-37316267D01*
X57979515Y-37271213D01*
X57952397Y-37217992D01*
X57889524Y-37094595D01*
X57773828Y-36935354D01*
X57634646Y-36796172D01*
X57555025Y-36738324D01*
X57475403Y-36680474D01*
X57298787Y-36590485D01*
X57247990Y-36542511D01*
X57231195Y-36474690D01*
X57253732Y-36408555D01*
X57298787Y-36369515D01*
X57475403Y-36279525D01*
X57475402Y-36279525D01*
X57475405Y-36279524D01*
X57634646Y-36163828D01*
X57773828Y-36024646D01*
X57889524Y-35865405D01*
X57978884Y-35690025D01*
X58039709Y-35502826D01*
X58051161Y-35430521D01*
X58070500Y-35308422D01*
X58070500Y-35111577D01*
X58039709Y-34917173D01*
X57978882Y-34729970D01*
X57916661Y-34607855D01*
X57889524Y-34554595D01*
X57773828Y-34395354D01*
X57634646Y-34256172D01*
X57475405Y-34140476D01*
X57300029Y-34051117D01*
X57112826Y-33990290D01*
X56918422Y-33959500D01*
X56918417Y-33959500D01*
X56721583Y-33959500D01*
X56721578Y-33959500D01*
X56527173Y-33990290D01*
X56339970Y-34051117D01*
X56164594Y-34140476D01*
X56150912Y-34150417D01*
X56005354Y-34256172D01*
X56005352Y-34256174D01*
X56005351Y-34256174D01*
X55866174Y-34395351D01*
X55866174Y-34395352D01*
X55866172Y-34395354D01*
X55816485Y-34463741D01*
X55750476Y-34554594D01*
X55660485Y-34731213D01*
X55612511Y-34782009D01*
X55544690Y-34798804D01*
X55478555Y-34776267D01*
X55439515Y-34731213D01*
X55412397Y-34677992D01*
X55349524Y-34554595D01*
X55233828Y-34395354D01*
X55094646Y-34256172D01*
X54935405Y-34140476D01*
X54760029Y-34051117D01*
X54572826Y-33990290D01*
X54378422Y-33959500D01*
X54378417Y-33959500D01*
X54181583Y-33959500D01*
X54181578Y-33959500D01*
X53987173Y-33990290D01*
X53799970Y-34051117D01*
X53624594Y-34140476D01*
X53610912Y-34150417D01*
X53465354Y-34256172D01*
X53465352Y-34256174D01*
X53465351Y-34256174D01*
X53326174Y-34395351D01*
X53326174Y-34395352D01*
X53326172Y-34395354D01*
X53276485Y-34463741D01*
X53210476Y-34554594D01*
X53121117Y-34729970D01*
X53060290Y-34917173D01*
X53029500Y-35111577D01*
X53029500Y-35308422D01*
X53060290Y-35502826D01*
X53121117Y-35690029D01*
X53202296Y-35849351D01*
X53210476Y-35865405D01*
X53326172Y-36024646D01*
X53465354Y-36163828D01*
X53624595Y-36279524D01*
X53724665Y-36330512D01*
X53801213Y-36369515D01*
X53852009Y-36417489D01*
X53868804Y-36485310D01*
X53846267Y-36551445D01*
X53801213Y-36590485D01*
X53624594Y-36680476D01*
X53533741Y-36746485D01*
X53465354Y-36796172D01*
X53465352Y-36796174D01*
X53465351Y-36796174D01*
X53326174Y-36935351D01*
X53326174Y-36935352D01*
X53326172Y-36935354D01*
X53276485Y-37003741D01*
X53210476Y-37094594D01*
X53120485Y-37271213D01*
X53072511Y-37322009D01*
X53004690Y-37338804D01*
X52938555Y-37316267D01*
X52899515Y-37271213D01*
X52872397Y-37217992D01*
X52809524Y-37094595D01*
X52693828Y-36935354D01*
X52554646Y-36796172D01*
X52395405Y-36680476D01*
X52395401Y-36680474D01*
X52220029Y-36591117D01*
X52032826Y-36530290D01*
X51838422Y-36499500D01*
X51838417Y-36499500D01*
X51641583Y-36499500D01*
X51641578Y-36499500D01*
X51447173Y-36530290D01*
X51259970Y-36591117D01*
X51084594Y-36680476D01*
X50993741Y-36746485D01*
X50925354Y-36796172D01*
X50925352Y-36796174D01*
X50925351Y-36796174D01*
X50786174Y-36935351D01*
X50786174Y-36935352D01*
X50786172Y-36935354D01*
X50736485Y-37003741D01*
X50670476Y-37094594D01*
X50580485Y-37271213D01*
X50532511Y-37322009D01*
X50464690Y-37338804D01*
X50398555Y-37316267D01*
X50359515Y-37271213D01*
X50332397Y-37217992D01*
X50269524Y-37094595D01*
X50153828Y-36935354D01*
X50014646Y-36796172D01*
X49935025Y-36738324D01*
X49855403Y-36680474D01*
X49678787Y-36590485D01*
X49627990Y-36542511D01*
X49611195Y-36474690D01*
X49633732Y-36408555D01*
X49678787Y-36369515D01*
X49855403Y-36279525D01*
X49855402Y-36279525D01*
X49855405Y-36279524D01*
X50014646Y-36163828D01*
X50153828Y-36024646D01*
X50269524Y-35865405D01*
X50358884Y-35690025D01*
X50419709Y-35502826D01*
X50431161Y-35430521D01*
X50450500Y-35308422D01*
X50450500Y-35111577D01*
X50419709Y-34917173D01*
X50358882Y-34729970D01*
X50296661Y-34607855D01*
X50269524Y-34554595D01*
X50153828Y-34395354D01*
X50014646Y-34256172D01*
X49855405Y-34140476D01*
X49680029Y-34051117D01*
X49492826Y-33990290D01*
X49298422Y-33959500D01*
X49298417Y-33959500D01*
X49101583Y-33959500D01*
X49101578Y-33959500D01*
X48907173Y-33990290D01*
X48719970Y-34051117D01*
X48544594Y-34140476D01*
X48530912Y-34150417D01*
X48385354Y-34256172D01*
X48385352Y-34256174D01*
X48385351Y-34256174D01*
X48246174Y-34395351D01*
X48246174Y-34395352D01*
X48246172Y-34395354D01*
X48196485Y-34463741D01*
X48130476Y-34554594D01*
X48040485Y-34731213D01*
X47992511Y-34782009D01*
X47924690Y-34798804D01*
X47858555Y-34776267D01*
X47819515Y-34731213D01*
X47792397Y-34677992D01*
X47729524Y-34554595D01*
X47613828Y-34395354D01*
X47474646Y-34256172D01*
X47315405Y-34140476D01*
X47140029Y-34051117D01*
X46952826Y-33990290D01*
X46758422Y-33959500D01*
X46758417Y-33959500D01*
X46561583Y-33959500D01*
X46561578Y-33959500D01*
X46367173Y-33990290D01*
X46179970Y-34051117D01*
X46004594Y-34140476D01*
X45990912Y-34150417D01*
X45845354Y-34256172D01*
X45845352Y-34256174D01*
X45845351Y-34256174D01*
X45706174Y-34395351D01*
X45706174Y-34395352D01*
X45706172Y-34395354D01*
X45656485Y-34463741D01*
X45590476Y-34554594D01*
X45500485Y-34731213D01*
X45452511Y-34782009D01*
X45384690Y-34798804D01*
X45318555Y-34776267D01*
X45279515Y-34731213D01*
X45252397Y-34677992D01*
X45189524Y-34554595D01*
X45073828Y-34395354D01*
X44934646Y-34256172D01*
X44775405Y-34140476D01*
X44600029Y-34051117D01*
X44412826Y-33990290D01*
X44218422Y-33959500D01*
X44218417Y-33959500D01*
X44021583Y-33959500D01*
X44021578Y-33959500D01*
X43827173Y-33990290D01*
X43639970Y-34051117D01*
X43464594Y-34140476D01*
X43450912Y-34150417D01*
X43305354Y-34256172D01*
X43305352Y-34256174D01*
X43305351Y-34256174D01*
X43166174Y-34395351D01*
X43166174Y-34395352D01*
X43166172Y-34395354D01*
X43116485Y-34463741D01*
X43050476Y-34554594D01*
X42961117Y-34729970D01*
X42900290Y-34917173D01*
X42869500Y-35111577D01*
X42869500Y-35308422D01*
X42900290Y-35502826D01*
X42961117Y-35690029D01*
X43042296Y-35849351D01*
X43050476Y-35865405D01*
X43166172Y-36024646D01*
X43305354Y-36163828D01*
X43464595Y-36279524D01*
X43564665Y-36330512D01*
X43641213Y-36369515D01*
X43692009Y-36417489D01*
X43708804Y-36485310D01*
X43686267Y-36551445D01*
X43641213Y-36590485D01*
X43464594Y-36680476D01*
X43373741Y-36746485D01*
X43305354Y-36796172D01*
X43305352Y-36796174D01*
X43305351Y-36796174D01*
X43166174Y-36935351D01*
X43166174Y-36935352D01*
X43166172Y-36935354D01*
X43116485Y-37003741D01*
X43050476Y-37094594D01*
X42960485Y-37271213D01*
X42912511Y-37322009D01*
X42844690Y-37338804D01*
X42778555Y-37316267D01*
X42739515Y-37271213D01*
X42712397Y-37217992D01*
X42649524Y-37094595D01*
X42533828Y-36935354D01*
X42394646Y-36796172D01*
X42235405Y-36680476D01*
X42235401Y-36680474D01*
X42060029Y-36591117D01*
X41872826Y-36530290D01*
X41678422Y-36499500D01*
X41678417Y-36499500D01*
X41481583Y-36499500D01*
X41481578Y-36499500D01*
X41287173Y-36530290D01*
X41099970Y-36591117D01*
X40924594Y-36680476D01*
X40833741Y-36746485D01*
X40765354Y-36796172D01*
X40765352Y-36796174D01*
X40765351Y-36796174D01*
X40626174Y-36935351D01*
X40626174Y-36935352D01*
X40626172Y-36935354D01*
X40576485Y-37003741D01*
X40510476Y-37094594D01*
X40420485Y-37271213D01*
X40372511Y-37322009D01*
X40304690Y-37338804D01*
X40238555Y-37316267D01*
X40199515Y-37271213D01*
X40172397Y-37217992D01*
X40109524Y-37094595D01*
X39993828Y-36935354D01*
X39854646Y-36796172D01*
X39775025Y-36738324D01*
X39695403Y-36680474D01*
X39518787Y-36590485D01*
X39467990Y-36542511D01*
X39451195Y-36474690D01*
X39473732Y-36408555D01*
X39518787Y-36369515D01*
X39695403Y-36279525D01*
X39695402Y-36279525D01*
X39695405Y-36279524D01*
X39854646Y-36163828D01*
X39993828Y-36024646D01*
X40109524Y-35865405D01*
X40198884Y-35690025D01*
X40259709Y-35502826D01*
X40271161Y-35430521D01*
X40290500Y-35308422D01*
X40290500Y-35111577D01*
X40259709Y-34917173D01*
X40198882Y-34729970D01*
X40136661Y-34607855D01*
X40109524Y-34554595D01*
X39993828Y-34395354D01*
X39854646Y-34256172D01*
X39695405Y-34140476D01*
X39520029Y-34051117D01*
X39332826Y-33990290D01*
X39138422Y-33959500D01*
X39138417Y-33959500D01*
X38941583Y-33959500D01*
X38941578Y-33959500D01*
X38747173Y-33990290D01*
X38559970Y-34051117D01*
X38384594Y-34140476D01*
X38370912Y-34150417D01*
X38225354Y-34256172D01*
X38225352Y-34256174D01*
X38225351Y-34256174D01*
X38086174Y-34395351D01*
X38086174Y-34395352D01*
X38086172Y-34395354D01*
X38036485Y-34463741D01*
X37970476Y-34554594D01*
X37880485Y-34731213D01*
X37832511Y-34782009D01*
X37764690Y-34798804D01*
X37698555Y-34776267D01*
X37659515Y-34731213D01*
X37632397Y-34677992D01*
X37569524Y-34554595D01*
X37453828Y-34395354D01*
X37314646Y-34256172D01*
X37155405Y-34140476D01*
X36980029Y-34051117D01*
X36792826Y-33990290D01*
X36598422Y-33959500D01*
X36598417Y-33959500D01*
X36401583Y-33959500D01*
X36401578Y-33959500D01*
X36207173Y-33990290D01*
X36019970Y-34051117D01*
X35844594Y-34140476D01*
X35830912Y-34150417D01*
X35685354Y-34256172D01*
X35685352Y-34256174D01*
X35685351Y-34256174D01*
X35546174Y-34395351D01*
X35546174Y-34395352D01*
X35546172Y-34395354D01*
X35496485Y-34463741D01*
X35430476Y-34554594D01*
X35341117Y-34729970D01*
X35280290Y-34917173D01*
X35249500Y-35111577D01*
X32080204Y-35111577D01*
X32075996Y-35109433D01*
X31851368Y-35036446D01*
X31618097Y-34999500D01*
X31618092Y-34999500D01*
X31381908Y-34999500D01*
X31381903Y-34999500D01*
X31148631Y-35036446D01*
X30924003Y-35109433D01*
X30713566Y-35216657D01*
X30604550Y-35295862D01*
X30522490Y-35355483D01*
X30522488Y-35355485D01*
X30522487Y-35355485D01*
X30355485Y-35522487D01*
X30355485Y-35522488D01*
X30355483Y-35522490D01*
X30295862Y-35604550D01*
X30216657Y-35713566D01*
X30109433Y-35924003D01*
X30036446Y-36148631D01*
X29999500Y-36381902D01*
X28521820Y-36381902D01*
X28521820Y-36025067D01*
X28522046Y-36017580D01*
X28522046Y-36017579D01*
X28539591Y-35727522D01*
X28541396Y-35712660D01*
X28545544Y-35690029D01*
X28593100Y-35430517D01*
X28596684Y-35415983D01*
X28615537Y-35355483D01*
X28682016Y-35142142D01*
X28687318Y-35128161D01*
X28805051Y-34866569D01*
X28811996Y-34853336D01*
X28960400Y-34607846D01*
X28968887Y-34595550D01*
X29145800Y-34369737D01*
X29155715Y-34358546D01*
X29358546Y-34155715D01*
X29369737Y-34145800D01*
X29595550Y-33968887D01*
X29607846Y-33960400D01*
X29853336Y-33811996D01*
X29866569Y-33805051D01*
X30128161Y-33687318D01*
X30142142Y-33682016D01*
X30415988Y-33596682D01*
X30430517Y-33593100D01*
X30712664Y-33541395D01*
X30727521Y-33539591D01*
X31017584Y-33522046D01*
X31025071Y-33521820D01*
X31087212Y-33521820D01*
X89912787Y-33521820D01*
X89912791Y-33521821D01*
G37*
%TD.AperFunction*%
%TD*%
M02*
