M48
; DRILL file {KiCad 9.0.5} date 2025-10-24T16:15:15+0200
; FORMAT={-:-/ absolute / inch / decimal}
; #@! TF.CreationDate,2025-10-24T16:15:15+02:00
; #@! TF.GenerationSoftware,Kicad,Pcbnew,9.0.5
; #@! TF.FileFunction,Plated,1,4,PTH
FMAT,2
INCH
; #@! TA.AperFunction,Plated,PTH,ViaDrill
T1C0.0079
; #@! TA.AperFunction,Plated,PTH,ViaDrill
T2C0.0098
; #@! TA.AperFunction,Plated,PTH,ViaDrill
T3C0.0118
; #@! TA.AperFunction,Plated,PTH,ComponentDrill
T4C0.0394
%
G90
G05
T1
X1.2303Y-2.313
X1.2303Y-2.3327
X1.2303Y-2.3524
X1.2402Y-2.3228
X1.2402Y-2.3425
X1.25Y-2.3327
X2.8051Y-2.2539
T2
X2.9528Y-2.3823
X2.9724Y-2.0079
X3.0217Y-2.313
T3
X1.2008Y-2.5984
X1.2106Y-1.6437
X1.2303Y-1.8504
X1.2303Y-1.9882
X1.2303Y-2.1161
X1.2303Y-2.8051
X1.2303Y-2.9429
X1.2303Y-3.0709
X1.25Y-1.8504
X1.25Y-1.9882
X1.25Y-2.1161
X1.25Y-2.9429
X1.25Y-3.0709
X1.251Y-2.8051
X1.2697Y-1.8504
X1.2697Y-1.9882
X1.2697Y-2.1161
X1.2697Y-2.8051
X1.2697Y-2.9429
X1.2697Y-3.0709
X1.4075Y-1.9882
X1.4075Y-2.9429
X2.3688Y-2.0866
X2.3688Y-2.5197
X2.3688Y-2.8346
X2.3701Y-1.7717
X2.3701Y-1.8504
X2.3701Y-1.9291
X2.3701Y-2.0079
X2.3701Y-2.5984
X2.3701Y-2.6772
X2.3701Y-2.7559
X3.0709Y-2.315
X3.0945Y-2.3622
X3.1417Y-2.3386
X3.189Y-2.126
X3.189Y-2.3622
X3.4646Y-2.126
X3.4646Y-2.2047
X3.4646Y-2.4803
T4
X1.437Y-1.3862
X1.437Y-1.4862
X1.537Y-1.3862
X1.537Y-1.4862
X1.637Y-1.3862
X1.637Y-1.4862
X1.737Y-1.3862
X1.737Y-1.4862
X1.837Y-1.3862
X1.837Y-1.4862
X1.937Y-1.3862
X1.937Y-1.4862
X2.037Y-1.3862
X2.037Y-1.4862
X2.137Y-1.3862
X2.137Y-1.4862
X2.237Y-1.3862
X2.237Y-1.4862
X2.337Y-1.3862
X2.337Y-1.4862
X2.437Y-1.3862
X2.437Y-1.4862
X2.537Y-1.3862
X2.537Y-1.4862
X2.637Y-1.3862
X2.637Y-1.4862
X2.737Y-1.3862
X2.737Y-1.4862
X2.837Y-1.3862
X2.837Y-1.4862
X2.937Y-1.3862
X2.937Y-1.4862
X3.037Y-1.3862
X3.037Y-1.4862
X3.137Y-1.3862
X3.137Y-1.4862
X3.237Y-1.3862
X3.237Y-1.4862
X3.337Y-1.3862
X3.337Y-1.4862
X3.4744Y-1.6283
X3.4744Y-1.7283
X3.4744Y-3.0732
X3.4744Y-3.1732
X3.5744Y-1.6283
X3.5744Y-1.7283
X3.5744Y-3.0732
X3.5744Y-3.1732
M30
